<svg xmlns="http://www.w3.org/2000/svg" xmlns:xlink="http://www.w3.org/1999/xlink" width="108" height="108" viewBox="0 0 108 108">
  <defs>
    <filter id="Trazado_904820" x="0" y="0" width="108" height="108" filterUnits="userSpaceOnUse">
      <feOffset dy="3" input="SourceAlpha"/>
      <feGaussianBlur stdDeviation="3" result="blur"/>
      <feFlood flood-opacity="0.161"/>
      <feComposite operator="in" in2="blur"/>
      <feComposite in="SourceGraphic"/>
    </filter>
  </defs>
  <g id="Grupo_1146644" data-name="Grupo 1146644" transform="translate(-201 -701)">
    <g transform="matrix(1, 0, 0, 1, 201, 701)" filter="url(#Trazado_904820)">
      <g id="Trazado_904820-2" data-name="Trazado 904820" transform="translate(9 6)" fill="#ecf4fa">
        <path d="M 45 88.5 C 39.12687683105469 88.5 33.43022537231445 87.35007476806641 28.06830024719238 85.08217620849609 C 22.88852500915527 82.89131164550781 18.23629951477051 79.75458526611328 14.2408504486084 75.75914764404297 C 10.24541282653809 71.76370239257812 7.108687400817871 67.11147308349609 4.917825222015381 61.93170166015625 C 2.649924993515015 56.56977462768555 1.5 50.87312316894531 1.5 45 C 1.5 39.12687683105469 2.649924993515015 33.43022537231445 4.917825222015381 28.06830024719238 C 7.108687400817871 22.88852500915527 10.24541282653809 18.23629951477051 14.2408504486084 14.2408504486084 C 18.23629951477051 10.24541282653809 22.88852500915527 7.108687400817871 28.06830024719238 4.917825222015381 C 33.43022537231445 2.649924993515015 39.12687683105469 1.5 45 1.5 C 50.87312316894531 1.5 56.56977462768555 2.649924993515015 61.93170166015625 4.917825222015381 C 67.11147308349609 7.108687400817871 71.76370239257812 10.24541282653809 75.75914764404297 14.2408504486084 C 79.75458526611328 18.23629951477051 82.89131164550781 22.88852500915527 85.08217620849609 28.06830024719238 C 87.35007476806641 33.43022537231445 88.5 39.12687683105469 88.5 45 C 88.5 50.87312316894531 87.35007476806641 56.56977462768555 85.08217620849609 61.93170166015625 C 82.89131164550781 67.11147308349609 79.75458526611328 71.76370239257812 75.75914764404297 75.75914764404297 C 71.76370239257812 79.75458526611328 67.11147308349609 82.89131164550781 61.93170166015625 85.08217620849609 C 56.56977462768555 87.35007476806641 50.87312316894531 88.5 45 88.5 Z" stroke="none"/>
        <path d="M 45 3 C 39.32871246337891 3 33.82865524291992 4.110054016113281 28.65262985229492 6.299339294433594 C 23.65165710449219 8.414573669433594 19.15968322753906 11.44334411621094 15.301513671875 15.301513671875 C 11.44334411621094 19.15968322753906 8.414573669433594 23.65165710449219 6.299339294433594 28.65262985229492 C 4.110054016113281 33.82865524291992 3 39.32871246337891 3 45 C 3 50.67128753662109 4.110054016113281 56.17134475708008 6.299339294433594 61.34737396240234 C 8.414573669433594 66.34834289550781 11.44334411621094 70.84031677246094 15.301513671875 74.698486328125 C 19.15968322753906 78.55665588378906 23.65165710449219 81.58542633056641 28.65262985229492 83.70066070556641 C 33.82865524291992 85.88994598388672 39.32871246337891 87 45 87 C 50.67128753662109 87 56.17134475708008 85.88994598388672 61.34737396240234 83.70066070556641 C 66.34834289550781 81.58542633056641 70.84031677246094 78.55665588378906 74.698486328125 74.698486328125 C 78.55665588378906 70.84031677246094 81.58542633056641 66.34834289550781 83.70066070556641 61.34737396240234 C 85.88994598388672 56.17134475708008 87 50.67128753662109 87 45 C 87 39.32871246337891 85.88994598388672 33.82865524291992 83.70066070556641 28.65262985229492 C 81.58542633056641 23.65165710449219 78.55665588378906 19.15968322753906 74.698486328125 15.301513671875 C 70.84031677246094 11.44334411621094 66.34834289550781 8.414573669433594 61.34737396240234 6.299339294433594 C 56.17134475708008 4.110054016113281 50.67128753662109 3 45 3 M 45 0 C 69.85281372070312 0 90 20.14718627929688 90 45 C 90 69.85281372070312 69.85281372070312 90 45 90 C 20.14718627929688 90 0 69.85281372070312 0 45 C 0 20.14718627929688 20.14718627929688 0 45 0 Z" stroke="none" fill="#2a5673"/>
      </g>
    </g>
    <g id="Grupo_1146643" data-name="Grupo 1146643" transform="translate(226.331 724.331)">
      <g id="Grupo_1146641" data-name="Grupo 1146641" transform="translate(1.86 1.86)">
        <g id="Grupo_1146627" data-name="Grupo 1146627" transform="translate(36.149 10.323)">
          <path id="Trazado_980484" data-name="Trazado 980484" d="M53.466,18.3l-6.082,6.082a14.588,14.588,0,0,0-3.269-5.144l-.095-.095L49.164,14Z" transform="translate(-44.02 -14)" fill="#5cd6b3"/>
        </g>
        <g id="Grupo_1146628" data-name="Grupo 1146628" transform="translate(8.603 35.478)">
          <path id="Trazado_980485" data-name="Trazado 980485" d="M23.356,48.023,16.3,55.077l-4.3-4.3,7.536-7.536A16.919,16.919,0,0,1,23.356,48.023Z" transform="translate(-12 -43.24)" fill="#5cd6b3"/>
        </g>
        <g id="Grupo_1146629" data-name="Grupo 1146629" transform="translate(4.301 30.738)">
          <path id="Trazado_980486" data-name="Trazado 980486" d="M18.837,42.47,11.3,50.006,7,45.7l7.975-7.975A14.578,14.578,0,0,0,17.8,41.446c.344.344.688.688,1.041,1.024Z" transform="translate(-7 -37.73)" fill="#ff826e"/>
        </g>
        <g id="Grupo_1146630" data-name="Grupo 1146630" transform="translate(30.91 6.022)">
          <path id="Trazado_980487" data-name="Trazado 980487" d="M48.314,13.3l-5.144,5.144a14.5,14.5,0,0,0-5.239-3.364L44.012,9Z" transform="translate(-37.93 -9)" fill="#ff826e"/>
        </g>
        <g id="Grupo_1146631" data-name="Grupo 1146631" transform="translate(39.573)">
          <path id="Trazado_980488" data-name="Trazado 980488" d="M60.044,8.082a6.067,6.067,0,0,1-1.781,4.3l-1.66,1.66L48,5.441l1.66-1.66a6.082,6.082,0,0,1,10.384,4.3Z" transform="translate(-48 -2)" fill="#aab2bd"/>
        </g>
        <g id="Grupo_1146632" data-name="Grupo 1146632" transform="translate(0 38.713)">
          <path id="Trazado_980489" data-name="Trazado 980489" d="M14.9,55.6,3.97,59.81a1.522,1.522,0,0,1-.516.095A1.458,1.458,0,0,1,2,58.45a1.522,1.522,0,0,1,.095-.516L6.3,47l4.3,4.3Z" transform="translate(-2 -47)" fill="#ccd1d9"/>
        </g>
        <g id="Grupo_1146633" data-name="Grupo 1146633" transform="translate(36.992 3.441)">
          <path id="Trazado_980490" data-name="Trazado 980490" d="M56.184,14.6,53.6,17.184l-4.3-4.3L45,8.581,47.581,6Z" transform="translate(-45 -6)" fill="#e6e9ed"/>
        </g>
        <g id="Grupo_1146634" data-name="Grupo 1146634" transform="translate(31.116 25.808)">
          <path id="Trazado_980491" data-name="Trazado 980491" d="M49.207,32.9a2.5,2.5,0,0,0,1.549,2.323c.009,0,.026.009.034.009a2.5,2.5,0,0,0,2.744-.533l.645-.645,2.435,2.435-.645.645a2.5,2.5,0,0,0-.533,2.744c0,.009.009.026.009.034a2.5,2.5,0,0,0,2.323,1.549h.9V44.9h-.9a2.5,2.5,0,0,0-2.323,1.549c0,.009-.009.026-.009.034a2.5,2.5,0,0,0,.533,2.744l.645.645L54.18,52.311l-.645-.645a2.5,2.5,0,0,0-2.744-.533c-.009,0-.026.009-.034.009a2.5,2.5,0,0,0-1.549,2.323v.9H45.766v-.9a2.5,2.5,0,0,0-1.549-2.323c-.009,0-.026-.009-.034-.009a2.5,2.5,0,0,0-2.744.533l-.645.645-2.177-2.177a1.7,1.7,0,0,0,.267-.929,1.727,1.727,0,0,0-.714-1.394c.834-2.684,2.607-4.43,4.387-6.16a5.322,5.322,0,0,0-.232,1.531,5.162,5.162,0,1,0,5.162-5.162,5.249,5.249,0,0,0-1.987.4A10.518,10.518,0,0,0,47.487,32h1.721Z" transform="translate(-38.17 -32)" fill="#ffc729"/>
        </g>
        <g id="Grupo_1146635" data-name="Grupo 1146635" transform="translate(35.272 31.83)">
          <path id="Trazado_980492" data-name="Trazado 980492" d="M48.162,39A5.162,5.162,0,1,1,43,44.162a5.322,5.322,0,0,1,.232-1.531v-.009A23.866,23.866,0,0,0,46.174,39.4a5.249,5.249,0,0,1,1.987-.4Zm1.721,5.162a1.721,1.721,0,1,0-1.721,1.721A1.726,1.726,0,0,0,49.882,44.162Z" transform="translate(-43 -39)" fill="#fcd770"/>
        </g>
        <g id="Grupo_1146636" data-name="Grupo 1146636" transform="translate(21.507 48.176)">
          <path id="Trazado_980493" data-name="Trazado 980493" d="M31.3,61.441A4.408,4.408,0,0,1,27.026,58.1L27,58h8.6l-.026.1a4.441,4.441,0,0,1-1.566,2.409A4.394,4.394,0,0,1,31.3,61.441Z" transform="translate(-27 -58)" fill="#aab2bd"/>
        </g>
        <g id="Grupo_1146637" data-name="Grupo 1146637" transform="translate(19.786 44.735)">
          <path id="Trazado_980494" data-name="Trazado 980494" d="M35.323,54a1.726,1.726,0,0,1,1.721,1.721,1.733,1.733,0,0,1-1.721,1.721h-8.6A1.726,1.726,0,0,1,25,55.721,1.733,1.733,0,0,1,26.721,54Z" transform="translate(-25 -54)" fill="#ccd1d9"/>
        </g>
        <g id="Grupo_1146638" data-name="Grupo 1146638" transform="translate(19.786 41.293)">
          <path id="Trazado_980495" data-name="Trazado 980495" d="M37.044,51.721a1.7,1.7,0,0,1-.267.929,1.911,1.911,0,0,1-.241.284,1.682,1.682,0,0,1-1.213.508h-8.6A1.726,1.726,0,0,1,25,51.721a1.682,1.682,0,0,1,.508-1.213,1.038,1.038,0,0,1,.206-.181A1.7,1.7,0,0,1,26.721,50h8.6a1.7,1.7,0,0,1,1.007.327,1.727,1.727,0,0,1,.714,1.394Z" transform="translate(-25 -50)" fill="#ccd1d9"/>
        </g>
        <g id="Grupo_1146639" data-name="Grupo 1146639" transform="translate(11.184 11.184)">
          <path id="Trazado_980496" data-name="Trazado 980496" d="M43.329,24.523a14.588,14.588,0,0,0-3.269-5.144l-.095-.095A14.663,14.663,0,0,0,29.909,15H29.9a5.888,5.888,0,0,1,.585,2.581,5.956,5.956,0,0,1-.318,1.927v.009a3.369,3.369,0,0,1,1.179-.215,3.441,3.441,0,0,1,0,6.882H15.4a14.606,14.606,0,0,0-.4,3.441,10.682,10.682,0,0,0,1.093,4.929,14.578,14.578,0,0,0,2.822,3.716c.344.344.688.688,1.041,1.024a16.919,16.919,0,0,1,3.82,4.783,8.291,8.291,0,0,1,.542,1.359,1.7,1.7,0,0,1,1.007-.327h8.6a1.7,1.7,0,0,1,1.007.327c.834-2.684,2.607-4.43,4.387-6.16v-.009a23.866,23.866,0,0,0,2.942-3.226,10.518,10.518,0,0,0,1.987-6.418,14.506,14.506,0,0,0-.921-5.1Z" transform="translate(-15 -15)" fill="#ffeaa7"/>
        </g>
        <g id="Grupo_1146640" data-name="Grupo 1146640" transform="translate(0 3.441)">
          <path id="Trazado_980497" data-name="Trazado 980497" d="M20.324,10.766a6.021,6.021,0,0,1,7.76,2.977,5.888,5.888,0,0,1,.585,2.581,5.956,5.956,0,0,1-.318,1.927v.009a3.369,3.369,0,0,1,1.179-.215,3.441,3.441,0,0,1,0,6.882H6.3a4.3,4.3,0,0,1-.413-8.577v-.009a7.632,7.632,0,0,1-.447-2.6,7.742,7.742,0,0,1,14.874-3.011Z" transform="translate(-2 -6)" fill="#e6e9ed"/>
        </g>
      </g>
      <g id="Grupo_1146642" data-name="Grupo 1146642" transform="translate(1 1)">
        <path id="Trazado_980498" data-name="Trazado 980498" d="M48.581,47.162A2.581,2.581,0,1,0,46,44.581,2.584,2.584,0,0,0,48.581,47.162Zm0-3.441a.86.86,0,1,1-.86.86A.861.861,0,0,1,48.581,43.721Z" transform="translate(-7.287 -6.728)"/>
        <path id="Trazado_980499" data-name="Trazado 980499" d="M51.034,35.22a1.651,1.651,0,0,1,.352-1.809l1.252-1.253-3.651-3.651L47.733,29.76a1.66,1.66,0,0,1-1.842.337,1.639,1.639,0,0,1-1.017-1.521V26.808H43.11a15.24,15.24,0,0,0-.762-4L52.3,12.854a6.943,6.943,0,1,0-9.818-9.82L32.54,12.979a15.282,15.282,0,0,0-4.058-.758,6.846,6.846,0,0,0-7.862-3.21,8.586,8.586,0,0,0-15.95,5.975,5.161,5.161,0,0,0,1.493,10.1H12.4a15.6,15.6,0,0,0-.219,2.581,11.812,11.812,0,0,0,.915,4.75L5.424,40.095,1.154,51.2A2.29,2.29,0,0,0,1,52.026a2.311,2.311,0,0,0,3.141,2.158l11.1-4.27L20.855,44.3a2.514,2.514,0,0,0,.6,2.294A2.559,2.559,0,0,0,22.713,50.8a5.24,5.24,0,0,0,9.91,0,2.577,2.577,0,0,0,1.927-2.486c0-.065-.015-.125-.019-.188L35.6,49.2l1.253-1.253a1.685,1.685,0,0,1,2.859,1.185V50.9h5.162V49.128a1.686,1.686,0,0,1,2.86-1.185L48.986,49.2l3.651-3.651-1.252-1.253a1.664,1.664,0,0,1-.338-1.842,1.642,1.642,0,0,1,1.522-1.018h1.768V36.272H52.57a1.655,1.655,0,0,1-1.536-1.051Zm-12.89,2.536a25.674,25.674,0,0,0,2.69-2.934,4.251,4.251,0,0,1,1.46-.271,4.343,4.343,0,1,1-4.15,3.205Zm1.033-20.378L43.154,13.4l3.085,3.085L41.644,21.08A15.612,15.612,0,0,0,39.177,17.378Zm.892-9.5,1.364-1.364L48.82,13.9l-1.364,1.364Zm7.325-5.162a5.223,5.223,0,0,1,3.693,8.916l-1.051,1.051L42.65,5.3,43.7,4.25a5.191,5.191,0,0,1,3.693-1.53ZM38.852,9.1l3.085,3.085-3.975,3.975a15.6,15.6,0,0,0-3.7-2.47Zm2.581,18.57c0,4.476-2.254,6.675-4.64,9a16.824,16.824,0,0,0-4.313,5.674,2.544,2.544,0,0,0-.509-.052H28.529v-4.3a2.584,2.584,0,0,0-2.581-2.581H24.228a.86.86,0,1,1,0-1.721h8.6a2.581,2.581,0,1,0,0-5.162H25.948a.861.861,0,0,1-.86-.86V25.088h4.3a4.3,4.3,0,0,0,0-8.6c-.024,0-.046.007-.071.007a6.774,6.774,0,0,0,.071-.867,6.892,6.892,0,0,0-.2-1.631A13.838,13.838,0,0,1,41.433,27.669ZM22.507,44.874a.861.861,0,0,1,.86-.86h8.6a.86.86,0,1,1,0,1.721h-8.6A.861.861,0,0,1,22.507,44.874Zm-10.827,0L18,38.55a15.616,15.616,0,0,1,2.765,3.4l-6,6ZM2.721,19.926a3.441,3.441,0,0,1,6.882,0h1.721a5.163,5.163,0,0,0-4.941-5.15A6.875,6.875,0,0,1,19.039,9.69a6.888,6.888,0,0,0-3.371,5.183,3.441,3.441,0,0,0-2.624,3.333h1.721a1.721,1.721,0,0,1,3.441,0h1.721A3.436,3.436,0,0,0,17.4,14.9a5.155,5.155,0,1,1,10.078,2.048,4.293,4.293,0,0,0-2.392,3.834h1.721a2.581,2.581,0,1,1,2.581,2.581H6.162A3.445,3.445,0,0,1,2.721,19.926Zm20.647,5.162v2.581a2.584,2.584,0,0,0,2.581,2.581H32.83a.86.86,0,0,1,0,1.721h-8.6a2.581,2.581,0,0,0,0,5.162h1.721a.861.861,0,0,1,.86.86v4.3H23.367a2.544,2.544,0,0,0-.509.052,16.825,16.825,0,0,0-4.313-5.674c-2.386-2.327-4.64-4.526-4.64-9a13.868,13.868,0,0,1,.265-2.581ZM16.775,37.346l-6.312,6.312L7.378,40.573l6.564-6.564a19.352,19.352,0,0,0,2.833,3.337ZM6.489,42.117l6.731,6.731-5.7,2.192L4.3,47.816ZM3.524,52.577a.592.592,0,0,1-.765-.763l.862-2.242,2.143,2.143Zm24.145.04A3.535,3.535,0,0,1,24.637,50.9H30.7a3.535,3.535,0,0,1-3.032,1.721Zm4.3-3.441h-8.6a.86.86,0,0,1,0-1.721h8.6a.86.86,0,1,1,0,1.721Zm20.647-9.463H52.57a3.407,3.407,0,0,0-2.4,5.8l.036.036-1.218,1.218-.036-.036a3.406,3.406,0,0,0-5.8,2.4v.047H41.433v-.047a3.407,3.407,0,0,0-5.8-2.4l-.036.036L34.434,45.6a2.522,2.522,0,0,0,.117-.723,2.556,2.556,0,0,0-.578-1.608,11.1,11.1,0,0,1,2.35-3.667,6.02,6.02,0,1,0,5.97-6.77c-.084,0-.166.009-.249.012a11.287,11.287,0,0,0,1.083-4.313h.027v.047a3.406,3.406,0,0,0,5.8,2.4l.036-.036L50.2,32.159l-.036.036a3.406,3.406,0,0,0,2.4,5.8h.047Z" transform="translate(-1 -1)"/>
      </g>
    </g>
  </g>
</svg>
