<svg xmlns="http://www.w3.org/2000/svg" xmlns:xlink="http://www.w3.org/1999/xlink" width="108" height="108" viewBox="0 0 108 108">
  <defs>
    <filter id="Trazado_904820" x="0" y="0" width="108" height="108" filterUnits="userSpaceOnUse">
      <feOffset dy="3" input="SourceAlpha"/>
      <feGaussianBlur stdDeviation="3" result="blur"/>
      <feFlood flood-opacity="0.161"/>
      <feComposite operator="in" in2="blur"/>
      <feComposite in="SourceGraphic"/>
    </filter>
  </defs>
  <g id="Grupo_1146647" data-name="Grupo 1146647" transform="translate(-306 -1170)">
    <g transform="matrix(1, 0, 0, 1, 306, 1170)" filter="url(#Trazado_904820)">
      <g id="Trazado_904820-2" data-name="Trazado 904820" transform="translate(9 6)" fill="#ecf4fa">
        <path d="M 45 88.5 C 39.12687683105469 88.5 33.43022537231445 87.35007476806641 28.06830024719238 85.08217620849609 C 22.88852500915527 82.89131164550781 18.23629951477051 79.75458526611328 14.2408504486084 75.75914764404297 C 10.24541282653809 71.76370239257812 7.108687400817871 67.11147308349609 4.917825222015381 61.93170166015625 C 2.649924993515015 56.56977462768555 1.5 50.87312316894531 1.5 45 C 1.5 39.12687683105469 2.649924993515015 33.43022537231445 4.917825222015381 28.06830024719238 C 7.108687400817871 22.88852500915527 10.24541282653809 18.23629951477051 14.2408504486084 14.2408504486084 C 18.23629951477051 10.24541282653809 22.88852500915527 7.108687400817871 28.06830024719238 4.917825222015381 C 33.43022537231445 2.649924993515015 39.12687683105469 1.5 45 1.5 C 50.87312316894531 1.5 56.56977462768555 2.649924993515015 61.93170166015625 4.917825222015381 C 67.11147308349609 7.108687400817871 71.76370239257812 10.24541282653809 75.75914764404297 14.2408504486084 C 79.75458526611328 18.23629951477051 82.89131164550781 22.88852500915527 85.08217620849609 28.06830024719238 C 87.35007476806641 33.43022537231445 88.5 39.12687683105469 88.5 45 C 88.5 50.87312316894531 87.35007476806641 56.56977462768555 85.08217620849609 61.93170166015625 C 82.89131164550781 67.11147308349609 79.75458526611328 71.76370239257812 75.75914764404297 75.75914764404297 C 71.76370239257812 79.75458526611328 67.11147308349609 82.89131164550781 61.93170166015625 85.08217620849609 C 56.56977462768555 87.35007476806641 50.87312316894531 88.5 45 88.5 Z" stroke="none"/>
        <path d="M 45 3 C 39.32871246337891 3 33.82865524291992 4.110054016113281 28.65262985229492 6.299339294433594 C 23.65165710449219 8.414573669433594 19.15968322753906 11.44334411621094 15.301513671875 15.301513671875 C 11.44334411621094 19.15968322753906 8.414573669433594 23.65165710449219 6.299339294433594 28.65262985229492 C 4.110054016113281 33.82865524291992 3 39.32871246337891 3 45 C 3 50.67128753662109 4.110054016113281 56.17134475708008 6.299339294433594 61.34737396240234 C 8.414573669433594 66.34834289550781 11.44334411621094 70.84031677246094 15.301513671875 74.698486328125 C 19.15968322753906 78.55665588378906 23.65165710449219 81.58542633056641 28.65262985229492 83.70066070556641 C 33.82865524291992 85.88994598388672 39.32871246337891 87 45 87 C 50.67128753662109 87 56.17134475708008 85.88994598388672 61.34737396240234 83.70066070556641 C 66.34834289550781 81.58542633056641 70.84031677246094 78.55665588378906 74.698486328125 74.698486328125 C 78.55665588378906 70.84031677246094 81.58542633056641 66.34834289550781 83.70066070556641 61.34737396240234 C 85.88994598388672 56.17134475708008 87 50.67128753662109 87 45 C 87 39.32871246337891 85.88994598388672 33.82865524291992 83.70066070556641 28.65262985229492 C 81.58542633056641 23.65165710449219 78.55665588378906 19.15968322753906 74.698486328125 15.301513671875 C 70.84031677246094 11.44334411621094 66.34834289550781 8.414573669433594 61.34737396240234 6.299339294433594 C 56.17134475708008 4.110054016113281 50.67128753662109 3 45 3 M 45 0 C 69.85281372070312 0 90 20.14718627929688 90 45 C 90 69.85281372070312 69.85281372070312 90 45 90 C 20.14718627929688 90 0 69.85281372070312 0 45 C 0 20.14718627929688 20.14718627929688 0 45 0 Z" stroke="none" fill="#2a5673"/>
      </g>
    </g>
    <g id="layer1" transform="translate(333.251 1194.626)">
      <path id="path6238" d="M8.245,10.018.686,7.14l.927-3.369L.265.265,6.4,3.215,5.159,6.05Z" transform="translate(0.622 0.622)" fill="#ffca28"/>
      <path id="circle6231" d="M23.6,16.7a5.32,5.32,0,1,1-5.32-5.32A5.32,5.32,0,0,1,23.6,16.7Z" transform="translate(30.484 26.751)" fill="#e4eff8"/>
      <path id="circle6235" d="M18.285,11.377a5.315,5.315,0,0,0-2.767,9.856,5.311,5.311,0,0,1,7.308-7.3,5.32,5.32,0,0,0-4.541-2.558Z" transform="translate(30.484 26.751)" fill="#c4dcf0"/>
      <path id="path6204" d="M12.233,15.5c1.145,2.821-1.278,2.221.864,4.391s1.581-.253,4.394.935.673,2.471,3.728,2.5.938-1.293,3.771-2.433,2.23,1.273,4.409-.86-.254-1.575.939-4.376,2.481-.671,2.507-3.858c-.026-3.187-1.314-1.057-2.507-3.858s1.24-2.243-.939-4.376-1.577.28-4.409-.86S24.273.239,21.218.265s-.916,1.308-3.728,2.5S15.238,1.527,13.1,3.7s.281,1.57-.864,4.391-2.469.713-2.443,3.7c-.026,2.991,1.3.883,2.443,3.7Z" transform="translate(23.018 0.622)" fill="#549ad4"/>
      <g id="Grupo_1146646" data-name="Grupo 1146646" transform="translate(32.807 0.886)">
        <path id="path6219" d="M9.8,3.677c0,.036-.006.054-.005.092-.026,2.991,1.3.883,2.444,3.7s-1.279,2.22.862,4.39c1.964,1.989,1.664.126,3.767.717A16.921,16.921,0,0,0,9.8,3.677Z" transform="translate(-9.789 7.759)" fill="#3588cb"/>
        <path id="path6217" d="M14.111.265a4.084,4.084,0,0,0-1.3.165c1,.383.2,1.378,2.409,2.269a2.8,2.8,0,0,0,2.653,0C15.056,1.555,17.163.239,14.111.265Z" transform="translate(-2.682 -0.264)" fill="#3588cb"/>
        <path id="path6215" d="M16.546.976c-.555-.044-.883.473-1.893.355a5.978,5.978,0,0,1,.649.561c2.179,2.133-.255,1.574.939,4.375s2.482.671,2.508,3.859c-.026,3.187-1.314,1.057-2.508,3.859s1.24,2.242-.939,4.375a5.978,5.978,0,0,1-.649.561c1.606-.188,1.474,1.236,3.31-.561,2.179-2.133-.255-1.574.939-4.375s2.482-.671,2.508-3.859c-.026-3.187-1.314-1.057-2.508-3.859s1.24-2.242-.939-4.375c-.681-.667-1.089-.89-1.417-.916Z" transform="translate(1.646 1.402)" fill="#3588cb"/>
        <path id="path6209" d="M16.494,6.324a4.006,4.006,0,0,0-1.273.32c-2.212.891-1.413,1.886-2.409,2.269a4.084,4.084,0,0,0,1.3.165c3.052.026.945-1.29,3.763-2.43a3.161,3.161,0,0,0-1.38-.324Z" transform="translate(-2.682 13.976)" fill="#3588cb"/>
      </g>
      <path id="path6166" d="M20.659,41.676l-4.374,1.773-8.926-.887L4.58,30.2.265,28.9l4.315-9.1a16.907,16.907,0,0,1,33.813,0c0,9.622,0,21.089,0,29.212H14.452l-.887-5.569Z" transform="translate(0.622 6.843)" fill="#ffd1b5"/>
      <path id="path6168" d="M27.94,4.174C36.966,32.941,11.41,37.293,2.271,37.942l.371,1.649,6.979.693-.772.194.887,5.57H33.676V16.834A16.834,16.834,0,0,0,27.94,4.175Z" transform="translate(5.339 9.815)" fill="#ffb98d"/>
      <path id="path6174" d="M5.469,21.468c1.321,3.255-1.475,2.563,1,5.067s1.824-.292,5.069,1.079.777,2.851,4.3,2.881S16.919,29,20.187,27.687s2.573,1.469,5.087-.993-.293-1.817,1.083-5.049,2.862-.774,2.893-4.451c-.03-3.677-1.516-1.219-2.893-4.451s1.43-2.588-1.083-5.049-1.819.323-5.087-.993-.826-2.837-4.351-2.807-1.057,1.51-4.3,2.881-2.6-1.425-5.069,1.079.325,1.812-1,5.067-2.849.822-2.819,4.274c-.03,3.451,1.5,1.019,2.819,4.274Z" transform="translate(6.23 9.157)" fill="#e4eff8"/>
      <path id="path6202" d="M18.685,12.914a7.094,7.094,0,1,1-7.094-7.094A7.094,7.094,0,0,1,18.685,12.914Z" transform="translate(10.576 13.686)" fill="#549ad4"/>
      <path id="path6185" d="M7.485,3.895A5.684,5.684,0,0,0,6.2,4.021c1.436.387.283,1.6,2.961,2.681a3.044,3.044,0,0,0,2.845.062c-.06-.022-.111-.037-.173-.062-3.268-1.316-.825-2.837-4.35-2.807Z" transform="translate(14.582 9.156)" fill="#c4dcf0"/>
      <path id="path6183" d="M10.151,4.716c-.557-.044-.915.4-1.761.429a6.872,6.872,0,0,1,.724.625c2.514,2.461-.293,1.818,1.084,5.05s2.862.773,2.892,4.451c-.03,3.677-1.515,1.219-2.892,4.451s1.43,2.589-1.084,5.05a6.853,6.853,0,0,1-.727.627c1.424.048,1.455,1.277,3.4-.627,2.514-2.461-.293-1.818,1.084-5.05s2.862-.773,2.892-4.451c-.03-3.677-1.515-1.219-2.892-4.451s1.43-2.589-1.084-5.05C11,5,10.529,4.745,10.151,4.716Z" transform="translate(19.718 11.08)" fill="#c4dcf0"/>
      <path id="path6178" d="M10.63,10.887a4.611,4.611,0,0,0-1.467.369C6.485,12.334,7.638,13.549,6.2,13.937a5.681,5.681,0,0,0,1.283.126c3.525.03,1.082-1.492,4.35-2.807.062-.025.114-.04.173-.062a2.821,2.821,0,0,0-1.379-.307Z" transform="translate(14.582 25.589)" fill="#c4dcf0"/>
      <path id="path6187" d="M15.667,10.8c0,3.547-2.66,4.433-2.66,5.492v2.489a1.77,1.77,0,0,1-1.773,1.773H9.461a1.77,1.77,0,0,1-1.773-1.773V16.294c0-1.058-2.66-1.945-2.66-5.492a5.32,5.32,0,1,1,10.64,0Z" transform="translate(11.82 12.89)" fill="#ffca28"/>
      <path id="path6198" d="M7.859,5.482a5.3,5.3,0,0,0-1.773.31A5.316,5.316,0,0,1,9.632,10.8c0,3.547-2.66,4.433-2.66,5.492v2.489a1.764,1.764,0,0,1-.887,1.529,1.758,1.758,0,0,0,.887.244H8.745a1.77,1.77,0,0,0,1.773-1.773V16.294c0-1.058,2.66-1.945,2.66-5.492a5.32,5.32,0,0,0-5.32-5.32Z" transform="translate(14.309 12.889)" fill="#ecb200"/>
      <path id="path6189" d="M11.141,8.708V11.2A1.77,1.77,0,0,1,9.368,12.97H7.594A1.77,1.77,0,0,1,5.821,11.2V8.708Z" transform="translate(13.686 20.475)" fill="#e4eff8"/>
      <path id="path6191" d="M9.676,8.708a5.811,5.811,0,0,1-3.708,3.713,1.764,1.764,0,0,0,1.28.549H9.021A1.77,1.77,0,0,0,10.795,11.2V8.708Z" transform="translate(14.033 20.475)" fill="#c4dcf0"/>
      <path id="circle6224" d="M22.278,7.436A5.318,5.318,0,1,1,16.96,2.118,5.318,5.318,0,0,1,22.278,7.436Z" transform="translate(27.373 4.979)" fill="#e4eff8"/>
      <path id="circle6228" d="M16.96,2.118a5.314,5.314,0,0,0-2.766,9.854,5.31,5.31,0,0,1,7.3-7.3A5.318,5.318,0,0,0,16.96,2.118Z" transform="translate(27.373 4.979)" fill="#c4dcf0"/>
      <path id="path11361" d="M.06,1.2,1.3,4.44.453,7.528A.887.887,0,0,0,.995,8.589l7.554,2.88a.887.887,0,0,0,1.022-1.375L6.809,6.547,7.836,4.2a.886.886,0,0,0-.426-1.159L1.27.086A.888.888,0,0,0,.06,1.2ZM31.93.792l-.224,1.754a.888.888,0,0,0,1.761.224l.222-1.761A.886.886,0,0,0,31.93.792ZM55.413,9.529a2.292,2.292,0,0,1-.594-.313,2.557,2.557,0,0,1-.649-1.008A2.513,2.513,0,0,1,53.9,7.049a1.854,1.854,0,0,1,.182-.61,1.881,1.881,0,0,0,.08-1.349,4.055,4.055,0,0,0-1.119-1.543A4.076,4.076,0,0,0,51.467,2.46a1.842,1.842,0,0,0-1.347.1,1.879,1.879,0,0,1-.61.189A2.538,2.538,0,0,1,48.339,2.5a2.519,2.519,0,0,1-1.015-.629,1.9,1.9,0,0,1-.308-.563A1.867,1.867,0,0,0,46.114.3,4.045,4.045,0,0,0,44.335,0a4.044,4.044,0,0,0-1.779.3,1.867,1.867,0,0,0-.9,1.008,1.907,1.907,0,0,1-.308.563,2.519,2.519,0,0,1-1.015.629,2.515,2.515,0,0,1-1.171.248,1.849,1.849,0,0,1-.61-.189,1.844,1.844,0,0,0-1.347-.1,4.075,4.075,0,0,0-1.572,1.088,4.055,4.055,0,0,0-1.119,1.543,1.888,1.888,0,0,0,.08,1.349,1.9,1.9,0,0,1,.182.61A2.528,2.528,0,0,1,34.5,8.208a2.559,2.559,0,0,1-.649,1.008,2.289,2.289,0,0,1-.594.313,1.906,1.906,0,0,0-1.01.942,3.548,3.548,0,0,0-.31,1.352,17.8,17.8,0,0,0-27.619,14.6L.086,35.365a.9.9,0,0,0,.544,1.23l3.822,1.153L7.115,49.6a.887.887,0,0,0,.779.687l5.485.544L14.2,56a.886.886,0,0,0,.876.746H39.019a.888.888,0,0,0,.883-.892V26.646A17.739,17.739,0,0,0,39.288,22a2.918,2.918,0,0,1,.876.258,2.552,2.552,0,0,1,1.008.642,1.923,1.923,0,0,1,.295.568,1.845,1.845,0,0,0,.885,1.022,3.993,3.993,0,0,0,1.877.334,4.259,4.259,0,0,0,1.886-.3,1.885,1.885,0,0,0,.9-1.008,1.908,1.908,0,0,1,.308-.563,2.531,2.531,0,0,1,1.015-.622,2.572,2.572,0,0,1,1.171-.256,1.855,1.855,0,0,1,.61.19,1.874,1.874,0,0,0,1.347.1,4.007,4.007,0,0,0,1.572-1.088,3.977,3.977,0,0,0,1.119-1.545,1.867,1.867,0,0,0-.08-1.347,1.886,1.886,0,0,1-.182-.61,2.531,2.531,0,0,1,.273-1.159,2.559,2.559,0,0,1,.649-1.008,2.29,2.29,0,0,1,.594-.313,1.916,1.916,0,0,0,1.01-.942,4.358,4.358,0,0,0,.325-1.941,4.362,4.362,0,0,0-.325-1.941,1.907,1.907,0,0,0-1.01-.942ZM45.286,1.873c.056.027.038,0,.107.149a3.5,3.5,0,0,0,.589,1.015,4.344,4.344,0,0,0,1.7,1.1,4.322,4.322,0,0,0,1.983.374A3.578,3.578,0,0,0,50.793,4.2c.089-.041.139-.074.206-.023a3.059,3.059,0,0,1,.795.634,2.965,2.965,0,0,1,.66.8c.02.057.039.02-.023.182a3.559,3.559,0,0,0-.3,1.139A4.275,4.275,0,0,0,52.541,8.9a4.361,4.361,0,0,0,1.133,1.669,3.721,3.721,0,0,0,1.008.577c.137.062.12.048.161.132a3.37,3.37,0,0,1,.133,1.131,3.112,3.112,0,0,1-.144,1.165c-.027.054-.078.062-.151.1a3.721,3.721,0,0,0-1.008.577,4.361,4.361,0,0,0-1.133,1.669,4.3,4.3,0,0,0-.412,1.976,3.512,3.512,0,0,0,.3,1.133c.013.052.054.1.035.161a3.058,3.058,0,0,1-.67.821,3.06,3.06,0,0,1-.833.655c-.06.02-.074-.013-.168-.04a3.557,3.557,0,0,0-1.133-.32,5.18,5.18,0,0,0-3.678,1.479,3.5,3.5,0,0,0-.589,1.015c-.063.159-.067.133-.159.165a3.421,3.421,0,0,1-.992.083,3.105,3.105,0,0,1-1.067-.13c-.023-.013-.05-.1-.073-.137a3.551,3.551,0,0,0-.575-1.029,5.216,5.216,0,0,0-3.6-1.541c-.073,0-.15.01-.218.02a17.851,17.851,0,0,0-4.972-7.048,5.865,5.865,0,0,1-.04-.778,3.33,3.33,0,0,1,.133-1.131c.041-.084.023-.069.161-.132A3.722,3.722,0,0,0,35,10.57,4.361,4.361,0,0,0,36.131,8.9a4.275,4.275,0,0,0,.412-1.969,3.558,3.558,0,0,0-.3-1.139c-.063-.161-.044-.124-.023-.182a2.989,2.989,0,0,1,.66-.8,3.027,3.027,0,0,1,.795-.634c.067-.05.117-.017.206.023a3.586,3.586,0,0,0,1.133.315,4.319,4.319,0,0,0,1.983-.374,4.344,4.344,0,0,0,1.7-1.1,3.5,3.5,0,0,0,.589-1.015c.07-.145.051-.121.107-.149a4.788,4.788,0,0,1,1.9,0ZM28.172,1.84a.887.887,0,0,0-.714,1.446L28.546,4.68a.887.887,0,1,0,1.4-1.086l-1.093-1.4a.887.887,0,0,0-.681-.353ZM2.521,2.657,5.872,4.268l-.9,2.049a.886.886,0,0,0,.111.9L6.225,8.686,2.377,7.221,3.09,4.628a.882.882,0,0,0-.027-.549Zm22.6,5.019,1.762.218A.887.887,0,0,0,27.1,6.133l-1.76-.215c-.03,0-.059-.007-.133-.009A.887.887,0,0,0,25.122,7.676ZM44.333,6.208a6.207,6.207,0,1,0,6.205,6.21,6.217,6.217,0,0,0-6.205-6.21Zm0,1.779A4.432,4.432,0,1,1,39.9,12.418,4.429,4.429,0,0,1,44.333,7.986Zm-.885,2.655v.887h-.887a.887.887,0,1,0,0,1.773h.887v.887a.887.887,0,1,0,1.773,0V13.3h.887a.887.887,0,1,0,0-1.773h-.887v-.887a.887.887,0,0,0-1.773,0Zm-5.32,16V54.973H15.835L15.2,51.008l1.623.163a.912.912,0,0,0,.419-.059l4.373-1.773a.887.887,0,1,0-.668-1.643l-4.168,1.69-8.07-.8L6.069,36.851a.888.888,0,0,0-.61-.655l-3.332-1L6,27.026a.9.9,0,0,0,.085-.381,16.02,16.02,0,0,1,32.04,0Zm-17.95-13.9a2.015,2.015,0,0,0-.975,1.093,2.3,2.3,0,0,1-.374.681,3.092,3.092,0,0,1-1.23.759,3.1,3.1,0,0,1-1.408.308,2.385,2.385,0,0,1-.753-.236,2.036,2.036,0,0,0-1.458-.111,4.511,4.511,0,0,0-1.754,1.223,4.489,4.489,0,0,0-1.257,1.728,2.081,2.081,0,0,0,.085,1.467,2.305,2.305,0,0,1,.224.739,3.009,3.009,0,0,1-.327,1.4,3.065,3.065,0,0,1-.786,1.21,2.764,2.764,0,0,1-.72.386,2.1,2.1,0,0,0-1.1,1.02,5.058,5.058,0,0,0-.36,2.18,5.059,5.059,0,0,0,.36,2.18,2.058,2.058,0,0,0,1.1,1.02,2.767,2.767,0,0,1,.72.386,3.065,3.065,0,0,1,.786,1.21,3.053,3.053,0,0,1,.327,1.4,2.363,2.363,0,0,1-.224.746A1.988,1.988,0,0,0,10.968,35a4.551,4.551,0,0,0,1.257,1.728A4.718,4.718,0,0,0,13.98,37.95a2.023,2.023,0,0,0,1.458-.111,2.387,2.387,0,0,1,.753-.236,3.108,3.108,0,0,1,1.408.308,3.094,3.094,0,0,1,1.23.758,2.3,2.3,0,0,1,.374.681,2.026,2.026,0,0,0,.975,1.093,4.346,4.346,0,0,0,1.992.343,4.345,4.345,0,0,0,1.992-.343,2.027,2.027,0,0,0,.975-1.093,2.3,2.3,0,0,1,.374-.681,3.092,3.092,0,0,1,1.23-.758,3.1,3.1,0,0,1,1.408-.308,2.386,2.386,0,0,1,.753.236,2.023,2.023,0,0,0,1.458.111,4.717,4.717,0,0,0,1.754-1.223A4.55,4.55,0,0,0,33.371,35a1.988,1.988,0,0,0-.085-1.46,2.339,2.339,0,0,1-.224-.746,3.009,3.009,0,0,1,.327-1.4,3.065,3.065,0,0,1,.786-1.21,2.775,2.775,0,0,1,.72-.386,2.059,2.059,0,0,0,1.1-1.02,5.058,5.058,0,0,0,.36-2.18,5.058,5.058,0,0,0-.36-2.18,2.1,2.1,0,0,0-1.1-1.02,2.768,2.768,0,0,1-.72-.386,3.065,3.065,0,0,1-.786-1.21,3.053,3.053,0,0,1-.327-1.4,2.328,2.328,0,0,1,.224-.739,2.081,2.081,0,0,0,.085-1.467,4.49,4.49,0,0,0-1.257-1.728,4.512,4.512,0,0,0-1.754-1.223,2.036,2.036,0,0,0-1.458.111,2.387,2.387,0,0,1-.753.236,3.108,3.108,0,0,1-1.408-.308,3.093,3.093,0,0,1-1.23-.759,2.3,2.3,0,0,1-.374-.681,2.015,2.015,0,0,0-.975-1.093,4.355,4.355,0,0,0-1.992-.332,4.359,4.359,0,0,0-1.992.332Zm3.185,1.583c.07.02.1.105.151.224a3.947,3.947,0,0,0,.662,1.138,4.843,4.843,0,0,0,1.9,1.238,4.879,4.879,0,0,0,2.232.424,3.931,3.931,0,0,0,1.263-.36c.134-.055.174-.084.268-.059a3.519,3.519,0,0,1,1.034.793,3.363,3.363,0,0,1,.819,1.02c.03.093-.034.19-.054.263a3.928,3.928,0,0,0-.339,1.269,4.8,4.8,0,0,0,.464,2.211,4.877,4.877,0,0,0,1.271,1.872,4.2,4.2,0,0,0,1.131.648c.171.078.207.1.246.2a3.658,3.658,0,0,1,.173,1.384A3.61,3.61,0,0,1,34.4,28c-.02.077-.109.126-.236.184a4.209,4.209,0,0,0-1.131.648A4.877,4.877,0,0,0,31.761,30.7a4.8,4.8,0,0,0-.464,2.211,3.932,3.932,0,0,0,.339,1.269c.017.067.086.165.054.263a3.252,3.252,0,0,1-.819,1.02,3.3,3.3,0,0,1-1.034.793c-.089.027-.152-.013-.268-.059a3.938,3.938,0,0,0-1.263-.36,4.882,4.882,0,0,0-2.232.424,4.844,4.844,0,0,0-1.9,1.238,3.954,3.954,0,0,0-.662,1.138c-.053.12-.075.18-.151.224a3.145,3.145,0,0,1-1.193.149,3.145,3.145,0,0,1-1.193-.149c-.076-.044-.1-.1-.151-.224a3.946,3.946,0,0,0-.662-1.138,4.843,4.843,0,0,0-1.9-1.238,4.88,4.88,0,0,0-2.232-.424,3.931,3.931,0,0,0-1.262.36c-.116.047-.18.086-.268.059a3.317,3.317,0,0,1-1.034-.793,3.255,3.255,0,0,1-.819-1.02c-.034-.1.037-.2.054-.263a3.929,3.929,0,0,0,.339-1.269,4.8,4.8,0,0,0-.464-2.211,4.877,4.877,0,0,0-1.271-1.872,4.2,4.2,0,0,0-1.131-.648c-.127-.058-.215-.107-.236-.184a3.581,3.581,0,0,1-.184-1.4,3.62,3.62,0,0,1,.173-1.384c.039-.1.075-.123.246-.2a4.2,4.2,0,0,0,1.131-.648,4.877,4.877,0,0,0,1.271-1.872,4.8,4.8,0,0,0,.464-2.211A3.933,3.933,0,0,0,12.7,19.01c-.02-.073-.084-.17-.054-.263a3.362,3.362,0,0,1,.819-1.02,3.5,3.5,0,0,1,1.034-.793c.095-.027.134,0,.268.059a3.937,3.937,0,0,0,1.263.36,4.878,4.878,0,0,0,2.232-.424,4.843,4.843,0,0,0,1.9-1.238,3.954,3.954,0,0,0,.662-1.138c.052-.118.081-.2.151-.224a3.312,3.312,0,0,1,1.193-.138,3.313,3.313,0,0,1,1.193.138Zm-1.195,3.4a6.209,6.209,0,0,0-5.209,2.831,7.975,7.975,0,0,0,1.87,13.276,2.665,2.665,0,0,0,2.454,1.628h1.77A2.629,2.629,0,0,0,25.5,33.856a7.981,7.981,0,0,0,1.846-13.334,6.16,6.16,0,0,0-5.179-2.788Zm4.433,6.21a4.509,4.509,0,0,1-1.126,3.108c-.3.355-.613.659-.9.994-.082.1-.177.214-.256.327H23.053V26.982l.634-.63A.889.889,0,0,0,22.429,25.1l-.261.261-.255-.261a.888.888,0,1,0-1.257,1.256l.623.62v1.4H20.02c-.079-.113-.174-.232-.256-.327-.291-.335-.608-.639-.9-.994a4.509,4.509,0,0,1-1.126-3.108,4.434,4.434,0,1,1,8.867,0Zm-.88,7.753,0-2.217s-.013-.036.2-.275.554-.578.923-1.02a6.211,6.211,0,0,0,1.409-2.876,6.276,6.276,0,0,1,.07,2.207A6.212,6.212,0,0,1,25.722,31.7Zm-7.3-2.492c.208.24.2.268.2.268v2.213A6.2,6.2,0,0,1,16.1,25.352a6.292,6.292,0,0,0,1.4,2.833c.369.442.715.781.923,1.02Zm31.592-1.721a.887.887,0,1,0,.216-1.759L48.469,25.5c-.03,0-.059-.007-.132-.009a.887.887,0,0,0-.082,1.769Zm-3.893.878a.887.887,0,0,0-.713,1.446L46.5,31.2a.887.887,0,1,0,1.4-1.086l-1.095-1.4a.887.887,0,0,0-.686-.353Zm-4.236,2.27-.216,1.754a.884.884,0,1,0,1.754.224l.224-1.761a.887.887,0,0,0-1.761-.217Zm-21.493-.483h3.554v2.657a.891.891,0,0,1-.892.89h-1.77a.891.891,0,0,1-.892-.89Zm28.377,7.086a6.207,6.207,0,1,0,6.205,6.21,6.217,6.217,0,0,0-6.205-6.21Zm0,1.778a4.431,4.431,0,1,1-4.432,4.432A4.431,4.431,0,0,1,48.768,39.014ZM47,42.56a.887.887,0,1,0,0,1.773h3.547a.887.887,0,1,0,0-1.773Z" transform="translate(0 0)" fill="#333"/>
    </g>
  </g>
</svg>
