<svg id="Grupo_1146626" data-name="Grupo 1146626" xmlns="http://www.w3.org/2000/svg" xmlns:xlink="http://www.w3.org/1999/xlink" width="459.062" height="422.122" viewBox="0 0 459.062 422.122">
  <defs>
    <clipPath id="clip-path">
      <rect id="Rectángulo_406181" data-name="Rectángulo 406181" width="459.062" height="422.122" fill="none"/>
    </clipPath>
    <clipPath id="clip-path-3">
      <rect id="Rectángulo_406161" data-name="Rectángulo 406161" width="440.073" height="422.122" fill="none"/>
    </clipPath>
  </defs>
  <g id="Grupo_1146625" data-name="Grupo 1146625" clip-path="url(#clip-path)">
    <g id="Grupo_1146624" data-name="Grupo 1146624">
      <g id="Grupo_1146623" data-name="Grupo 1146623" clip-path="url(#clip-path)">
        <path id="Trazado_980398" data-name="Trazado 980398" d="M41.079,164.783S-.126,226.929,29.172,320.666s114.464,117.652,165,91.59,57.908-59.9,98.712-84.493,125.056-23.716,157.49-91.351S415.55,73.97,339.364,19.379s-241.564,10-298.285,145.4" transform="translate(0.336 0)" fill="#e3b34d"/>
        <g id="Grupo_1146622" data-name="Grupo 1146622" transform="translate(18.989)" opacity="0.7">
          <g id="Grupo_1146621" data-name="Grupo 1146621">
            <g id="Grupo_1146620" data-name="Grupo 1146620" clip-path="url(#clip-path-3)">
              <path id="Trazado_980399" data-name="Trazado 980399" d="M41.079,164.783S-.126,226.929,29.172,320.666s114.464,117.652,165,91.59,57.908-59.9,98.712-84.493,125.056-23.716,157.49-91.351S415.55,73.97,339.364,19.379s-241.564,10-298.285,145.4" transform="translate(-18.653 0)" fill="#fff"/>
            </g>
          </g>
        </g>
        <path id="Trazado_980400" data-name="Trazado 980400" d="M336.8,315.093c3.013,1.316,10.383,1.15,10.389,1.15.076,0-1.584-4.824-1.725-5.118-1.617-3.383-6.73-8.968-10.892-8.406a4.97,4.97,0,0,0-3.988,6.227c.691,2.883,3.649,5.024,6.215,6.146" transform="translate(5.952 5.452)" fill="#383715"/>
        <path id="Trazado_980401" data-name="Trazado 980401" d="M339.336,336.819c3.125.455,9.7-1.452,10.226-1.605a87.937,87.937,0,0,0,3.99,11.037c.9,2.1,1.88,4.176,2.886,6.252-.6-.879-1.143-1.66-1.231-1.762-2.453-2.836-8.861-6.872-12.724-5.231a4.969,4.969,0,0,0-2.2,7.06c1.426,2.6,4.846,3.882,7.616,4.285,2.812.411,8.453-1.1,9.94-1.524.394.792.778,1.587,1.176,2.377,1.9,3.793,3.822,7.569,5.588,11.33.624,1.325,1.189,2.653,1.759,3.98-.533-.781-.99-1.433-1.069-1.526-2.453-2.835-8.861-6.872-12.725-5.23a4.967,4.967,0,0,0-2.2,7.058c1.428,2.6,4.846,3.883,7.617,4.287,2.684.391,7.9-.96,9.671-1.451.544,1.376,1.09,2.754,1.555,4.112.3.935.646,1.813.89,2.769q.4,1.411.78,2.793c.431,1.794.886,3.642,1.261,5.4.271,1.223.506,2.393.747,3.571-.6-1.327-1.845-3.9-1.973-4.1-1.994-3.174-7.717-8.134-11.786-7.1a4.968,4.968,0,0,0-3.244,6.644c1.017,2.783,4.2,4.572,6.879,5.39,2.949.9,9.477.078,10.291-.031.392,1.951.753,3.851,1.067,5.651.168.952.314,1.847.461,2.747h2.6c-.191-1.036-.392-2.1-.612-3.2-.389-1.982-.845-4.092-1.334-6.256a53.934,53.934,0,0,0,5.743-2.7c2.149,2.327,7.655,5.051,8.368,5.4-.749,1.843-1.5,3.628-2.228,5.3-.22.507-.432.978-.646,1.461H389.2c.068-.165.135-.323.2-.493.77-1.868,1.553-3.88,2.339-5.952.79.165,7.252,1.477,10.264.8,2.731-.618,6.04-2.163,7.263-4.864a4.968,4.968,0,0,0-2.743-6.866c-3.979-1.338-10.056,3.182-12.281,6.2-.132.178-1.341,2.268-2.082,3.6.317-.849.633-1.67.949-2.547.636-1.732,1.219-3.479,1.852-5.355q.411-1.376.832-2.779c.3-.921.494-1.933.748-2.908.542-2.273.978-4.6,1.368-6.958,1.517.552,6.934,2.437,9.74,2.239s6.3-1.222,7.915-3.706a4.97,4.97,0,0,0-1.67-7.2c-3.732-1.924-10.422,1.624-13.079,4.269-.166.164-1.86,2.277-2.767,3.455.223-1.418.452-2.832.63-4.275.517-4.164.91-8.394,1.321-12.611.126-1.293.267-2.579.4-3.866.538.2,6.928,2.582,10.071,2.361,2.793-.2,6.3-1.223,7.915-3.707a4.969,4.969,0,0,0-1.67-7.2c-3.732-1.925-10.422,1.623-13.079,4.269-.2.2-2.633,3.241-3.213,4.046.3-2.836.624-5.66,1.058-8.431a87.613,87.613,0,0,1,2.42-11.088c.25.1,6.909,2.608,10.128,2.382,2.793-.2,6.3-1.223,7.915-3.707a4.968,4.968,0,0,0-1.67-7.2c-3.732-1.925-10.421,1.624-13.079,4.268-.208.209-2.823,3.483-3.256,4.111.062-.211.1-.436.168-.645a63.962,63.962,0,0,1,4.393-10.493c.955-1.868,1.972-3.6,3-5.264,1.192.6,6.67,3.256,9.59,3.372,2.8.112,6.394-.523,8.274-2.814a4.97,4.97,0,0,0-.868-7.344c-3.5-2.323-10.536.469-13.469,2.806-.159.127-1.636,1.6-2.7,2.686.475-.744.952-1.52,1.421-2.223,1.757-2.645,3.527-4.959,5.113-7,.911-1.15,1.757-2.173,2.559-3.122,1.474-.025,7.415-.206,10.013-1.425,2.534-1.191,5.433-3.411,6.046-6.311a4.968,4.968,0,0,0-4.155-6.117c-4.174-.451-9.136,5.27-10.661,8.7-.131.3-1.661,5.162-1.584,5.162h.09c-.792.9-1.628,1.867-2.521,2.947-1.633,2.007-3.459,4.288-5.28,6.9a88.286,88.286,0,0,0-5.475,8.722,64.765,64.765,0,0,0-4.677,10.529c-.015.043-.024.09-.039.133.022-1.231-.033-4.672-.066-4.934-.483-3.719-3.6-10.62-7.729-11.383a4.969,4.969,0,0,0-5.73,4.673c-.241,2.955,1.9,5.911,3.989,7.778,2.356,2.1,8.894,4.14,9.415,4.3a87.919,87.919,0,0,0-2.762,11.406c-.4,2.247-.735,4.521-1.04,6.806-.016-1.064-.038-2.016-.055-2.148-.483-3.719-3.6-10.619-7.728-11.382a4.968,4.968,0,0,0-5.73,4.673c-.242,2.954,1.9,5.911,3.988,7.777,2.12,1.892,7.658,3.742,9.131,4.213-.107.878-.225,1.753-.33,2.632-.5,4.214-.987,8.42-1.589,12.533-.211,1.449-.472,2.869-.729,4.289-.014-.945-.036-1.74-.051-1.861-.483-3.719-3.6-10.62-7.727-11.383a4.97,4.97,0,0,0-5.731,4.674c-.242,2.953,1.9,5.911,3.989,7.777,2.022,1.806,7.12,3.559,8.867,4.126-.306,1.448-.611,2.9-.973,4.286-.269.943-.461,1.869-.784,2.8q-.45,1.393-.891,2.76c-.631,1.734-1.272,3.526-1.929,5.2-.448,1.169-.9,2.275-1.347,3.39.227-1.44.613-4.27.618-4.509a19.3,19.3,0,0,0-2.588-9.386,5.842,5.842,0,0,0-.068-1.1,4.97,4.97,0,0,0-6.077-4.216c-4.057,1.08-6.63,8.2-6.822,11.946-.012.221.132,2.632.248,4.15-.2-.883-.392-1.742-.613-2.647-.426-1.795-.9-3.573-1.41-5.489l-.84-2.776c-.261-.932-.655-1.884-.98-2.838-.8-2.194-1.722-4.378-2.7-6.558,1.571-.377,7.128-1.794,9.36-3.506s4.578-4.495,4.558-7.457a4.97,4.97,0,0,0-5.367-5.089c-4.174.454-7.8,7.1-8.555,10.776-.046.229-.294,2.925-.4,4.409-.6-1.305-1.186-2.612-1.832-3.914-1.865-3.758-3.87-7.5-5.855-11.248-.609-1.146-1.2-2.3-1.8-3.445.561-.128,7.2-1.67,9.7-3.587,2.221-1.7,4.578-4.493,4.557-7.458a4.969,4.969,0,0,0-5.366-5.087c-4.175.453-7.8,7.1-8.555,10.775-.057.277-.407,4.157-.448,5.148-1.315-2.531-2.6-5.066-3.769-7.616a87.622,87.622,0,0,1-4.1-10.583c.262-.059,7.2-1.637,9.762-3.6,2.222-1.705,4.579-4.495,4.558-7.458a4.969,4.969,0,0,0-5.367-5.087c-4.174.453-7.8,7.1-8.554,10.775-.06.289-.434,4.463-.448,5.223-.065-.209-.155-.419-.217-.629a64.086,64.086,0,0,1-2.125-11.176c-.234-2.085-.341-4.091-.4-6.045,1.322-.162,7.359-.965,9.858-2.479,2.4-1.451,5.044-3.963,5.349-6.911a4.97,4.97,0,0,0-4.774-5.647c-4.2-.008-8.531,6.2-9.686,9.771-.063.194-.485,2.237-.77,3.728-.014-.882-.045-1.793-.041-2.638.006-3.175.206-6.083.405-8.656.124-1.463.267-2.782.412-4.016,1.215-.835,6.071-4.262,7.565-6.713,1.458-2.391,2.65-5.842,1.562-8.6a4.969,4.969,0,0,0-6.839-2.811c-3.731,1.928-4.712,9.437-4.1,13.135.054.319,1.463,5.221,1.527,5.18l.073-.051c-.165,1.184-.327,2.455-.475,3.849-.257,2.574-.521,5.484-.595,8.671a88.1,88.1,0,0,0,.244,10.3,64.73,64.73,0,0,0,1.908,11.361c.012.044.031.089.043.132-.661-1.038-2.605-3.879-2.779-4.079-2.453-2.836-8.86-6.872-12.725-5.232a4.97,4.97,0,0,0-2.2,7.06c1.429,2.6,4.847,3.882,7.617,4.286" transform="translate(5.963 5.074)" fill="#383715"/>
        <path id="Trazado_980402" data-name="Trazado 980402" d="M410.1,316.8c.065.041,1.34-4.9,1.386-5.219.516-3.713-.668-11.193-4.449-13.019a4.969,4.969,0,0,0-6.761,2.995c-1.014,2.784.272,6.2,1.794,8.553,1.787,2.76,8.025,6.687,8.03,6.69" transform="translate(7.204 5.37)" fill="#383715"/>
        <path id="Trazado_980403" data-name="Trazado 980403" d="M170.774,243.017s3.505-.637,5.416-2.708,3.346-6.691,4.938-5.417a7.67,7.67,0,0,1,2.23,8.125c-1.115,3.824-5.734,8.125-5.734,8.125l-11.789-6.85Z" transform="translate(2.987 4.227)" fill="none" stroke="#383715" stroke-miterlimit="10" stroke-width="1"/>
        <path id="Trazado_980404" data-name="Trazado 980404" d="M140.626,317.032l-7.947-.871L142.1,308.8Z" transform="translate(2.39 5.563)" fill="#fff"/>
        <path id="Trazado_980405" data-name="Trazado 980405" d="M140.626,317.032l-7.947-.871L142.1,308.8Z" transform="translate(2.39 5.563)" fill="none" stroke="#383715" stroke-miterlimit="10" stroke-width="1"/>
        <path id="Trazado_980406" data-name="Trazado 980406" d="M144.981,242.585l-.319,6.213s-6.372,25.966-6.053,26.922-.478,28.356.159,31.542,1.752,10.991,1.752,10.991,8.762-.319,12.745-2.389a60.375,60.375,0,0,0,9.239-6.691l-3.185-12.425a13.2,13.2,0,0,0,4.46-5.1,27.389,27.389,0,0,0,1.912-6.372l2.549-.8s3.345,1.753,4.938.16.319-3.824-.16-4.938-2.23-5.1-2.23-5.1,1.912,2.868,3.824,2.549,2.389-.159,2.549-1.433a20.664,20.664,0,0,0-.8-4.78s3.664,1.434,5.1,0a3.264,3.264,0,0,0,.8-3.5c-.159-.478-4.46-10.2-4.46-10.2s8.442,1.911,9.08,1.911a3.712,3.712,0,0,0,3.346-2.708c.637-2.23-6.373-4.938-12.267-9.24s-12.425-6.053-15.134-6.053-16.567-.956-17.842,1.433" transform="translate(2.495 4.341)" fill="#fff"/>
        <path id="Trazado_980407" data-name="Trazado 980407" d="M144.981,242.585l-.319,6.213s-6.372,25.966-6.053,26.922-.478,28.356.159,31.542,1.752,10.991,1.752,10.991,8.762-.319,12.745-2.389a60.375,60.375,0,0,0,9.239-6.691l-3.185-12.425a13.2,13.2,0,0,0,4.46-5.1,27.389,27.389,0,0,0,1.912-6.372l2.549-.8s3.345,1.753,4.938.16.319-3.824-.16-4.938-2.23-5.1-2.23-5.1,1.912,2.868,3.824,2.549,2.389-.159,2.549-1.433a20.664,20.664,0,0,0-.8-4.78s3.664,1.434,5.1,0a3.264,3.264,0,0,0,.8-3.5c-.159-.478-4.46-10.2-4.46-10.2s8.442,1.911,9.08,1.911a3.712,3.712,0,0,0,3.346-2.708c.637-2.23-6.373-4.938-12.267-9.24s-12.425-6.053-15.134-6.053S146.256,240.2,144.981,242.585Z" transform="translate(2.495 4.341)" fill="none" stroke="#383715" stroke-miterlimit="10" stroke-width="1"/>
        <path id="Trazado_980408" data-name="Trazado 980408" d="M148.623,248.5c-.637,0,18.8,2.071,20.391,2.549s7.487,5.1,7.487,5.1" transform="translate(2.677 4.476)" fill="none" stroke="#383715" stroke-miterlimit="10" stroke-width="1"/>
        <path id="Trazado_980409" data-name="Trazado 980409" d="M147.371,256.8s19.754,3.345,21.506,3.982,7.329,9.877,7.329,9.877" transform="translate(2.655 4.626)" fill="none" stroke="#383715" stroke-miterlimit="10" stroke-width="1"/>
        <path id="Trazado_980410" data-name="Trazado 980410" d="M145.337,265.246s18,4.142,19.754,4.938a25.313,25.313,0,0,1,4.461,3.186" transform="translate(2.618 4.778)" fill="none" stroke="#383715" stroke-miterlimit="10" stroke-width="1"/>
        <path id="Trazado_980411" data-name="Trazado 980411" d="M148.466,279.051l2.549-1.912,10.514.319,5.576,5.1" transform="translate(2.674 4.992)" fill="none" stroke="#383715" stroke-miterlimit="10" stroke-width="1"/>
        <path id="Trazado_980412" data-name="Trazado 980412" d="M132.68,316.209l1.839,7.586s4.368,1.149,13.1-2.3,17.47-9.885,17.47-9.885l-.689-5.518s-15.172,11.034-31.723,10.115" transform="translate(2.39 5.514)" fill="#fff"/>
        <path id="Trazado_980413" data-name="Trazado 980413" d="M132.68,316.209l1.839,7.586s4.368,1.149,13.1-2.3,17.47-9.885,17.47-9.885l-.689-5.518S149.231,317.128,132.68,316.209Z" transform="translate(2.39 5.514)" fill="none" stroke="#383715" stroke-miterlimit="10" stroke-width="1"/>
        <path id="Trazado_980414" data-name="Trazado 980414" d="M165.622,309.708s-11.494,7.356-19.77,9.885a73.038,73.038,0,0,1-17.011,2.759s10.115,46.436,13.333,53.562,8.409,27.588,8.409,27.588h58.027s-34.482-66.668-35.631-71.725-7.356-22.068-7.356-22.068" transform="translate(2.321 5.579)" fill="#383715"/>
        <path id="Trazado_980415" data-name="Trazado 980415" d="M165.622,309.708s-11.494,7.356-19.77,9.885a73.038,73.038,0,0,1-17.011,2.759s10.115,46.436,13.333,53.562,8.409,27.588,8.409,27.588h58.027s-34.482-66.668-35.631-71.725S165.622,309.708,165.622,309.708Z" transform="translate(2.321 5.579)" fill="none" stroke="#383715" stroke-miterlimit="10" stroke-width="1"/>
        <path id="Trazado_980416" data-name="Trazado 980416" d="M188.452,141.025s-10.871,25.276-9.512,28.538,6.794,8.426,4.348,11.959-16.579,15.22-13.861,21.2,9.785,6.251,9.785,6.251-1.359,7.882.544,9.785l1.9,1.9s0,4.076,1.359,5.979,4.893,3.534,4.893,3.534-6.794,10.057-5.436,13.318,16.851,8.426,23.375,10.057,18.21-.544,18.21-.544l3.261,16.308,61.7-36.149-9.512-24.19s16.308-14.676,17.123-36.691-5.98-42.671-18.21-50.01-28.81-5.979-28.81-5.979a22.684,22.684,0,0,0-24.189-5.436c-14.949,5.164-36.964,30.169-36.964,30.169" transform="translate(3.046 1.971)" fill="#fff"/>
        <path id="Trazado_980417" data-name="Trazado 980417" d="M188.452,141.025s-10.871,25.276-9.512,28.538,6.794,8.426,4.348,11.959-16.579,15.22-13.861,21.2,9.785,6.251,9.785,6.251-1.359,7.882.544,9.785l1.9,1.9s0,4.076,1.359,5.979,4.893,3.534,4.893,3.534-6.794,10.057-5.436,13.318,16.851,8.426,23.375,10.057,18.21-.544,18.21-.544l3.261,16.308,61.7-36.149-9.512-24.19s16.308-14.676,17.123-36.691-5.98-42.671-18.21-50.01-28.81-5.979-28.81-5.979a22.684,22.684,0,0,0-24.189-5.436C210.467,116.02,188.452,141.025,188.452,141.025Z" transform="translate(3.046 1.971)" fill="none" stroke="#383715" stroke-miterlimit="10" stroke-width="1"/>
        <path id="Trazado_980418" data-name="Trazado 980418" d="M183.3,168.336s0,2.99,3.534,1.631,5.435-3.805,8.153-3.262,6.252,1.9,4.077-1.9-7.339-2.174-10.328-.815a17.865,17.865,0,0,0-5.436,4.349" transform="translate(3.302 2.926)" fill="#383715"/>
        <path id="Trazado_980419" data-name="Trazado 980419" d="M183.3,168.336s0,2.99,3.534,1.631,5.435-3.805,8.153-3.262,6.252,1.9,4.077-1.9-7.339-2.174-10.328-.815A17.865,17.865,0,0,0,183.3,168.336Z" transform="translate(3.302 2.926)" fill="none" stroke="#383715" stroke-miterlimit="10" stroke-width="1"/>
        <path id="Trazado_980420" data-name="Trazado 980420" d="M190.347,178.82c1.113,5.748.881,10.626-.519,10.9s-3.438-4.169-4.551-9.915-.881-10.627.519-10.9S189.234,173.072,190.347,178.82Z" transform="translate(3.325 3.042)" fill="none" stroke="#383715" stroke-miterlimit="10" stroke-width="2"/>
        <line id="Línea_673" data-name="Línea 673" y1="3.534" x2="51.913" transform="translate(193.4 176.155)" fill="none" stroke="#383715" stroke-miterlimit="10" stroke-width="2"/>
        <path id="Trazado_980421" data-name="Trazado 980421" d="M182.615,212.187a5.194,5.194,0,0,0-6.252,4.349,6.256,6.256,0,0,0,5.164,7.61c1.359,0,3.805-1.631,8.153.272s8.154,4.349,8.154,8.97-1.631,7.881-5.164,7.61-5.979-6.794-7.881-5.98-6.8,8.426-3.534,13.59,25,14.949,32.071,14.677,33.431-23.1,36.964-31.528-1.087-11.96-1.9-14.4-8.97-23.1-8.97-29.082,3.805-19.569,11.415-20.113,12.231,15.764,9.785,21.743a20.927,20.927,0,0,1-6.252,8.7s-1.631,17.395,2.99,20.385,16.851,6.794,22.559,7.066,7.881,1.087,10.871-4.621-2.174-8.153-.544-11.415,14.949-19.3,16.308-36.419-2.99-30.984-10.329-41.857-23.1-20.927-28.266-21.743A71.523,71.523,0,0,1,256.814,107s5.708-2.446,1.359-6.252-13.046-5.707-27.179-1.087-19.569,10.057-19.569,10.057.815-7.339-7.338-4.077S181.8,123.583,183.7,133.1s6.251,9.242,12.23,7.339,15.22-5.98,19.3-5.436,6.794.815-.544,7.067-17.395,12.774-11.959,15.764,20.655,11.415,22.558,17.666-6.522,50.01-9.512,55.174-8.7,6.794-12.23,2.99-6.523-13.59-12.5-17.938-8.425-3.534-8.425-3.534" transform="translate(3.174 1.746)" fill="#383715"/>
        <path id="Trazado_980422" data-name="Trazado 980422" d="M182.615,212.187a5.194,5.194,0,0,0-6.252,4.349,6.256,6.256,0,0,0,5.164,7.61c1.359,0,3.805-1.631,8.153.272s8.154,4.349,8.154,8.97-1.631,7.881-5.164,7.61-5.979-6.794-7.881-5.98-6.8,8.426-3.534,13.59,25,14.949,32.071,14.677,33.431-23.1,36.964-31.528-1.087-11.96-1.9-14.4-8.97-23.1-8.97-29.082,3.805-19.569,11.415-20.113,12.231,15.764,9.785,21.743a20.927,20.927,0,0,1-6.252,8.7s-1.631,17.395,2.99,20.385,16.851,6.794,22.559,7.066,7.881,1.087,10.871-4.621-2.174-8.153-.544-11.415,14.949-19.3,16.308-36.419-2.99-30.984-10.329-41.857-23.1-20.927-28.266-21.743A71.523,71.523,0,0,1,256.814,107s5.708-2.446,1.359-6.252-13.046-5.707-27.179-1.087-19.569,10.057-19.569,10.057.815-7.339-7.338-4.077S181.8,123.583,183.7,133.1s6.251,9.242,12.23,7.339,15.22-5.98,19.3-5.436,6.794.815-.544,7.067-17.395,12.774-11.959,15.764,20.655,11.415,22.558,17.666-6.522,50.01-9.512,55.174-8.7,6.794-12.23,2.99-6.523-13.59-12.5-17.938S182.615,212.187,182.615,212.187Z" transform="translate(3.174 1.746)" fill="none" stroke="#383715" stroke-miterlimit="10" stroke-width="1"/>
        <path id="Trazado_980423" data-name="Trazado 980423" d="M253.115,196.8s-6.252,1.631-7.338,1.631" transform="translate(4.427 3.545)" fill="none" stroke="#383715" stroke-miterlimit="10" stroke-width="1"/>
        <path id="Trazado_980424" data-name="Trazado 980424" d="M218.466,274.756s-12.135,9.859-13.841,14.03-1.327,12.135-1.327,12.893-9.29,7.774-12.513,17.253-3.413,21.236-3.413,21.236l21.046-38.3L220.362,277.6Z" transform="translate(3.375 4.949)" fill="#e3b34d"/>
        <path id="Trazado_980425" data-name="Trazado 980425" d="M218.466,274.756s-12.135,9.859-13.841,14.03-1.327,12.135-1.327,12.893-9.29,7.774-12.513,17.253-3.413,21.236-3.413,21.236l21.046-38.3L220.362,277.6Z" transform="translate(3.375 4.949)" fill="none" stroke="#383715" stroke-miterlimit="10" stroke-width="1"/>
        <path id="Trazado_980426" data-name="Trazado 980426" d="M268.6,234.847s-53.271,29.625-52.456,33.431,3.805,14.949,3.805,14.949,41.856-33.159,49.466-37.236,23.645-10.056,23.645-10.056-2.989-7.882-3.8-8.7-14.677,5.163-20.656,7.61" transform="translate(3.893 4.092)" fill="#fff"/>
        <path id="Trazado_980427" data-name="Trazado 980427" d="M268.6,234.847s-53.271,29.625-52.456,33.431,3.805,14.949,3.805,14.949,41.856-33.159,49.466-37.236,23.645-10.056,23.645-10.056-2.989-7.882-3.8-8.7S274.577,232.4,268.6,234.847Z" transform="translate(3.893 4.092)" fill="none" stroke="#383715" stroke-miterlimit="10" stroke-width="1"/>
        <path id="Trazado_980428" data-name="Trazado 980428" d="M223.58,272.53,180.909,353.8l-30.712,51.1h184s-1.359-42.4-4.077-69.306-22.559-79.363-26.635-84.8-5.164-8.153-5.164-8.153-.815-8.7-3.805-10.056-32.614,8.7-70.937,39.953" transform="translate(2.706 4.187)" fill="#383715"/>
        <path id="Trazado_980429" data-name="Trazado 980429" d="M223.58,272.53,180.909,353.8l-30.712,51.1h184s-1.359-42.4-4.077-69.306-22.559-79.363-26.635-84.8-5.164-8.153-5.164-8.153-.815-8.7-3.805-10.056S261.9,241.274,223.58,272.53Z" transform="translate(2.706 4.187)" fill="none" stroke="#383715" stroke-miterlimit="10" stroke-width="1"/>
        <path id="Trazado_980430" data-name="Trazado 980430" d="M444.924,79.2A72.471,72.471,0,1,1,372.452,6.725,72.471,72.471,0,0,1,444.924,79.2" transform="translate(5.404 0.121)" fill="#383715"/>
        <circle id="Elipse_11569" data-name="Elipse 11569" cx="72.471" cy="72.471" r="72.471" transform="translate(305.385 6.846)" fill="none" stroke="#383715" stroke-miterlimit="10" stroke-width="1"/>
        <path id="Trazado_980431" data-name="Trazado 980431" d="M331.674,134.288a10.062,10.062,0,1,1-10.056-9.709,9.887,9.887,0,0,1,10.056,9.709" transform="translate(5.612 2.244)" fill="#383715"/>
        <ellipse id="Elipse_11570" data-name="Elipse 11570" cx="10.056" cy="9.709" rx="10.056" ry="9.709" transform="translate(317.174 126.823)" fill="none" stroke="#383715" stroke-miterlimit="10" stroke-width="1"/>
        <path id="Trazado_980432" data-name="Trazado 980432" d="M314.143,146.437a7.256,7.256,0,1,1-7.251-7,7.129,7.129,0,0,1,7.251,7" transform="translate(5.398 2.512)" fill="#383715"/>
        <ellipse id="Elipse_11571" data-name="Elipse 11571" cx="7.251" cy="7.001" rx="7.251" ry="7.001" transform="translate(305.037 141.948)" fill="none" stroke="#383715" stroke-miterlimit="10" stroke-width="1"/>
        <path id="Trazado_980433" data-name="Trazado 980433" d="M442.2,74.427A72.471,72.471,0,1,1,369.727,1.956,72.471,72.471,0,0,1,442.2,74.427" transform="translate(5.355 0.035)" fill="#fff"/>
        <circle id="Elipse_11572" data-name="Elipse 11572" cx="72.471" cy="72.471" r="72.471" transform="translate(302.611 1.991)" fill="none" stroke="#383715" stroke-linecap="round" stroke-linejoin="round" stroke-width="1"/>
        <path id="Trazado_980434" data-name="Trazado 980434" d="M328.949,129.519a10.062,10.062,0,1,1-10.056-9.709,9.887,9.887,0,0,1,10.056,9.709" transform="translate(5.563 2.158)" fill="#fff"/>
        <ellipse id="Elipse_11573" data-name="Elipse 11573" cx="10.056" cy="9.709" rx="10.056" ry="9.709" transform="translate(314.4 121.968)" fill="none" stroke="#383715" stroke-linecap="round" stroke-linejoin="round" stroke-width="1"/>
        <path id="Trazado_980435" data-name="Trazado 980435" d="M311.418,141.668a7.256,7.256,0,1,1-7.251-7,7.129,7.129,0,0,1,7.251,7" transform="translate(5.348 2.426)" fill="#fff"/>
        <ellipse id="Elipse_11574" data-name="Elipse 11574" cx="7.251" cy="7.001" rx="7.251" ry="7.001" transform="translate(302.263 137.093)" fill="none" stroke="#383715" stroke-linecap="round" stroke-linejoin="round" stroke-width="1"/>
        <path id="Trazado_980436" data-name="Trazado 980436" d="M399.9,63.755a30.613,30.613,0,1,0-54.132,19.584,30.067,30.067,0,0,1,6.973,19.262v4.194h33.094v-4.2A30.008,30.008,0,0,1,392.8,83.355a30.464,30.464,0,0,0,7.106-19.6" transform="translate(6.101 0.597)" fill="#e3b34d"/>
        <path id="Trazado_980437" data-name="Trazado 980437" d="M399.9,63.755a30.613,30.613,0,1,0-54.132,19.584,30.067,30.067,0,0,1,6.973,19.262v4.194h33.094v-4.2A30.008,30.008,0,0,1,392.8,83.355,30.464,30.464,0,0,0,399.9,63.755Z" transform="translate(6.101 0.597)" fill="none" stroke="#383715" stroke-linecap="round" stroke-linejoin="round" stroke-width="1"/>
        <rect id="Rectángulo_406162" data-name="Rectángulo 406162" width="33.094" height="8.186" transform="translate(358.846 107.4)" fill="#fff"/>
        <rect id="Rectángulo_406163" data-name="Rectángulo 406163" width="33.094" height="8.186" transform="translate(358.846 107.4)" fill="none" stroke="#383715" stroke-linecap="round" stroke-linejoin="round" stroke-width="1"/>
        <path id="Trazado_980438" data-name="Trazado 980438" d="M380.779,121.747H357.306a4.81,4.81,0,0,1-4.81-4.81v-3.376H385.59v3.376a4.81,4.81,0,0,1-4.81,4.81" transform="translate(6.35 2.046)" fill="#fff"/>
        <path id="Trazado_980439" data-name="Trazado 980439" d="M380.779,121.747H357.306a4.81,4.81,0,0,1-4.81-4.81v-3.376H385.59v3.376A4.81,4.81,0,0,1,380.779,121.747Z" transform="translate(6.35 2.046)" fill="none" stroke="#383715" stroke-linecap="round" stroke-linejoin="round" stroke-width="1"/>
        <path id="Trazado_980440" data-name="Trazado 980440" d="M374.814,129.778H363.123a6.526,6.526,0,0,1-6.525-6.525v-1.66H381.34v1.66a6.526,6.526,0,0,1-6.525,6.525" transform="translate(6.424 2.19)" fill="#383715"/>
        <path id="Trazado_980441" data-name="Trazado 980441" d="M374.814,129.778H363.123a6.526,6.526,0,0,1-6.525-6.525v-1.66H381.34v1.66A6.526,6.526,0,0,1,374.814,129.778Z" transform="translate(6.424 2.19)" fill="none" stroke="#383715" stroke-miterlimit="10" stroke-width="1"/>
        <line id="Línea_674" data-name="Línea 674" x2="14.022" transform="translate(410.349 64.513)" fill="none" stroke="#383715" stroke-linecap="round" stroke-linejoin="round" stroke-width="1"/>
        <line id="Línea_675" data-name="Línea 675" x2="14.203" transform="translate(325.099 64.513)" fill="none" stroke="#383715" stroke-linecap="round" stroke-linejoin="round" stroke-width="1"/>
        <line id="Línea_676" data-name="Línea 676" y1="14.062" transform="translate(374.735 14.876)" fill="none" stroke="#383715" stroke-linecap="round" stroke-linejoin="round" stroke-width="1"/>
        <line id="Línea_677" data-name="Línea 677" y1="9.68" x2="9.68" transform="translate(400.154 29.414)" fill="none" stroke="#383715" stroke-linecap="round" stroke-linejoin="round" stroke-width="1"/>
        <line id="Línea_678" data-name="Línea 678" y1="9.821" x2="9.821" transform="translate(339.637 89.79)" fill="none" stroke="#383715" stroke-linecap="round" stroke-linejoin="round" stroke-width="1"/>
        <line id="Línea_679" data-name="Línea 679" x1="9.4" y1="9.4" transform="translate(339.637 29.414)" fill="none" stroke="#383715" stroke-linecap="round" stroke-linejoin="round" stroke-width="1"/>
        <line id="Línea_680" data-name="Línea 680" x1="9.361" y1="9.361" transform="translate(400.473 90.25)" fill="none" stroke="#383715" stroke-linecap="round" stroke-linejoin="round" stroke-width="1"/>
        <path id="Trazado_980442" data-name="Trazado 980442" d="M128.841,321.41l7.586-2.989.459,3.679Z" transform="translate(2.321 5.736)" fill="#fff"/>
        <path id="Trazado_980443" data-name="Trazado 980443" d="M128.841,321.41l7.586-2.989.459,3.679Z" transform="translate(2.321 5.736)" fill="none" stroke="#383715" stroke-miterlimit="10" stroke-width="1"/>
        <path id="Trazado_980444" data-name="Trazado 980444" d="M262.863,133.116v-3.173h-3.64a16.1,16.1,0,0,0-1.379-5.116L261,123l-1.587-2.749-3.163,1.826a16.294,16.294,0,0,0-3.744-3.743l1.826-3.163-2.748-1.587-1.825,3.16a16.127,16.127,0,0,0-5.115-1.379v-3.64h-3.174v3.64a16.127,16.127,0,0,0-5.114,1.379l-1.825-3.16-2.748,1.587,1.825,3.163a16.309,16.309,0,0,0-3.743,3.743l-3.163-1.826L225.119,123l3.161,1.824a16.1,16.1,0,0,0-1.379,5.116h-3.64v3.173h3.64a16.1,16.1,0,0,0,1.379,5.116l-3.161,1.824,1.587,2.749,3.163-1.826a16.309,16.309,0,0,0,3.743,3.743l-1.825,3.163,2.748,1.587,1.824-3.16a16.14,16.14,0,0,0,5.116,1.379v3.64h3.174v-3.64a16.126,16.126,0,0,0,5.115-1.379l1.825,3.16,2.748-1.587-1.826-3.163a16.294,16.294,0,0,0,3.744-3.743l3.163,1.826L261,140.056l-3.161-1.824a16.1,16.1,0,0,0,1.379-5.116Zm-19.8-14.01a12.419,12.419,0,0,1,12.368,11.329H245.408a2.591,2.591,0,0,0-2.347-1.5,2.539,2.539,0,0,0-.376.039l-5.214-8.526a12.35,12.35,0,0,1,5.59-1.34M230.638,131.53a12.4,12.4,0,0,1,5.291-10.162l5.18,8.469a2.55,2.55,0,0,0-.111,3.251l-5.081,8.594a12.4,12.4,0,0,1-5.278-10.152m12.424,12.423a12.343,12.343,0,0,1-5.6-1.347l5.05-8.542a2.615,2.615,0,0,0,.554.062,2.588,2.588,0,0,0,2.487-1.892h9.9a12.414,12.414,0,0,1-12.388,11.719" transform="translate(4.022 2.013)" fill="#9196d1"/>
        <path id="Trazado_980445" data-name="Trazado 980445" d="M270.75,174.255l3.173,0,0-3.64a16.106,16.106,0,0,0,5.115-1.383l1.826,3.159,2.748-1.588-1.828-3.162a16.313,16.313,0,0,0,3.741-3.746l3.164,1.824,1.585-2.75-3.162-1.822a16.134,16.134,0,0,0,1.376-5.117l3.64,0,0-3.173-3.64,0a16.1,16.1,0,0,0-1.382-5.115l3.159-1.826-1.588-2.748-3.162,1.828a16.332,16.332,0,0,0-3.746-3.741l1.824-3.164-2.75-1.585-1.822,3.162a16.135,16.135,0,0,0-5.117-1.376l0-3.64-3.174,0,0,3.64a16.1,16.1,0,0,0-5.115,1.382l-1.826-3.159-2.748,1.588,1.828,3.162a16.334,16.334,0,0,0-3.741,3.746l-3.164-1.824-1.585,2.75,3.162,1.822a16.134,16.134,0,0,0-1.376,5.117l-3.64,0,0,3.174,3.64,0a16.1,16.1,0,0,0,1.383,5.115l-3.159,1.826,1.588,2.748,3.162-1.828a16.3,16.3,0,0,0,3.747,3.741l-1.825,3.164,2.75,1.585,1.822-3.162a16.128,16.128,0,0,0,5.117,1.376Zm14-19.812a12.42,12.42,0,0,1-11.321,12.376l-.007-10.021a2.59,2.59,0,0,0,1.5-2.348,2.523,2.523,0,0,0-.039-.376l8.522-5.22a12.362,12.362,0,0,1,1.344,5.589m-12.432-12.415a12.4,12.4,0,0,1,10.165,5.283l-8.465,5.186a2.548,2.548,0,0,0-3.252-.109l-8.6-5.076a12.4,12.4,0,0,1,10.149-5.285M259.9,154.461a12.347,12.347,0,0,1,1.342-5.605l8.546,5.045a2.567,2.567,0,0,0,1.832,3.039l.006,9.9a12.412,12.412,0,0,1-11.727-12.38" transform="translate(4.549 2.425)" fill="#9196d1"/>
        <path id="Trazado_980446" data-name="Trazado 980446" d="M1.6,143.653s.881,0,2.536.16" transform="translate(0.029 2.588)" fill="none" stroke="#383715" stroke-miterlimit="10" stroke-width="1"/>
        <path id="Trazado_980447" data-name="Trazado 980447" d="M9.064,144.509c9.47,1.692,27.058,6.671,48.575,21.321,26.275,17.889,71.476,18.2,94.556,15.836" transform="translate(0.163 2.603)" fill="none" stroke="#383715" stroke-miterlimit="10" stroke-width="1" stroke-dasharray="5.026 5.026"/>
        <path id="Trazado_980448" data-name="Trazado 980448" d="M152.165,180.737q1.322-.159,2.521-.326" transform="translate(2.741 3.25)" fill="none" stroke="#383715" stroke-miterlimit="10" stroke-width="1"/>
        <path id="Trazado_980449" data-name="Trazado 980449" d="M154.084,185.666l7.775-6.526-9.54-3.471Z" transform="translate(2.744 3.164)" fill="#383715"/>
        <path id="Trazado_980450" data-name="Trazado 980450" d="M.918,31.249s.672.583,1.923,1.66" transform="translate(0.017 0.563)" fill="none" stroke="#383715" stroke-miterlimit="10" stroke-width="1"/>
        <path id="Trazado_980451" data-name="Trazado 980451" d="M6.68,36.2c19.812,16.908,84.794,71.444,116.885,87.2,16.8,8.247,27.949,12.862,35.165,15.443" transform="translate(0.12 0.652)" fill="none" stroke="#383715" stroke-miterlimit="10" stroke-width="1" stroke-dasharray="5.105 5.105"/>
        <path id="Trazado_980452" data-name="Trazado 980452" d="M158.454,137.862q1.316.443,2.42.781" transform="translate(2.854 2.483)" fill="none" stroke="#383715" stroke-miterlimit="10" stroke-width="1"/>
        <path id="Trazado_980453" data-name="Trazado 980453" d="M158.247,143.21l9.746-2.839-7.331-7.021Z" transform="translate(2.851 2.402)" fill="#383715"/>
        <path id="Trazado_980454" data-name="Trazado 980454" d="M.046,315.949s.889.082,2.536.161" transform="translate(0.001 5.691)" fill="none" stroke="#383715" stroke-miterlimit="10" stroke-width="1"/>
        <path id="Trazado_980455" data-name="Trazado 980455" d="M7.58,317.933c16.318.125,55.915-2.242,91.7-25.2,22.281-14.3,35.875-51.788,48.023-70.441" transform="translate(0.137 4.004)" fill="none" stroke="#383715" stroke-miterlimit="10" stroke-width="1" stroke-dasharray="5.047 5.047"/>
        <path id="Trazado_980456" data-name="Trazado 980456" d="M146.245,220.226q.759-1.077,1.512-2.042" transform="translate(2.634 3.93)" fill="none" stroke="#383715" stroke-miterlimit="10" stroke-width="1"/>
        <path id="Trazado_980457" data-name="Trazado 980457" d="M150.532,222.984l2.475-9.845-9.764,2.778Z" transform="translate(2.58 3.839)" fill="#383715"/>
        <path id="Trazado_980458" data-name="Trazado 980458" d="M3.643,240.389s.879.129,2.525.285" transform="translate(0.066 4.33)" fill="none" stroke="#383715" stroke-miterlimit="10" stroke-width="1"/>
        <path id="Trazado_980459" data-name="Trazado 980459" d="M11.012,241.65a180.634,180.634,0,0,0,90.283-20.058q19.776-10.3,30.007-15.715" transform="translate(0.198 3.709)" fill="none" stroke="#383715" stroke-miterlimit="10" stroke-width="1" stroke-dasharray="4.907 4.907"/>
        <path id="Trazado_980460" data-name="Trazado 980460" d="M131.348,204.75l2.248-1.189" transform="translate(2.366 3.667)" fill="none" stroke="#383715" stroke-miterlimit="10" stroke-width="1"/>
        <path id="Trazado_980461" data-name="Trazado 980461" d="M134.649,208.785l5.421-8.583-10.143-.4Z" transform="translate(2.34 3.599)" fill="#383715"/>
        <rect id="Rectángulo_406164" data-name="Rectángulo 406164" width="6.732" height="23.563" transform="translate(50.883 267.45)" fill="#383715"/>
        <rect id="Rectángulo_406165" data-name="Rectángulo 406165" width="6.732" height="23.563" transform="translate(50.883 267.45)" fill="none" stroke="#383715" stroke-miterlimit="10" stroke-width="1"/>
        <rect id="Rectángulo_406166" data-name="Rectángulo 406166" width="6.732" height="36.265" transform="translate(62.665 254.749)" fill="#e3b34d"/>
        <rect id="Rectángulo_406167" data-name="Rectángulo 406167" width="6.732" height="36.265" transform="translate(62.665 254.749)" fill="none" stroke="#383715" stroke-linecap="round" stroke-linejoin="round" stroke-width="1"/>
        <rect id="Rectángulo_406168" data-name="Rectángulo 406168" width="6.732" height="16.473" transform="translate(74.446 274.54)" fill="#383715"/>
        <rect id="Rectángulo_406169" data-name="Rectángulo 406169" width="6.732" height="16.473" transform="translate(74.446 274.54)" fill="none" stroke="#383715" stroke-miterlimit="10" stroke-width="1"/>
        <rect id="Rectángulo_406170" data-name="Rectángulo 406170" width="6.732" height="34.492" transform="translate(86.228 256.521)" fill="#e3b34d"/>
        <rect id="Rectángulo_406171" data-name="Rectángulo 406171" width="6.732" height="34.492" transform="translate(86.228 256.521)" fill="none" stroke="#383715" stroke-linecap="round" stroke-linejoin="round" stroke-width="1"/>
        <line id="Línea_681" data-name="Línea 681" x2="4.727" transform="translate(42.997 253.794)" fill="#fff"/>
        <line id="Línea_682" data-name="Línea 682" x2="4.727" transform="translate(42.997 253.794)" fill="none" stroke="#383715" stroke-miterlimit="10" stroke-width="1"/>
        <line id="Línea_683" data-name="Línea 683" x2="4.727" transform="translate(42.997 259.111)" fill="#fff"/>
        <line id="Línea_684" data-name="Línea 684" x2="4.727" transform="translate(42.997 259.111)" fill="none" stroke="#383715" stroke-miterlimit="10" stroke-width="1"/>
        <line id="Línea_685" data-name="Línea 685" x2="4.727" transform="translate(42.997 264.428)" fill="#fff"/>
        <line id="Línea_686" data-name="Línea 686" x2="4.727" transform="translate(42.997 264.428)" fill="none" stroke="#383715" stroke-miterlimit="10" stroke-width="1"/>
        <line id="Línea_687" data-name="Línea 687" x2="4.727" transform="translate(42.997 269.745)" fill="#fff"/>
        <line id="Línea_688" data-name="Línea 688" x2="4.727" transform="translate(42.997 269.745)" fill="none" stroke="#383715" stroke-miterlimit="10" stroke-width="1"/>
        <line id="Línea_689" data-name="Línea 689" x2="4.727" transform="translate(42.997 275.062)" fill="#fff"/>
        <line id="Línea_690" data-name="Línea 690" x2="4.727" transform="translate(42.997 275.062)" fill="none" stroke="#383715" stroke-miterlimit="10" stroke-width="1"/>
        <line id="Línea_691" data-name="Línea 691" x2="4.727" transform="translate(42.997 280.379)" fill="#fff"/>
        <line id="Línea_692" data-name="Línea 692" x2="4.727" transform="translate(42.997 280.379)" fill="none" stroke="#383715" stroke-miterlimit="10" stroke-width="1"/>
        <line id="Línea_693" data-name="Línea 693" x2="4.727" transform="translate(42.997 285.696)" fill="#fff"/>
        <line id="Línea_694" data-name="Línea 694" x2="4.727" transform="translate(42.997 285.696)" fill="none" stroke="#383715" stroke-miterlimit="10" stroke-width="1"/>
        <line id="Línea_695" data-name="Línea 695" x2="4.727" transform="translate(42.997 291.013)" fill="#fff"/>
        <line id="Línea_696" data-name="Línea 696" x2="4.727" transform="translate(42.997 291.013)" fill="none" stroke="#383715" stroke-miterlimit="10" stroke-width="1"/>
        <path id="Trazado_980462" data-name="Trazado 980462" d="M51.522,257.124l14.769-15.656,10.634,15.066,10.909-12.762" transform="translate(0.928 4.35)" fill="none" stroke="#383715" stroke-miterlimit="10" stroke-width="1"/>
        <path id="Trazado_980463" data-name="Trazado 980463" d="M90.171,248.257l1.854-9.981-9.57,3.384Z" transform="translate(1.485 4.292)" fill="#383715"/>
        <rect id="Rectángulo_406172" data-name="Rectángulo 406172" width="41.885" height="52.932" transform="translate(1.569 183.084)" fill="#383715"/>
        <rect id="Rectángulo_406173" data-name="Rectángulo 406173" width="41.885" height="52.932" transform="translate(1.569 183.084)" fill="none" stroke="#383715" stroke-miterlimit="10" stroke-width="1"/>
        <rect id="Rectángulo_406174" data-name="Rectángulo 406174" width="41.885" height="52.932" transform="translate(4.09 181.021)" fill="#e3b34d"/>
        <rect id="Rectángulo_406175" data-name="Rectángulo 406175" width="41.885" height="52.932" transform="translate(4.09 181.021)" fill="none" stroke="#383715" stroke-linecap="round" stroke-linejoin="round" stroke-width="1"/>
        <line id="Línea_697" data-name="Línea 697" x2="25.775" transform="translate(11.915 196.21)" fill="#fff"/>
        <line id="Línea_698" data-name="Línea 698" x2="25.775" transform="translate(11.915 196.21)" fill="none" stroke="#383715" stroke-miterlimit="10" stroke-width="1"/>
        <line id="Línea_699" data-name="Línea 699" x2="25.775" transform="translate(11.915 204.495)" fill="#fff"/>
        <line id="Línea_700" data-name="Línea 700" x2="25.775" transform="translate(11.915 204.495)" fill="none" stroke="#383715" stroke-miterlimit="10" stroke-width="1"/>
        <line id="Línea_701" data-name="Línea 701" x2="25.775" transform="translate(11.915 212.78)" fill="#fff"/>
        <line id="Línea_702" data-name="Línea 702" x2="25.775" transform="translate(11.915 212.78)" fill="none" stroke="#383715" stroke-miterlimit="10" stroke-width="1"/>
        <line id="Línea_703" data-name="Línea 703" x2="25.775" transform="translate(11.915 221.065)" fill="#fff"/>
        <line id="Línea_704" data-name="Línea 704" x2="25.775" transform="translate(11.915 221.065)" fill="none" stroke="#383715" stroke-miterlimit="10" stroke-width="1"/>
        <path id="Trazado_980464" data-name="Trazado 980464" d="M42.145,176.118A13.525,13.525,0,1,0,55.67,189.643a13.525,13.525,0,0,0-13.524-13.525m0,24.153a10.629,10.629,0,1,1,10.628-10.628,10.628,10.628,0,0,1-10.628,10.628" transform="translate(0.516 3.172)" fill="#383715"/>
        <path id="Trazado_980465" data-name="Trazado 980465" d="M42.145,176.118A13.525,13.525,0,1,0,55.67,189.643,13.525,13.525,0,0,0,42.145,176.118Zm0,24.153a10.629,10.629,0,1,1,10.628-10.628A10.628,10.628,0,0,1,42.145,200.271Z" transform="translate(0.516 3.172)" fill="none" stroke="#383715" stroke-miterlimit="10" stroke-width="1"/>
        <line id="Línea_705" data-name="Línea 705" x2="20.631" y2="10.086" transform="translate(53.894 198.775)" fill="#fff"/>
        <line id="Línea_706" data-name="Línea 706" x2="20.631" y2="10.086" transform="translate(53.894 198.775)" fill="none" stroke="#383715" stroke-linecap="round" stroke-miterlimit="10" stroke-width="5"/>
        <path id="Trazado_980466" data-name="Trazado 980466" d="M87.673,133.771h33.275a5.352,5.352,0,0,1,5.352,5.352v20.132a5.351,5.351,0,0,1-5.352,5.351h-2.937l-6.285,9.554-.735-9.554H87.673a5.351,5.351,0,0,1-5.352-5.351V139.123a5.352,5.352,0,0,1,5.352-5.352" transform="translate(1.483 2.41)" fill="#383715"/>
        <path id="Trazado_980467" data-name="Trazado 980467" d="M87.673,133.771h33.275a5.352,5.352,0,0,1,5.352,5.352v20.132a5.351,5.351,0,0,1-5.352,5.351h-2.937l-6.285,9.554-.735-9.554H87.673a5.351,5.351,0,0,1-5.352-5.351V139.123A5.352,5.352,0,0,1,87.673,133.771Z" transform="translate(1.483 2.41)" fill="none" stroke="#383715" stroke-miterlimit="10" stroke-width="1"/>
        <path id="Trazado_980468" data-name="Trazado 980468" d="M97.373,148.734a2.618,2.618,0,1,0-2.618,2.618,2.618,2.618,0,0,0,2.618-2.618" transform="translate(1.66 2.632)" fill="#fff"/>
        <path id="Trazado_980469" data-name="Trazado 980469" d="M107.984,148.734a2.619,2.619,0,1,0-2.619,2.618,2.619,2.619,0,0,0,2.619-2.618" transform="translate(1.851 2.632)" fill="#fff"/>
        <path id="Trazado_980470" data-name="Trazado 980470" d="M118.594,148.734a2.618,2.618,0,1,0-2.618,2.618,2.618,2.618,0,0,0,2.618-2.618" transform="translate(2.042 2.632)" fill="#fff"/>
        <path id="Trazado_980471" data-name="Trazado 980471" d="M94.316,120.91H61.042a5.352,5.352,0,0,0-5.352,5.352v20.132a5.351,5.351,0,0,0,5.352,5.351h2.937l6.285,9.554L71,151.745H94.316a5.351,5.351,0,0,0,5.352-5.351V126.262a5.352,5.352,0,0,0-5.352-5.352" transform="translate(1.003 2.178)" fill="#fff"/>
        <path id="Trazado_980472" data-name="Trazado 980472" d="M94.316,120.91H61.042a5.352,5.352,0,0,0-5.352,5.352v20.132a5.351,5.351,0,0,0,5.352,5.351h2.937l6.285,9.554L71,151.745H94.316a5.351,5.351,0,0,0,5.352-5.351V126.262A5.352,5.352,0,0,0,94.316,120.91Z" transform="translate(1.003 2.178)" fill="none" stroke="#383715" stroke-miterlimit="10" stroke-width="1"/>
        <path id="Trazado_980473" data-name="Trazado 980473" d="M69.346,136.838a2.619,2.619,0,1,0-2.619,2.618,2.619,2.619,0,0,0,2.619-2.618" transform="translate(1.155 2.418)" fill="#383715"/>
        <circle id="Elipse_11575" data-name="Elipse 11575" cx="2.618" cy="2.618" r="2.618" transform="matrix(0.788, -0.615, 0.615, 0.788, 64.207, 138.804)" fill="none" stroke="#383715" stroke-miterlimit="10" stroke-width="1"/>
        <path id="Trazado_980474" data-name="Trazado 980474" d="M79.956,136.838a2.618,2.618,0,1,0-2.618,2.618,2.618,2.618,0,0,0,2.618-2.618" transform="translate(1.346 2.418)" fill="#383715"/>
        <circle id="Elipse_11576" data-name="Elipse 11576" cx="2.618" cy="2.618" r="2.618" transform="matrix(0.788, -0.615, 0.615, 0.788, 75.008, 138.804)" fill="none" stroke="#383715" stroke-miterlimit="10" stroke-width="1"/>
        <path id="Trazado_980475" data-name="Trazado 980475" d="M90.566,136.838a2.618,2.618,0,1,0-2.618,2.618,2.618,2.618,0,0,0,2.618-2.618" transform="translate(1.537 2.418)" fill="#383715"/>
        <circle id="Elipse_11577" data-name="Elipse 11577" cx="2.618" cy="2.618" r="2.618" transform="matrix(0.788, -0.615, 0.615, 0.788, 85.809, 138.804)" fill="none" stroke="#383715" stroke-miterlimit="10" stroke-width="1"/>
        <rect id="Rectángulo_406176" data-name="Rectángulo 406176" width="55.524" height="41.164" transform="translate(14.676 61.144)" fill="#fff"/>
        <rect id="Rectángulo_406177" data-name="Rectángulo 406177" width="55.524" height="41.164" transform="translate(14.676 61.144)" fill="none" stroke="#383715" stroke-miterlimit="10" stroke-width="1"/>
        <path id="Trazado_980476" data-name="Trazado 980476" d="M69.94,80.841l-9.095-8.084L46.007,88.074,34.041,80.415,14.416,101H69.94Z" transform="translate(0.26 1.311)" fill="#383715"/>
        <path id="Trazado_980477" data-name="Trazado 980477" d="M69.94,80.841l-9.095-8.084L46.007,88.074,34.041,80.415,14.416,101H69.94Z" transform="translate(0.26 1.311)" fill="none" stroke="#383715" stroke-miterlimit="10" stroke-width="1"/>
        <path id="Trazado_980478" data-name="Trazado 980478" d="M32.28,71.337a6.346,6.346,0,1,1-6.346-6.346,6.346,6.346,0,0,1,6.346,6.346" transform="translate(0.353 1.171)" fill="#383715"/>
        <path id="Trazado_980479" data-name="Trazado 980479" d="M32.28,71.337a6.346,6.346,0,1,1-6.346-6.346A6.346,6.346,0,0,1,32.28,71.337Z" transform="translate(0.353 1.171)" fill="none" stroke="#383715" stroke-miterlimit="10" stroke-width="1"/>
        <rect id="Rectángulo_406178" data-name="Rectángulo 406178" width="55.524" height="41.164" transform="translate(47.775 72.364)" fill="#fff"/>
        <rect id="Rectángulo_406179" data-name="Rectángulo 406179" width="55.524" height="41.164" transform="translate(47.775 72.364)" fill="none" stroke="#383715" stroke-miterlimit="10" stroke-width="1"/>
        <path id="Trazado_980480" data-name="Trazado 980480" d="M102.455,91.862,93.36,83.778,78.521,99.1,66.555,91.437,46.93,112.019h55.524Z" transform="translate(0.845 1.509)" fill="#e3b34d"/>
        <path id="Trazado_980481" data-name="Trazado 980481" d="M102.455,91.862,93.36,83.778,78.521,99.1,66.555,91.437,46.93,112.019h55.524Z" transform="translate(0.845 1.509)" fill="none" stroke="#383715" stroke-linecap="round" stroke-linejoin="round" stroke-width="1"/>
        <path id="Trazado_980482" data-name="Trazado 980482" d="M64.795,82.359a6.346,6.346,0,1,1-6.346-6.346,6.346,6.346,0,0,1,6.346,6.346" transform="translate(0.939 1.369)" fill="#e3b34d"/>
        <path id="Trazado_980483" data-name="Trazado 980483" d="M64.795,82.359a6.346,6.346,0,1,1-6.346-6.346A6.346,6.346,0,0,1,64.795,82.359Z" transform="translate(0.939 1.369)" fill="none" stroke="#383715" stroke-linecap="round" stroke-linejoin="round" stroke-width="1"/>
        <line id="Línea_707" data-name="Línea 707" x2="402.408" transform="translate(40.984 409.08)" fill="none" stroke="#383715" stroke-miterlimit="10" stroke-width="1"/>
        <line id="Línea_708" data-name="Línea 708" x2="14.244" transform="translate(16.885 409.08)" fill="none" stroke="#383715" stroke-miterlimit="10" stroke-width="1"/>
      </g>
    </g>
  </g>
</svg>
