<svg xmlns="http://www.w3.org/2000/svg" xmlns:xlink="http://www.w3.org/1999/xlink" width="108" height="108" viewBox="0 0 108 108">
  <defs>
    <filter id="Trazado_904820" x="0" y="0" width="108" height="108" filterUnits="userSpaceOnUse">
      <feOffset dy="3" input="SourceAlpha"/>
      <feGaussianBlur stdDeviation="3" result="blur"/>
      <feFlood flood-opacity="0.161"/>
      <feComposite operator="in" in2="blur"/>
      <feComposite in="SourceGraphic"/>
    </filter>
  </defs>
  <g id="Grupo_1146645" data-name="Grupo 1146645" transform="translate(-726 -417)">
    <g transform="matrix(1, 0, 0, 1, 726, 417)" filter="url(#Trazado_904820)">
      <g id="Trazado_904820-2" data-name="Trazado 904820" transform="translate(9 6)" fill="#ecf4fa">
        <path d="M 45 88.5 C 39.12687683105469 88.5 33.43022537231445 87.35007476806641 28.06830024719238 85.08217620849609 C 22.88852500915527 82.89131164550781 18.23629951477051 79.75458526611328 14.2408504486084 75.75914764404297 C 10.24541282653809 71.76370239257812 7.108687400817871 67.11147308349609 4.917825222015381 61.93170166015625 C 2.649924993515015 56.56977462768555 1.5 50.87312316894531 1.5 45 C 1.5 39.12687683105469 2.649924993515015 33.43022537231445 4.917825222015381 28.06830024719238 C 7.108687400817871 22.88852500915527 10.24541282653809 18.23629951477051 14.2408504486084 14.2408504486084 C 18.23629951477051 10.24541282653809 22.88852500915527 7.108687400817871 28.06830024719238 4.917825222015381 C 33.43022537231445 2.649924993515015 39.12687683105469 1.5 45 1.5 C 50.87312316894531 1.5 56.56977462768555 2.649924993515015 61.93170166015625 4.917825222015381 C 67.11147308349609 7.108687400817871 71.76370239257812 10.24541282653809 75.75914764404297 14.2408504486084 C 79.75458526611328 18.23629951477051 82.89131164550781 22.88852500915527 85.08217620849609 28.06830024719238 C 87.35007476806641 33.43022537231445 88.5 39.12687683105469 88.5 45 C 88.5 50.87312316894531 87.35007476806641 56.56977462768555 85.08217620849609 61.93170166015625 C 82.89131164550781 67.11147308349609 79.75458526611328 71.76370239257812 75.75914764404297 75.75914764404297 C 71.76370239257812 79.75458526611328 67.11147308349609 82.89131164550781 61.93170166015625 85.08217620849609 C 56.56977462768555 87.35007476806641 50.87312316894531 88.5 45 88.5 Z" stroke="none"/>
        <path d="M 45 3 C 39.32871246337891 3 33.82865524291992 4.110054016113281 28.65262985229492 6.299339294433594 C 23.65165710449219 8.414573669433594 19.15968322753906 11.44334411621094 15.301513671875 15.301513671875 C 11.44334411621094 19.15968322753906 8.414573669433594 23.65165710449219 6.299339294433594 28.65262985229492 C 4.110054016113281 33.82865524291992 3 39.32871246337891 3 45 C 3 50.67128753662109 4.110054016113281 56.17134475708008 6.299339294433594 61.34737396240234 C 8.414573669433594 66.34834289550781 11.44334411621094 70.84031677246094 15.301513671875 74.698486328125 C 19.15968322753906 78.55665588378906 23.65165710449219 81.58542633056641 28.65262985229492 83.70066070556641 C 33.82865524291992 85.88994598388672 39.32871246337891 87 45 87 C 50.67128753662109 87 56.17134475708008 85.88994598388672 61.34737396240234 83.70066070556641 C 66.34834289550781 81.58542633056641 70.84031677246094 78.55665588378906 74.698486328125 74.698486328125 C 78.55665588378906 70.84031677246094 81.58542633056641 66.34834289550781 83.70066070556641 61.34737396240234 C 85.88994598388672 56.17134475708008 87 50.67128753662109 87 45 C 87 39.32871246337891 85.88994598388672 33.82865524291992 83.70066070556641 28.65262985229492 C 81.58542633056641 23.65165710449219 78.55665588378906 19.15968322753906 74.698486328125 15.301513671875 C 70.84031677246094 11.44334411621094 66.34834289550781 8.414573669433594 61.34737396240234 6.299339294433594 C 56.17134475708008 4.110054016113281 50.67128753662109 3 45 3 M 45 0 C 69.85281372070312 0 90 20.14718627929688 90 45 C 90 69.85281372070312 69.85281372070312 90 45 90 C 20.14718627929688 90 0 69.85281372070312 0 45 C 0 20.14718627929688 20.14718627929688 0 45 0 Z" stroke="none" fill="#2a5673"/>
      </g>
    </g>
    <g id="XMLID_1642_" transform="translate(751.997 440.001)">
      <g id="XMLID_2675_" transform="translate(1.096 5.518)">
        <path id="XMLID_2692_" d="M12.674,81.152A26.629,26.629,0,0,1,10,69.692C10,58.813,19.058,50.45,29.907,50.45A19.526,19.526,0,0,1,49.17,70.033l3.7,12.043H47.008v5.615a5.722,5.722,0,0,1-5.722,5.722h-6.7l-1.122,6.425h-21l1.613-6.687a17.655,17.655,0,0,0-1.4-12Z" transform="translate(-10.002 -50.45)" fill="#ffcbbe"/>
        <g id="XMLID_2688_" transform="translate(6.202 5.452)">
          <path id="XMLID_2689_" d="M68.886,116.184a11.411,11.411,0,0,0,1.512,3.65l-1.541,1.541,3.539,3.539,1.541-1.541a11.41,11.41,0,0,0,3.65,1.513v2.178h5v-2.178a11.41,11.41,0,0,0,3.65-1.513l1.541,1.541,3.539-3.539-1.541-1.541a11.41,11.41,0,0,0,1.512-3.65h2.18v-5H91.29a11.412,11.412,0,0,0-1.512-3.648l1.543-1.543-3.539-3.539-1.543,1.543a11.409,11.409,0,0,0-3.648-1.511V100.3h-5v2.182a11.41,11.41,0,0,0-3.648,1.511l-1.543-1.543-3.539,3.539,1.543,1.543a11.407,11.407,0,0,0-1.512,3.648h-2.18v5h2.18Zm5.841-2.5a5.362,5.362,0,1,1,5.362,5.362A5.362,5.362,0,0,1,74.726,113.684Z" transform="translate(-66.706 -100.3)" fill="#91def5"/>
        </g>
      </g>
      <circle id="XMLID_2729_" cx="4" cy="4" r="4" transform="translate(47.003 0.999)" fill="#f6838d"/>
      <circle id="XMLID_2735_" cx="4" cy="4" r="4" transform="translate(47.003 23.999)" fill="#d8ec84"/>
      <circle id="XMLID_1663_" cx="4" cy="4" r="4" transform="translate(47.003 46.999)" fill="#ffcb7c"/>
      <g id="XMLID_1350_" transform="translate(0.002)">
        <path id="XMLID_1384_" d="M136.49,163.644a6.455,6.455,0,1,0,6.455,6.455,6.463,6.463,0,0,0-6.455-6.455Zm0,10.723a4.268,4.268,0,1,1,4.268-4.268A4.273,4.273,0,0,1,136.49,174.367Z" transform="translate(-115.813 -145.745)"/>
        <path id="XMLID_1543_" d="M74.778,118.159v-1.333a12.455,12.455,0,0,0,2.381-.987l.943.943a1.094,1.094,0,0,0,1.547,0l3.539-3.539a1.094,1.094,0,0,0,0-1.547l-.944-.944a12.442,12.442,0,0,0,.986-2.38h1.334a1.094,1.094,0,0,0,1.094-1.094v-5a1.094,1.094,0,0,0-1.094-1.094H83.229a12.442,12.442,0,0,0-.986-2.379l.945-.945a1.094,1.094,0,0,0,0-1.547l-3.539-3.539a1.094,1.094,0,0,0-1.547,0l-.945.945a12.456,12.456,0,0,0-2.378-.986V91.395A1.094,1.094,0,0,0,73.684,90.3h-5a1.094,1.094,0,0,0-1.094,1.094v1.336a12.456,12.456,0,0,0-2.378.986l-.945-.945a1.094,1.094,0,0,0-1.547,0L59.176,96.31a1.094,1.094,0,0,0,0,1.547l.945.945a12.451,12.451,0,0,0-.986,2.379H57.8a1.094,1.094,0,0,0-1.094,1.094v5a1.094,1.094,0,0,0,1.094,1.094h1.334a12.451,12.451,0,0,0,.986,2.38l-.944.943a1.094,1.094,0,0,0,0,1.547l3.539,3.539a1.094,1.094,0,0,0,1.547,0l.943-.943a12.449,12.449,0,0,0,2.381.987v1.333a1.094,1.094,0,0,0,1.094,1.094h5a1.094,1.094,0,0,0,1.094-1.094Zm-1.331-3.246a1.094,1.094,0,0,0-.856,1.068v1.085H69.773V115.98a1.094,1.094,0,0,0-.856-1.068,10.293,10.293,0,0,1-3.3-1.368,1.094,1.094,0,0,0-1.361.149l-.768.768L61.5,112.47l.768-.768a1.094,1.094,0,0,0,.15-1.36,10.294,10.294,0,0,1-1.367-3.3,1.094,1.094,0,0,0-1.068-.856H58.893v-2.817H59.98a1.094,1.094,0,0,0,1.068-.856,10.3,10.3,0,0,1,1.368-3.3,1.094,1.094,0,0,0-.149-1.361l-.769-.769,1.992-1.992.77.77a1.094,1.094,0,0,0,1.36.15,10.291,10.291,0,0,1,3.3-1.367,1.094,1.094,0,0,0,.856-1.068V92.489H72.59v1.088a1.094,1.094,0,0,0,.856,1.068,10.29,10.29,0,0,1,3.3,1.367,1.094,1.094,0,0,0,1.36-.15l.77-.77,1.992,1.992-.769.769a1.094,1.094,0,0,0-.149,1.361,10.3,10.3,0,0,1,1.368,3.3,1.094,1.094,0,0,0,1.068.856H83.47v2.817H82.384a1.094,1.094,0,0,0-1.068.856,10.292,10.292,0,0,1-1.367,3.3,1.094,1.094,0,0,0,.15,1.36l.768.768-1.992,1.992-.768-.768a1.094,1.094,0,0,0-1.361-.149A10.292,10.292,0,0,1,73.447,114.913Z" transform="translate(-50.504 -80.424)"/>
        <path id="XMLID_1544_" d="M2.189,139.563a17.74,17.74,0,0,1,2.444-9.012,1.094,1.094,0,1,0-1.884-1.112A19.928,19.928,0,0,0,0,139.563a27.743,27.743,0,0,0,2.786,11.946,16.6,16.6,0,0,1,1.318,11.256l-1.613,6.687a1.094,1.094,0,1,0,2.127.513l1.613-6.687a18.791,18.791,0,0,0-1.486-12.743A25.477,25.477,0,0,1,2.189,139.563Z" transform="translate(-0.002 -114.803)"/>
        <path id="XMLID_1605_" d="M128.551,33.031a5.031,5.031,0,1,0-4.91-6.125h-4.1l-.606-1.972a20.675,20.675,0,0,0-5.474-13.879L118.4,6.125h5.246a5.031,5.031,0,1,0,0-2.188h-5.7a1.094,1.094,0,0,0-.773.32l-5.263,5.263a19.966,19.966,0,0,0-13.324-5.1A21.605,21.605,0,0,0,87.65,7.372a1.094,1.094,0,1,0,1.107,1.887,19.415,19.415,0,0,1,9.824-2.647A18.352,18.352,0,0,1,116.751,25.1a1.094,1.094,0,0,0,.048.321l3.264,10.628h-4.381a1.094,1.094,0,0,0-1.094,1.094v5.615a4.634,4.634,0,0,1-4.628,4.628h-6.7a1.094,1.094,0,0,0-1.077.906l-1.121,6.425a1.094,1.094,0,1,0,2.155.376l.963-5.519h5.784a6.776,6.776,0,0,0,3.848-1.194l3.361,3.361a1.094,1.094,0,0,0,.773.32h5.7a5.031,5.031,0,1,0,0-2.188H118.4l-3-3a6.78,6.78,0,0,0,1.384-4.112V38.238h4.768a1.094,1.094,0,0,0,1.046-1.415l-2.374-7.729h3.426a5.039,5.039,0,0,0,4.91,3.938Zm0-30.844a2.844,2.844,0,1,1-2.844,2.844A2.847,2.847,0,0,1,128.551,2.188Zm0,45.938a2.844,2.844,0,1,1-2.844,2.844A2.847,2.847,0,0,1,128.551,48.125Zm0-22.969A2.844,2.844,0,1,1,125.708,28,2.847,2.847,0,0,1,128.551,25.156Z" transform="translate(-77.583)"/>
        <path id="XMLID_1615_" d="M52.515,95.618a1.094,1.094,0,1,0-.773-.32A1.1,1.1,0,0,0,52.515,95.618Z" transform="translate(-45.797 -83.211)"/>
      </g>
    </g>
  </g>
</svg>
