<svg xmlns="http://www.w3.org/2000/svg" width="44.227" height="49.02" viewBox="0 0 44.227 49.02">
  <g id="Grupo_1146650" data-name="Grupo 1146650" transform="translate(-25.032 -1)">
    <g id="Grupo_1146649" data-name="Grupo 1146649" transform="translate(25.032 1)">
      <g id="Grupo_1146648" data-name="Grupo 1146648" transform="translate(0 0)">
        <path id="Trazado_980500" data-name="Trazado 980500" d="M68.4,12.91a13.543,13.543,0,0,0-4.884-7.025C58.905,2.27,54.6.771,49.556,1.029a54.752,54.752,0,0,0-7.9,1.129C37.967,2.9,35.29,4.2,33.468,6.119a15.493,15.493,0,0,0-3.278,5.342,21.547,21.547,0,0,0-.739,2.66l-.069.3a10.342,10.342,0,0,1-.692,1.844c-.17.379-.339.758-.484,1.144a2.784,2.784,0,0,0-.22,1.375,3.117,3.117,0,0,0,1.192,1.82c.4.367.664.625.666.859a1.4,1.4,0,0,1-.143.349,31.615,31.615,0,0,1-3.576,5.817,3.407,3.407,0,0,0-1.077,2.4,2.531,2.531,0,0,0,1.184,1.524,6.023,6.023,0,0,0,.852.494c.353.18.943.481.984.7a1.389,1.389,0,0,1-.089.819c-.121.256-.247.477-.356.669-.3.531-.8,1.419-.045,2.054.176.156.478.393.754.6a2.06,2.06,0,0,0-.263,1.183,1.172,1.172,0,0,0,.481.794c.183.13.378.243.572.353.48.274.668.4.732.656a2.3,2.3,0,0,1-.089.991c-.047.214-.093.428-.122.642a4.77,4.77,0,0,0,.274,2.2,3.026,3.026,0,0,0,3.559,2.16A66.7,66.7,0,0,0,40.369,43.8c1.837,1.085,3,4.367,3.3,5.6a.819.819,0,0,0,.794.622H65.118a.817.817,0,0,0,.781-1.056,5.653,5.653,0,0,0-.92-1.588,6.321,6.321,0,0,1-.589-.9,16.113,16.113,0,0,1-.923-2.337A27.083,27.083,0,0,1,62.5,39.31a13.814,13.814,0,0,1,1.068-7.172,18.348,18.348,0,0,1,2.218-3.5c.494-.664,1-1.351,1.463-2.076a12.564,12.564,0,0,0,2-6.715A24.443,24.443,0,0,0,68.4,12.91Zm-.78,6.914a10.961,10.961,0,0,1-1.747,5.864c-.427.673-.918,1.335-1.394,1.976a19.921,19.921,0,0,0-2.4,3.821,15.445,15.445,0,0,0-1.193,8.022,28.661,28.661,0,0,0,1.024,5.117,17.8,17.8,0,0,0,1.013,2.567,7.649,7.649,0,0,0,.741,1.151l.033.045H45.08a13.04,13.04,0,0,0-2.88-5.22l.6-.212c.612-.214,1.073-.376,1.305-.449,3.5-1.1,5.255-2.691,5.207-4.731a.817.817,0,1,0-1.634.038c.02.842-.669,2.069-4.063,3.134-.241.076-.72.243-1.355.466-.586.205-1.307.458-2.1.727l0,0a67.918,67.918,0,0,1-7.019,2.119,1.446,1.446,0,0,1-1.685-1.1,3.164,3.164,0,0,1-.2-1.442c.022-.169.061-.338.1-.507a3.616,3.616,0,0,0,.076-1.745A2.7,2.7,0,0,0,29.932,37.8l-.175-.1a3,3,0,0,1,.313-.506.816.816,0,0,0-.157-1.161c-.2-.145-.663-.495-1-.763.041-.076.089-.16.132-.235.125-.222.269-.477.409-.771a3.021,3.021,0,0,0,.219-1.828c-.191-1-1.148-1.49-1.847-1.846a4.735,4.735,0,0,1-.679-.393,4.187,4.187,0,0,1-.481-.39c0-.123.13-.422.759-1.189a32.95,32.95,0,0,0,3.733-6.069,2.359,2.359,0,0,0,.32-1.108,2.849,2.849,0,0,0-1.2-2.045c-.33-.3-.642-.588-.677-.839a1.423,1.423,0,0,1,.131-.574c.134-.356.291-.7.447-1.054a11.7,11.7,0,0,0,.792-2.141l.069-.3a19.94,19.94,0,0,1,.68-2.462,13.882,13.882,0,0,1,2.93-4.785c1.583-1.671,3.978-2.81,7.322-3.483a53.331,53.331,0,0,1,7.664-1.1c4.624-.233,8.591,1.156,12.868,4.511a11.792,11.792,0,0,1,4.32,6.185A22.827,22.827,0,0,1,67.619,19.824Z" transform="translate(-25.032 -1)" fill="#c63e3e"/>
        <path id="Trazado_980501" data-name="Trazado 980501" d="M218.969,52.811h-1.694a9.347,9.347,0,0,0-.764-1.841l1.2-1.2a.817.817,0,0,0,.093-1.045,11.632,11.632,0,0,0-2.891-2.891.815.815,0,0,0-1.045.092l-1.2,1.2a9.343,9.343,0,0,0-1.842-.764V44.667a.818.818,0,0,0-.673-.8,11.774,11.774,0,0,0-4.09,0,.817.817,0,0,0-.673.8v1.694a9.343,9.343,0,0,0-1.842.764l-1.2-1.2a.815.815,0,0,0-1.045-.092,11.63,11.63,0,0,0-2.891,2.891.817.817,0,0,0,.093,1.045l1.2,1.2a9.346,9.346,0,0,0-.764,1.841h-1.694a.817.817,0,0,0-.8.673,11.691,11.691,0,0,0,0,4.091.817.817,0,0,0,.8.673h1.694a9.346,9.346,0,0,0,.764,1.841l-1.2,1.2a.817.817,0,0,0-.093,1.045,11.631,11.631,0,0,0,2.891,2.891.818.818,0,0,0,1.045-.092l1.2-1.2a9.343,9.343,0,0,0,1.842.764v1.694a.818.818,0,0,0,.673.8,11.709,11.709,0,0,0,4.09,0,.817.817,0,0,0,.673-.8V64.7a9.343,9.343,0,0,0,1.842-.764l1.2,1.2a.818.818,0,0,0,1.045.092,11.631,11.631,0,0,0,2.891-2.891.817.817,0,0,0-.093-1.045l-1.2-1.2a9.35,9.35,0,0,0,.764-1.841h1.694a.817.817,0,0,0,.8-.673,11.691,11.691,0,0,0,0-4.091A.817.817,0,0,0,218.969,52.811Zm-.708,3.8h-1.62a.817.817,0,0,0-.8.641,7.723,7.723,0,0,1-1.045,2.522.816.816,0,0,0,.109,1.019l1.147,1.146a10.024,10.024,0,0,1-1.533,1.533l-1.146-1.146a.817.817,0,0,0-1.019-.11,7.715,7.715,0,0,1-2.523,1.046.817.817,0,0,0-.641.8v1.62a10.16,10.16,0,0,1-2.169,0v-1.62a.817.817,0,0,0-.641-.8,7.715,7.715,0,0,1-2.523-1.046.815.815,0,0,0-1.019.11l-1.146,1.146a10.023,10.023,0,0,1-1.533-1.533l1.146-1.146a.816.816,0,0,0,.109-1.019,7.722,7.722,0,0,1-1.045-2.522.817.817,0,0,0-.8-.641h-1.62a10.131,10.131,0,0,1,0-2.169h1.62a.817.817,0,0,0,.8-.641,7.723,7.723,0,0,1,1.045-2.522.816.816,0,0,0-.109-1.019l-1.147-1.146a10.024,10.024,0,0,1,1.533-1.533l1.146,1.146a.815.815,0,0,0,1.019.11,7.715,7.715,0,0,1,2.523-1.046.817.817,0,0,0,.641-.8v-1.62a10.161,10.161,0,0,1,2.169,0v1.62a.817.817,0,0,0,.641.8,7.715,7.715,0,0,1,2.523,1.046.817.817,0,0,0,1.019-.11l1.146-1.146a10.023,10.023,0,0,1,1.533,1.533l-1.146,1.147a.816.816,0,0,0-.109,1.019,7.722,7.722,0,0,1,1.045,2.522.817.817,0,0,0,.8.641h1.62A10.13,10.13,0,0,1,218.261,56.614Z" transform="translate(-179.867 -39.597)" fill="#c63e3e"/>
        <path id="Trazado_980502" data-name="Trazado 980502" d="M119.915,209.892h-.933a3.225,3.225,0,0,0-.347-.833l.661-.661a.817.817,0,1,0-1.155-1.155l-.661.661a3.236,3.236,0,0,0-.832-.347v-.933a.817.817,0,1,0-1.634,0v.933a3.233,3.233,0,0,0-.832.347l-.661-.661a.817.817,0,0,0-1.155,1.155l.661.661a3.225,3.225,0,0,0-.347.833h-.933a.817.817,0,1,0,0,1.634h.933a3.225,3.225,0,0,0,.347.833l-.661.661a.817.817,0,0,0,1.155,1.155l.661-.661a3.234,3.234,0,0,0,.833.347v.933a.817.817,0,0,0,1.634,0v-.933a3.232,3.232,0,0,0,.832-.347l.661.661a.817.817,0,0,0,1.155-1.155l-.661-.661a3.225,3.225,0,0,0,.347-.833h.933a.817.817,0,0,0,0-1.634Zm-4.085,2.451a1.634,1.634,0,1,1,1.634-1.634A1.634,1.634,0,0,1,115.83,212.343Z" transform="translate(-102.704 -186.199)" fill="#c63e3e"/>
        <path id="Trazado_980503" data-name="Trazado 980503" d="M103.835,116.845a2.724,2.724,0,0,0,.2.474l-.442.442a.817.817,0,0,0,1.155,1.155l.443-.443a2.75,2.75,0,0,0,.473.2v.627a.817.817,0,1,0,1.634,0v-.627a2.736,2.736,0,0,0,.473-.2l.443.443a.817.817,0,0,0,1.155-1.155l-.442-.442a2.715,2.715,0,0,0,.2-.474h.625a.817.817,0,1,0,0-1.634h-.625a2.716,2.716,0,0,0-.2-.474l.442-.442a.817.817,0,0,0-1.155-1.155l-.443.443a2.742,2.742,0,0,0-.473-.2v-.627a.817.817,0,0,0-1.634,0v.627a2.742,2.742,0,0,0-.473.2l-.443-.443a.817.817,0,0,0-1.155,1.155l.442.442a2.716,2.716,0,0,0-.2.474h-.625a.817.817,0,0,0,0,1.634h.625Zm2.346-1.922a1.144,1.144,0,1,1-.848,1.105A1.144,1.144,0,0,1,106.182,114.922Z" transform="translate(-94.986 -101.321)" fill="#c63e3e"/>
        <path id="Trazado_980504" data-name="Trazado 980504" d="M269.837,111.941a5.31,5.31,0,1,0,5.31,5.31A5.31,5.31,0,0,0,269.837,111.941Zm0,8.987a3.676,3.676,0,1,1,3.676-3.676A3.676,3.676,0,0,1,269.837,120.928Z" transform="translate(-241.597 -101.319)" fill="#c63e3e"/>
      </g>
    </g>
  </g>
</svg>
