<svg xmlns="http://www.w3.org/2000/svg" width="919" height="266" viewBox="0 0 919 266">
  <g id="Grupo_1143859" data-name="Grupo 1143859" transform="translate(-3194 -4289)">
    <path id="Trazado_978876" data-name="Trazado 978876" d="M0,0H198a20,20,0,0,1,20,20V42a20,20,0,0,1-20,20H0Z" transform="translate(3245 4297)" fill="#bfa68d"/>
    <path id="Trazado_978891" data-name="Trazado 978891" d="M0,0H198a20,20,0,0,1,20,20V42a20,20,0,0,1-20,20H0Z" transform="translate(3245 4485)" fill="#dbb683"/>
    <path id="Trazado_978877" data-name="Trazado 978877" d="M0,0H198a20,20,0,0,1,20,20V42a20,20,0,0,1-20,20H0Z" transform="translate(3560 4297)" fill="#bc7886"/>
    <path id="Trazado_978892" data-name="Trazado 978892" d="M0,0H198a20,20,0,0,1,20,20V42a20,20,0,0,1-20,20H0Z" transform="translate(3560 4485)" fill="#84b79d"/>
    <path id="Trazado_978882" data-name="Trazado 978882" d="M0,0H218a20,20,0,0,1,20,20V42a20,20,0,0,1-20,20H0Z" transform="translate(3875 4297)" fill="#d6896f"/>
    <path id="Trazado_978893" data-name="Trazado 978893" d="M0,0H218a20,20,0,0,1,20,20V42a20,20,0,0,1-20,20H0Z" transform="translate(3875 4485)" fill="#aedaf9"/>
    <path id="Trazado_978883" data-name="Trazado 978883" d="M4.28-4.342V0H1.441V-12.6H5.889q4.764,0,4.764,4.017A3.854,3.854,0,0,1,9.286-5.515,5.414,5.414,0,0,1,5.634-4.342Zm0-6.082V-6.5H5.4q2.268,0,2.268-1.986,0-1.942-2.268-1.942ZM17.826.22a5.867,5.867,0,0,1-4.412-1.762,6.327,6.327,0,0,1-1.705-4.592,6.779,6.779,0,0,1,1.731-4.834,6,6,0,0,1,4.588-1.846,5.721,5.721,0,0,1,4.364,1.767A6.513,6.513,0,0,1,24.057-6.39,6.671,6.671,0,0,1,22.33-1.6,5.928,5.928,0,0,1,17.826.22Zm.123-10.591A2.858,2.858,0,0,0,15.576-9.25,4.672,4.672,0,0,0,14.7-6.284a4.586,4.586,0,0,0,.879,2.962,2.816,2.816,0,0,0,2.3,1.09,2.844,2.844,0,0,0,2.329-1.059,4.536,4.536,0,0,0,.861-2.94,4.915,4.915,0,0,0-.835-3.05A2.722,2.722,0,0,0,17.949-10.371ZM33.657,0H26.151V-12.6H28.99V-2.3h4.667Zm4.537,0H35.355V-12.6h2.839Zm1.441-16.611-2.751,2.839h-2l2.285-2.839Zm10.276,6.319H46.317V0H43.469V-10.292H39.892V-12.6h10.02ZM54.448,0H51.61V-12.6h2.839Zm11.9-.448a8.311,8.311,0,0,1-3.6.668,6.074,6.074,0,0,1-4.562-1.705,6.233,6.233,0,0,1-1.661-4.544,6.659,6.659,0,0,1,1.868-4.9,6.533,6.533,0,0,1,4.847-1.881,9.065,9.065,0,0,1,3.111.466v2.733a5.513,5.513,0,0,0-2.883-.756A3.824,3.824,0,0,0,60.6-9.255a4.142,4.142,0,0,0-1.09,3.023,4.062,4.062,0,0,0,1.028,2.914A3.633,3.633,0,0,0,63.31-2.232a5.905,5.905,0,0,0,3.041-.809ZM73.656.22a5.867,5.867,0,0,1-4.412-1.762,6.327,6.327,0,0,1-1.705-4.592,6.779,6.779,0,0,1,1.731-4.834,6,6,0,0,1,4.588-1.846,5.721,5.721,0,0,1,4.364,1.767A6.513,6.513,0,0,1,79.888-6.39,6.671,6.671,0,0,1,78.161-1.6,5.928,5.928,0,0,1,73.656.22Zm.123-10.591A2.858,2.858,0,0,0,71.406-9.25a4.672,4.672,0,0,0-.879,2.966,4.586,4.586,0,0,0,.879,2.962,2.816,2.816,0,0,0,2.3,1.09,2.844,2.844,0,0,0,2.329-1.059,4.536,4.536,0,0,0,.861-2.94,4.915,4.915,0,0,0-.835-3.05A2.722,2.722,0,0,0,73.779-10.371Z" transform="translate(3312 4335)" fill="#212429"/>
    <path id="Trazado_978897" data-name="Trazado 978897" d="M10.292-10.292H6.7V0H3.85V-10.292H.272V-12.6h10.02ZM19.549,0H11.99V-12.6h7.269v2.312h-4.43v2.8h4.122v2.3H14.829V-2.3h4.72ZM30.607-.448A8.311,8.311,0,0,1,27,.22a6.074,6.074,0,0,1-4.562-1.705,6.233,6.233,0,0,1-1.661-4.544,6.659,6.659,0,0,1,1.868-4.9A6.533,6.533,0,0,1,27.5-12.814a9.065,9.065,0,0,1,3.111.466v2.733a5.513,5.513,0,0,0-2.883-.756,3.824,3.824,0,0,0-2.865,1.116,4.142,4.142,0,0,0-1.09,3.023A4.062,4.062,0,0,0,24.8-3.318a3.633,3.633,0,0,0,2.769,1.085,5.905,5.905,0,0,0,3.041-.809ZM44.144,0H41.279L36.084-7.919a11.451,11.451,0,0,1-.633-1.046h-.035q.07.668.07,2.039V0H32.806V-12.6h3.059l5,7.673q.343.519.633,1.028h.035a13.476,13.476,0,0,1-.07-1.731V-12.6h2.681Zm8.211.22a5.867,5.867,0,0,1-4.412-1.762,6.327,6.327,0,0,1-1.705-4.592,6.779,6.779,0,0,1,1.731-4.834,6,6,0,0,1,4.588-1.846,5.721,5.721,0,0,1,4.364,1.767A6.513,6.513,0,0,1,58.586-6.39,6.671,6.671,0,0,1,56.859-1.6,5.928,5.928,0,0,1,52.355.22Zm.123-10.591A2.858,2.858,0,0,0,50.1-9.25a4.672,4.672,0,0,0-.879,2.966A4.586,4.586,0,0,0,50.1-3.322a2.816,2.816,0,0,0,2.3,1.09,2.844,2.844,0,0,0,2.329-1.059,4.536,4.536,0,0,0,.861-2.94,4.915,4.915,0,0,0-.835-3.05A2.722,2.722,0,0,0,52.478-10.371ZM68.186,0H60.68V-12.6h2.839V-2.3h4.667Zm6.576.22A5.867,5.867,0,0,1,70.35-1.542a6.327,6.327,0,0,1-1.705-4.592,6.779,6.779,0,0,1,1.731-4.834,6,6,0,0,1,4.588-1.846,5.721,5.721,0,0,1,4.364,1.767A6.513,6.513,0,0,1,80.993-6.39,6.671,6.671,0,0,1,79.266-1.6,5.928,5.928,0,0,1,74.762.22Zm.123-10.591A2.858,2.858,0,0,0,72.512-9.25a4.672,4.672,0,0,0-.879,2.966,4.586,4.586,0,0,0,.879,2.962,2.816,2.816,0,0,0,2.3,1.09,2.844,2.844,0,0,0,2.329-1.059A4.536,4.536,0,0,0,78-6.231a4.915,4.915,0,0,0-.835-3.05A2.722,2.722,0,0,0,74.885-10.371Zm2.865-6.24L75-13.772H73l2.285-2.839ZM93.423-.844A9.07,9.07,0,0,1,88.835.22,6.635,6.635,0,0,1,84.04-1.463,6.123,6.123,0,0,1,82.287-6.1,6.472,6.472,0,0,1,84.2-10.942a6.981,6.981,0,0,1,5.1-1.872,10.354,10.354,0,0,1,3.533.554V-9.6a7.022,7.022,0,0,0-3.568-.844,3.831,3.831,0,0,0-2.878,1.147,4.213,4.213,0,0,0-1.112,3.063,4.226,4.226,0,0,0,1,3.006,3.516,3.516,0,0,0,2.694,1.063,3.75,3.75,0,0,0,1.617-.29V-4.913H88.061V-7.181h5.361ZM98.716,0H95.877V-12.6h2.839Zm11.9-.448a8.311,8.311,0,0,1-3.6.668,6.074,6.074,0,0,1-4.562-1.705,6.233,6.233,0,0,1-1.661-4.544,6.659,6.659,0,0,1,1.868-4.9,6.533,6.533,0,0,1,4.847-1.881,9.065,9.065,0,0,1,3.111.466v2.733a5.513,5.513,0,0,0-2.883-.756,3.824,3.824,0,0,0-2.865,1.116,4.142,4.142,0,0,0-1.09,3.023,4.062,4.062,0,0,0,1.028,2.914,3.633,3.633,0,0,0,2.769,1.085,5.905,5.905,0,0,0,3.041-.809Zm7.306.668a5.867,5.867,0,0,1-4.412-1.762,6.327,6.327,0,0,1-1.705-4.592,6.779,6.779,0,0,1,1.731-4.834,6,6,0,0,1,4.588-1.846,5.721,5.721,0,0,1,4.364,1.767,6.513,6.513,0,0,1,1.666,4.658,6.671,6.671,0,0,1-1.727,4.79A5.928,5.928,0,0,1,117.923.22Zm.123-10.591a2.858,2.858,0,0,0-2.373,1.121,4.672,4.672,0,0,0-.879,2.966,4.586,4.586,0,0,0,.879,2.962,2.816,2.816,0,0,0,2.3,1.09,2.844,2.844,0,0,0,2.329-1.059,4.536,4.536,0,0,0,.861-2.94,4.915,4.915,0,0,0-.835-3.05A2.722,2.722,0,0,0,118.046-10.371Z" transform="translate(3289 4523)" fill="#212429"/>
    <path id="Trazado_978884" data-name="Trazado 978884" d="M9,0H1.441V-12.6H8.71v2.312H4.28v2.8H8.4v2.3H4.28V-2.3H9ZM20.058-.448a8.311,8.311,0,0,1-3.6.668,6.074,6.074,0,0,1-4.562-1.705,6.233,6.233,0,0,1-1.661-4.544,6.659,6.659,0,0,1,1.868-4.9,6.533,6.533,0,0,1,4.847-1.881,9.065,9.065,0,0,1,3.111.466v2.733a5.513,5.513,0,0,0-2.883-.756A3.824,3.824,0,0,0,14.31-9.255a4.142,4.142,0,0,0-1.09,3.023,4.062,4.062,0,0,0,1.028,2.914,3.633,3.633,0,0,0,2.769,1.085,5.905,5.905,0,0,0,3.041-.809ZM27.364.22a5.867,5.867,0,0,1-4.412-1.762,6.327,6.327,0,0,1-1.705-4.592,6.779,6.779,0,0,1,1.731-4.834,6,6,0,0,1,4.588-1.846,5.721,5.721,0,0,1,4.364,1.767A6.513,6.513,0,0,1,33.6-6.39,6.671,6.671,0,0,1,31.868-1.6,5.928,5.928,0,0,1,27.364.22Zm.123-10.591A2.858,2.858,0,0,0,25.114-9.25a4.672,4.672,0,0,0-.879,2.966,4.586,4.586,0,0,0,.879,2.962,2.816,2.816,0,0,0,2.3,1.09,2.844,2.844,0,0,0,2.329-1.059,4.536,4.536,0,0,0,.861-2.94,4.915,4.915,0,0,0-.835-3.05A2.722,2.722,0,0,0,27.487-10.371ZM47.027,0H44.162L38.967-7.919a11.451,11.451,0,0,1-.633-1.046H38.3q.07.668.07,2.039V0H35.689V-12.6h3.059l5,7.673q.343.519.633,1.028h.035a13.476,13.476,0,0,1-.07-1.731V-12.6h2.681Zm8.211.22a5.867,5.867,0,0,1-4.412-1.762A6.327,6.327,0,0,1,49.12-6.135a6.779,6.779,0,0,1,1.731-4.834,6,6,0,0,1,4.588-1.846A5.721,5.721,0,0,1,59.8-11.048,6.513,6.513,0,0,1,61.469-6.39,6.671,6.671,0,0,1,59.742-1.6,5.928,5.928,0,0,1,55.238.22Zm.123-10.591A2.858,2.858,0,0,0,52.988-9.25a4.672,4.672,0,0,0-.879,2.966,4.586,4.586,0,0,0,.879,2.962,2.816,2.816,0,0,0,2.3,1.09A2.844,2.844,0,0,0,57.62-3.292a4.536,4.536,0,0,0,.861-2.94,4.915,4.915,0,0,0-.835-3.05A2.722,2.722,0,0,0,55.361-10.371Zm2.865-6.24-2.751,2.839h-2l2.285-2.839ZM77.915,0h-2.8V-7.541q0-1.222.105-2.7h-.07a13.28,13.28,0,0,1-.4,1.67L71.8,0h-2.32L66.472-8.481a16.5,16.5,0,0,1-.4-1.758H66q.114,1.863.114,3.27V0H63.554V-12.6h4.157l2.575,7.471a10.519,10.519,0,0,1,.448,1.8h.053a18.139,18.139,0,0,1,.5-1.819L73.863-12.6h4.052Zm5.706,0H80.782V-12.6h2.839Zm11.9-.448a8.311,8.311,0,0,1-3.6.668,6.074,6.074,0,0,1-4.562-1.705A6.233,6.233,0,0,1,85.7-6.029a6.659,6.659,0,0,1,1.868-4.9,6.533,6.533,0,0,1,4.847-1.881,9.065,9.065,0,0,1,3.111.466v2.733a5.513,5.513,0,0,0-2.883-.756,3.824,3.824,0,0,0-2.865,1.116,4.142,4.142,0,0,0-1.09,3.023,4.062,4.062,0,0,0,1.028,2.914,3.633,3.633,0,0,0,2.769,1.085,5.905,5.905,0,0,0,3.041-.809Zm7.306.668a5.867,5.867,0,0,1-4.412-1.762,6.327,6.327,0,0,1-1.705-4.592,6.779,6.779,0,0,1,1.731-4.834,6,6,0,0,1,4.588-1.846,5.721,5.721,0,0,1,4.364,1.767A6.513,6.513,0,0,1,109.06-6.39a6.671,6.671,0,0,1-1.727,4.79A5.928,5.928,0,0,1,102.829.22Zm.123-10.591a2.858,2.858,0,0,0-2.373,1.121A4.672,4.672,0,0,0,99.7-6.284a4.586,4.586,0,0,0,.879,2.962,2.816,2.816,0,0,0,2.3,1.09,2.844,2.844,0,0,0,2.329-1.059,4.536,4.536,0,0,0,.861-2.94,4.915,4.915,0,0,0-.835-3.05A2.722,2.722,0,0,0,102.952-10.371Z" transform="translate(3614 4335)" fill="#212429"/>
    <path id="Trazado_978898" data-name="Trazado 978898" d="M9,0H1.441V-12.6H8.71v2.312H4.28v2.8H8.4v2.3H4.28V-2.3H9ZM20.058-.448a8.311,8.311,0,0,1-3.6.668,6.074,6.074,0,0,1-4.562-1.705,6.233,6.233,0,0,1-1.661-4.544,6.659,6.659,0,0,1,1.868-4.9,6.533,6.533,0,0,1,4.847-1.881,9.065,9.065,0,0,1,3.111.466v2.733a5.513,5.513,0,0,0-2.883-.756A3.824,3.824,0,0,0,14.31-9.255a4.142,4.142,0,0,0-1.09,3.023,4.062,4.062,0,0,0,1.028,2.914,3.633,3.633,0,0,0,2.769,1.085,5.905,5.905,0,0,0,3.041-.809ZM27.364.22a5.867,5.867,0,0,1-4.412-1.762,6.327,6.327,0,0,1-1.705-4.592,6.779,6.779,0,0,1,1.731-4.834,6,6,0,0,1,4.588-1.846,5.721,5.721,0,0,1,4.364,1.767A6.513,6.513,0,0,1,33.6-6.39,6.671,6.671,0,0,1,31.868-1.6,5.928,5.928,0,0,1,27.364.22Zm.123-10.591A2.858,2.858,0,0,0,25.114-9.25a4.672,4.672,0,0,0-.879,2.966,4.586,4.586,0,0,0,.879,2.962,2.816,2.816,0,0,0,2.3,1.09,2.844,2.844,0,0,0,2.329-1.059,4.536,4.536,0,0,0,.861-2.94,4.915,4.915,0,0,0-.835-3.05A2.722,2.722,0,0,0,27.487-10.371ZM43.195,0H35.689V-12.6h2.839V-2.3h4.667Zm6.576.22a5.867,5.867,0,0,1-4.412-1.762,6.327,6.327,0,0,1-1.705-4.592,6.779,6.779,0,0,1,1.731-4.834,6,6,0,0,1,4.588-1.846,5.721,5.721,0,0,1,4.364,1.767A6.513,6.513,0,0,1,56-6.39,6.671,6.671,0,0,1,54.275-1.6,5.928,5.928,0,0,1,49.771.22Zm.123-10.591A2.858,2.858,0,0,0,47.521-9.25a4.672,4.672,0,0,0-.879,2.966,4.586,4.586,0,0,0,.879,2.962,2.816,2.816,0,0,0,2.3,1.09,2.844,2.844,0,0,0,2.329-1.059,4.536,4.536,0,0,0,.861-2.94,4.915,4.915,0,0,0-.835-3.05A2.722,2.722,0,0,0,49.894-10.371Zm2.865-6.24-2.751,2.839H48l2.285-2.839ZM68.432-.844A9.07,9.07,0,0,1,63.844.22,6.635,6.635,0,0,1,59.05-1.463,6.123,6.123,0,0,1,57.3-6.1a6.472,6.472,0,0,1,1.916-4.843,6.981,6.981,0,0,1,5.1-1.872,10.354,10.354,0,0,1,3.533.554V-9.6a7.022,7.022,0,0,0-3.568-.844A3.831,3.831,0,0,0,61.4-9.294a4.213,4.213,0,0,0-1.112,3.063,4.226,4.226,0,0,0,1,3.006,3.516,3.516,0,0,0,2.694,1.063,3.75,3.75,0,0,0,1.617-.29V-4.913H63.071V-7.181h5.361ZM73.725,0H70.886V-12.6h2.839Zm11.9-.448a8.311,8.311,0,0,1-3.6.668,6.074,6.074,0,0,1-4.562-1.705A6.233,6.233,0,0,1,75.8-6.029a6.659,6.659,0,0,1,1.868-4.9,6.533,6.533,0,0,1,4.847-1.881,9.065,9.065,0,0,1,3.111.466v2.733a5.513,5.513,0,0,0-2.883-.756,3.824,3.824,0,0,0-2.865,1.116,4.142,4.142,0,0,0-1.09,3.023,4.062,4.062,0,0,0,1.028,2.914,3.633,3.633,0,0,0,2.769,1.085,5.905,5.905,0,0,0,3.041-.809ZM92.932.22A5.867,5.867,0,0,1,88.52-1.542a6.327,6.327,0,0,1-1.705-4.592,6.779,6.779,0,0,1,1.731-4.834,6,6,0,0,1,4.588-1.846A5.721,5.721,0,0,1,97.5-11.048,6.513,6.513,0,0,1,99.164-6.39,6.671,6.671,0,0,1,97.437-1.6,5.928,5.928,0,0,1,92.932.22Zm.123-10.591A2.858,2.858,0,0,0,90.682-9.25,4.672,4.672,0,0,0,89.8-6.284a4.586,4.586,0,0,0,.879,2.962,2.816,2.816,0,0,0,2.3,1.09,2.844,2.844,0,0,0,2.329-1.059,4.536,4.536,0,0,0,.861-2.94,4.915,4.915,0,0,0-.835-3.05A2.722,2.722,0,0,0,93.055-10.371Z" transform="translate(3614 4523)" fill="#212429"/>
    <path id="Trazado_978887" data-name="Trazado 978887" d="M.861-.483V-3.3a5.4,5.4,0,0,0,1.661.962,5.34,5.34,0,0,0,1.811.321,4.015,4.015,0,0,0,.936-.1,2.193,2.193,0,0,0,.668-.268,1.169,1.169,0,0,0,.4-.4,1.009,1.009,0,0,0,.132-.505,1.092,1.092,0,0,0-.211-.659,2.27,2.27,0,0,0-.576-.536,6.015,6.015,0,0,0-.866-.475q-.5-.229-1.081-.466a5.517,5.517,0,0,1-2.2-1.5A3.281,3.281,0,0,1,.809-9.07a3.416,3.416,0,0,1,.4-1.692,3.359,3.359,0,0,1,1.077-1.165A4.828,4.828,0,0,1,3.858-12.6a8.106,8.106,0,0,1,1.9-.215A11.418,11.418,0,0,1,7.5-12.7a6.861,6.861,0,0,1,1.4.365V-9.7a4.239,4.239,0,0,0-.69-.387,5.466,5.466,0,0,0-.769-.277,5.866,5.866,0,0,0-.787-.163,5.567,5.567,0,0,0-.743-.053,3.873,3.873,0,0,0-.879.092,2.254,2.254,0,0,0-.668.259,1.29,1.29,0,0,0-.422.4.948.948,0,0,0-.149.523,1,1,0,0,0,.167.567,1.916,1.916,0,0,0,.475.475,5.037,5.037,0,0,0,.747.439q.439.215.993.444a11.067,11.067,0,0,1,1.358.672,4.827,4.827,0,0,1,1.033.8,3.133,3.133,0,0,1,.659,1.024,3.618,3.618,0,0,1,.229,1.34,3.59,3.59,0,0,1-.4,1.771A3.247,3.247,0,0,1,7.972-.611a4.707,4.707,0,0,1-1.6.637A9.219,9.219,0,0,1,4.456.22,10.678,10.678,0,0,1,2.483.044,5.956,5.956,0,0,1,.861-.483Zm16,.7a5.867,5.867,0,0,1-4.412-1.762,6.327,6.327,0,0,1-1.705-4.592,6.779,6.779,0,0,1,1.731-4.834,6,6,0,0,1,4.588-1.846,5.721,5.721,0,0,1,4.364,1.767A6.513,6.513,0,0,1,23.091-6.39,6.671,6.671,0,0,1,21.364-1.6,5.928,5.928,0,0,1,16.859.22Zm.123-10.591A2.858,2.858,0,0,0,14.609-9.25a4.672,4.672,0,0,0-.879,2.966,4.586,4.586,0,0,0,.879,2.962,2.816,2.816,0,0,0,2.3,1.09,2.844,2.844,0,0,0,2.329-1.059,4.536,4.536,0,0,0,.861-2.94,4.915,4.915,0,0,0-.835-3.05A2.722,2.722,0,0,0,16.982-10.371ZM34.219-.448a8.311,8.311,0,0,1-3.6.668,6.074,6.074,0,0,1-4.562-1.705,6.233,6.233,0,0,1-1.661-4.544,6.659,6.659,0,0,1,1.868-4.9,6.533,6.533,0,0,1,4.847-1.881,9.065,9.065,0,0,1,3.111.466v2.733a5.513,5.513,0,0,0-2.883-.756,3.824,3.824,0,0,0-2.865,1.116,4.142,4.142,0,0,0-1.09,3.023A4.062,4.062,0,0,0,28.41-3.318a3.633,3.633,0,0,0,2.769,1.085,5.905,5.905,0,0,0,3.041-.809ZM39.257,0H36.418V-12.6h2.839Zm8.193.22a5.867,5.867,0,0,1-4.412-1.762,6.327,6.327,0,0,1-1.705-4.592,6.779,6.779,0,0,1,1.731-4.834,6,6,0,0,1,4.588-1.846,5.721,5.721,0,0,1,4.364,1.767A6.513,6.513,0,0,1,53.682-6.39,6.671,6.671,0,0,1,51.955-1.6,5.928,5.928,0,0,1,47.451.22Zm.123-10.591A2.858,2.858,0,0,0,45.2-9.25a4.672,4.672,0,0,0-.879,2.966A4.586,4.586,0,0,0,45.2-3.322a2.816,2.816,0,0,0,2.3,1.09,2.844,2.844,0,0,0,2.329-1.059,4.536,4.536,0,0,0,.861-2.94,4.915,4.915,0,0,0-.835-3.05A2.722,2.722,0,0,0,47.574-10.371ZM64.811-.448a8.311,8.311,0,0,1-3.6.668,6.074,6.074,0,0,1-4.562-1.705,6.233,6.233,0,0,1-1.661-4.544,6.659,6.659,0,0,1,1.868-4.9A6.533,6.533,0,0,1,61.7-12.814a9.065,9.065,0,0,1,3.111.466v2.733a5.513,5.513,0,0,0-2.883-.756,3.824,3.824,0,0,0-2.865,1.116,4.142,4.142,0,0,0-1.09,3.023A4.062,4.062,0,0,0,59-3.318,3.633,3.633,0,0,0,61.77-2.232a5.905,5.905,0,0,0,3.041-.809Zm12.473-5.01Q77.284.22,71.993.22,66.86.22,66.86-5.326V-12.6h2.848v7.313q0,3.059,2.391,3.059,2.347,0,2.347-2.953V-12.6h2.839ZM87.534,0H80.028V-12.6h2.839V-2.3h4.667ZM96.9-10.292H93.3V0H90.454V-10.292H86.877V-12.6H96.9Zm11.973,4.834q0,5.678-5.291,5.678-5.133,0-5.133-5.546V-12.6h2.848v7.313q0,3.059,2.391,3.059,2.347,0,2.347-2.953V-12.6h2.839ZM122.186,0h-3.261l-1.96-3.243q-.22-.369-.422-.659a3.662,3.662,0,0,0-.409-.5,1.625,1.625,0,0,0-.431-.316,1.093,1.093,0,0,0-.488-.11h-.765V0h-2.839V-12.6h4.5q4.588,0,4.588,3.428a3.55,3.55,0,0,1-.2,1.217,3.382,3.382,0,0,1-.571,1.006,3.621,3.621,0,0,1-.892.773,4.6,4.6,0,0,1-1.165.51v.035a1.806,1.806,0,0,1,.545.286,3.9,3.9,0,0,1,.51.461,6.438,6.438,0,0,1,.47.567q.224.3.409.593Zm-7.734-10.477V-6.97h1.23A2.04,2.04,0,0,0,117.15-7.5a1.76,1.76,0,0,0,.563-1.327q0-1.652-1.978-1.652ZM134.449,0h-3.094l-.9-2.8h-4.482L125.088,0h-3.076L126.6-12.6h3.366Zm-4.641-4.983L128.454-9.22a5.519,5.519,0,0,1-.211-1.134h-.07a4.808,4.808,0,0,1-.22,1.1l-1.371,4.271ZM143.529,0h-7.506V-12.6h2.839V-2.3h4.667Z" transform="translate(3916 4335)" fill="#212429"/>
    <path id="Trazado_978899" data-name="Trazado 978899" d="M8.947,0H1.441V-12.6H4.28V-2.3H8.947ZM18.2,0H10.645V-12.6h7.269v2.312h-4.43v2.8h4.122v2.3H13.484V-2.3H18.2ZM30.572-.844A9.07,9.07,0,0,1,25.984.22,6.635,6.635,0,0,1,21.19-1.463,6.123,6.123,0,0,1,19.436-6.1a6.472,6.472,0,0,1,1.916-4.843,6.981,6.981,0,0,1,5.1-1.872,10.354,10.354,0,0,1,3.533.554V-9.6a7.022,7.022,0,0,0-3.568-.844,3.831,3.831,0,0,0-2.878,1.147,4.213,4.213,0,0,0-1.112,3.063,4.226,4.226,0,0,0,1,3.006,3.516,3.516,0,0,0,2.694,1.063,3.75,3.75,0,0,0,1.617-.29V-4.913H25.211V-7.181h5.361ZM44.109,0H41.015l-.9-2.8H35.636L34.749,0H31.672L36.26-12.6h3.366ZM39.468-4.983,38.115-9.22a5.521,5.521,0,0,1-.211-1.134h-.07a4.807,4.807,0,0,1-.22,1.1L36.243-4.983ZM53.19,0H45.684V-12.6h2.839V-2.3H53.19Z" transform="translate(3956 4523)" fill="#212429"/>
    <path id="Trazado_978878" data-name="Trazado 978878" d="M39,0A39,39,0,1,1,0,39,39,39,0,0,1,39,0Z" transform="translate(3194 4289)" fill="#dab687"/>
    <path id="Trazado_978888" data-name="Trazado 978888" d="M39,0A39,39,0,1,1,0,39,39,39,0,0,1,39,0Z" transform="translate(3194 4477)" fill="#ddcfc2"/>
    <path id="Trazado_978879" data-name="Trazado 978879" d="M39,0A39,39,0,1,1,0,39,39,39,0,0,1,39,0Z" transform="translate(3509 4289)" fill="#db748a"/>
    <path id="Trazado_978889" data-name="Trazado 978889" d="M39,0A39,39,0,1,1,0,39,39,39,0,0,1,39,0Z" transform="translate(3509 4477)" fill="#a4beaf"/>
    <path id="Trazado_978885" data-name="Trazado 978885" d="M39,0A39,39,0,1,1,0,39,39,39,0,0,1,39,0Z" transform="translate(3824 4289)" fill="#e8bbac"/>
    <path id="Trazado_978890" data-name="Trazado 978890" d="M39,0A39,39,0,1,1,0,39,39,39,0,0,1,39,0Z" transform="translate(3824 4477)" fill="#8cbbdb"/>
    <path id="Trazado_978880" data-name="Trazado 978880" d="M9.512-9.648V0H3.2V-28.008h9.883q10.586,0,10.586,8.926a8.564,8.564,0,0,1-3.037,6.826A12.032,12.032,0,0,1,12.52-9.648Zm0-13.516v8.73h2.48q5.039,0,5.039-4.414,0-4.316-5.039-4.316Z" transform="translate(3220 4343)" fill="#212429"/>
    <path id="Trazado_978894" data-name="Trazado 978894" d="M22.871-22.871H14.883V0H8.555V-22.871H.605v-5.137H22.871Z" transform="translate(3220 4531)" fill="#212429"/>
    <path id="Trazado_978881" data-name="Trazado 978881" d="M20,0H3.2V-28.008H19.355v5.137H9.512v6.23h9.16v5.117H9.512v6.406H20Z" transform="translate(3535 4343)" fill="#212429"/>
    <path id="Trazado_978895" data-name="Trazado 978895" d="M22.871-22.871H14.883V0H8.555V-22.871H.605v-5.137H22.871Z" transform="translate(3535 4531)" fill="#212429"/>
    <path id="Trazado_978886" data-name="Trazado 978886" d="M1.914-1.074v-6.25A12.01,12.01,0,0,0,5.605-5.186a11.866,11.866,0,0,0,4.023.713,8.922,8.922,0,0,0,2.08-.215,4.872,4.872,0,0,0,1.484-.6,2.6,2.6,0,0,0,.889-.9A2.242,2.242,0,0,0,14.375-7.3a2.428,2.428,0,0,0-.469-1.465,5.044,5.044,0,0,0-1.279-1.191A13.367,13.367,0,0,0,10.7-11.016q-1.113-.508-2.4-1.035a12.261,12.261,0,0,1-4.893-3.34A7.292,7.292,0,0,1,1.8-20.156a7.59,7.59,0,0,1,.879-3.76A7.464,7.464,0,0,1,5.068-26.5,10.728,10.728,0,0,1,8.574-28a18.014,18.014,0,0,1,4.219-.479,25.374,25.374,0,0,1,3.877.264,15.247,15.247,0,0,1,3.115.811v5.84a9.42,9.42,0,0,0-1.533-.859,12.147,12.147,0,0,0-1.709-.615,13.036,13.036,0,0,0-1.748-.361,12.372,12.372,0,0,0-1.65-.117,8.607,8.607,0,0,0-1.953.205,5.01,5.01,0,0,0-1.484.576,2.867,2.867,0,0,0-.937.889,2.106,2.106,0,0,0-.332,1.162,2.219,2.219,0,0,0,.371,1.26,4.257,4.257,0,0,0,1.055,1.055,11.192,11.192,0,0,0,1.66.977q.977.479,2.207.986a24.593,24.593,0,0,1,3.018,1.494,10.728,10.728,0,0,1,2.295,1.787,6.962,6.962,0,0,1,1.465,2.275,8.04,8.04,0,0,1,.508,2.979,7.978,7.978,0,0,1-.889,3.936,7.215,7.215,0,0,1-2.412,2.578A10.46,10.46,0,0,1,14.17.059,20.487,20.487,0,0,1,9.9.488,23.73,23.73,0,0,1,5.518.1,13.236,13.236,0,0,1,1.914-1.074Z" transform="translate(3850 4343)" fill="#212429"/>
    <path id="Trazado_978896" data-name="Trazado 978896" d="M19.883,0H3.2V-28.008H9.512V-5.117H19.883Z" transform="translate(3851 4531)" fill="#212429"/>
  </g>
</svg>
