<svg xmlns="http://www.w3.org/2000/svg" xmlns:xlink="http://www.w3.org/1999/xlink" width="108" height="108" viewBox="0 0 108 108">
  <defs>
    <filter id="Trazado_904820" x="0" y="0" width="108" height="108" filterUnits="userSpaceOnUse">
      <feOffset dy="3" input="SourceAlpha"/>
      <feGaussianBlur stdDeviation="3" result="blur"/>
      <feFlood flood-opacity="0.161"/>
      <feComposite operator="in" in2="blur"/>
      <feComposite in="SourceGraphic"/>
    </filter>
  </defs>
  <g id="Grupo_1143746" data-name="Grupo 1143746" transform="translate(-306 -3381)">
    <g transform="matrix(1, 0, 0, 1, 306, 3381)" filter="url(#Trazado_904820)">
      <g id="Trazado_904820-2" data-name="Trazado 904820" transform="translate(9 6)" fill="#ecf4fa">
        <path d="M 45 88.5 C 39.12687683105469 88.5 33.43022537231445 87.35007476806641 28.06830024719238 85.08217620849609 C 22.88852500915527 82.89131164550781 18.23629951477051 79.75458526611328 14.2408504486084 75.75914764404297 C 10.24541282653809 71.76370239257812 7.108687400817871 67.11147308349609 4.917825222015381 61.93170166015625 C 2.649924993515015 56.56977462768555 1.5 50.87312316894531 1.5 45 C 1.5 39.12687683105469 2.649924993515015 33.43022537231445 4.917825222015381 28.06830024719238 C 7.108687400817871 22.88852500915527 10.24541282653809 18.23629951477051 14.2408504486084 14.2408504486084 C 18.23629951477051 10.24541282653809 22.88852500915527 7.108687400817871 28.06830024719238 4.917825222015381 C 33.43022537231445 2.649924993515015 39.12687683105469 1.5 45 1.5 C 50.87312316894531 1.5 56.56977462768555 2.649924993515015 61.93170166015625 4.917825222015381 C 67.11147308349609 7.108687400817871 71.76370239257812 10.24541282653809 75.75914764404297 14.2408504486084 C 79.75458526611328 18.23629951477051 82.89131164550781 22.88852500915527 85.08217620849609 28.06830024719238 C 87.35007476806641 33.43022537231445 88.5 39.12687683105469 88.5 45 C 88.5 50.87312316894531 87.35007476806641 56.56977462768555 85.08217620849609 61.93170166015625 C 82.89131164550781 67.11147308349609 79.75458526611328 71.76370239257812 75.75914764404297 75.75914764404297 C 71.76370239257812 79.75458526611328 67.11147308349609 82.89131164550781 61.93170166015625 85.08217620849609 C 56.56977462768555 87.35007476806641 50.87312316894531 88.5 45 88.5 Z" stroke="none"/>
        <path d="M 45 3 C 39.32871246337891 3 33.82865524291992 4.110054016113281 28.65262985229492 6.299339294433594 C 23.65165710449219 8.414573669433594 19.15968322753906 11.44334411621094 15.301513671875 15.301513671875 C 11.44334411621094 19.15968322753906 8.414573669433594 23.65165710449219 6.299339294433594 28.65262985229492 C 4.110054016113281 33.82865524291992 3 39.32871246337891 3 45 C 3 50.67128753662109 4.110054016113281 56.17134475708008 6.299339294433594 61.34737396240234 C 8.414573669433594 66.34834289550781 11.44334411621094 70.84031677246094 15.301513671875 74.698486328125 C 19.15968322753906 78.55665588378906 23.65165710449219 81.58542633056641 28.65262985229492 83.70066070556641 C 33.82865524291992 85.88994598388672 39.32871246337891 87 45 87 C 50.67128753662109 87 56.17134475708008 85.88994598388672 61.34737396240234 83.70066070556641 C 66.34834289550781 81.58542633056641 70.84031677246094 78.55665588378906 74.698486328125 74.698486328125 C 78.55665588378906 70.84031677246094 81.58542633056641 66.34834289550781 83.70066070556641 61.34737396240234 C 85.88994598388672 56.17134475708008 87 50.67128753662109 87 45 C 87 39.32871246337891 85.88994598388672 33.82865524291992 83.70066070556641 28.65262985229492 C 81.58542633056641 23.65165710449219 78.55665588378906 19.15968322753906 74.698486328125 15.301513671875 C 70.84031677246094 11.44334411621094 66.34834289550781 8.414573669433594 61.34737396240234 6.299339294433594 C 56.17134475708008 4.110054016113281 50.67128753662109 3 45 3 M 45 0 C 69.85281372070312 0 90 20.14718627929688 90 45 C 90 69.85281372070312 69.85281372070312 90 45 90 C 20.14718627929688 90 0 69.85281372070312 0 45 C 0 20.14718627929688 20.14718627929688 0 45 0 Z" stroke="none" fill="#2a5673"/>
      </g>
    </g>
    <g id="Grupo_1143745" data-name="Grupo 1143745" transform="translate(315.665 3389.665)">
      <path id="Trazado_978677" data-name="Trazado 978677" d="M80,25.756A1.756,1.756,0,0,1,81.756,24h41.258a1.756,1.756,0,0,1,1.756,1.756V54.724a1.756,1.756,0,0,1-1.756,1.756H80Z" transform="translate(-56.977 -7.122)" fill="#548aff"/>
      <path id="Trazado_978678" data-name="Trazado 978678" d="M317.168,363.412,322.435,352H309.267L304,363.412Z" transform="translate(-256.398 -299.131)" fill="#8be0e8"/>
      <path id="Trazado_978679" data-name="Trazado 978679" d="M240,456h20.19v1.756a1.756,1.756,0,0,1-1.756,1.756H241.756A1.756,1.756,0,0,1,240,457.756Z" transform="translate(-199.42 -391.719)" fill="#548aff"/>
      <path id="Trazado_978680" data-name="Trazado 978680" d="M64,280h6.038v7.9H64Z" transform="translate(-42.733 -235.031)" fill="#ffceb6"/>
      <path id="Trazado_978681" data-name="Trazado 978681" d="M100.389,240v6.916a1.862,1.862,0,0,1-3.179,1.317L96,247.023V240Z" transform="translate(-71.221 -199.421)" fill="#ffceb6"/>
      <path id="Trazado_978682" data-name="Trazado 978682" d="M42.633,225.656l-2.046-3.41A4.125,4.125,0,0,1,40,220.125h0A4.125,4.125,0,0,1,44.125,216h6.409a1.756,1.756,0,1,1,0,3.511H47.9l-1.756,2.634v3.511Z" transform="translate(-21.366 -178.054)" fill="#c47220"/>
      <path id="Trazado_978683" data-name="Trazado 978683" d="M51.213,350.923H44a3.511,3.511,0,0,1-2.61-1.162l-3.343-3.715v7.51H24v-12.29A5.267,5.267,0,0,1,29.267,336h5.866a6.145,6.145,0,0,1,4.756,2.254l6.057,7.4h5.267Z" transform="translate(-7.122 -284.886)" fill="#ffb401"/>
      <path id="Trazado_978684" data-name="Trazado 978684" d="M272,422.145v-5.267h1.756l3.511-.878,3.912,2.347a.983.983,0,0,1-.7,1.807l-3.213-.643-3.043,2.282a1.756,1.756,0,0,1-1.053.351Z" transform="translate(-227.909 -356.108)" fill="#ffceb6"/>
      <path id="Trazado_978685" data-name="Trazado 978685" d="M343.9,459.511h-6.145A1.756,1.756,0,0,1,336,457.756V456h9.656v1.756A1.756,1.756,0,0,1,343.9,459.511Z" transform="translate(-284.886 -391.719)" fill="#4367e0"/>
      <path id="Trazado_978686" data-name="Trazado 978686" d="M192,248h5.267v4.389H192Z" transform="translate(-156.687 -206.543)" fill="#ffa100"/>
      <path id="Trazado_978687" data-name="Trazado 978687" d="M240,216h5.267v7.9H240Z" transform="translate(-199.42 -178.054)" fill="#ffb401"/>
      <path id="Trazado_978688" data-name="Trazado 978688" d="M288,176h5.267v12.29H288Z" transform="translate(-242.153 -142.443)" fill="#ffc431"/>
      <path id="Trazado_978689" data-name="Trazado 978689" d="M336,136h5.267v16.679H336Z" transform="translate(-284.886 -106.832)" fill="#ffcc4d"/>
      <path id="Trazado_978690" data-name="Trazado 978690" d="M384,104h5.267v20.19H384Z" transform="translate(-327.619 -78.344)" fill="#ffd873"/>
      <g id="Grupo_1143744" data-name="Grupo 1143744" transform="translate(34.435 20.389)">
        <circle id="Elipse_11557" data-name="Elipse 11557" cx="2" cy="2" r="2" transform="translate(-0.435 12.281)" fill="#c5dafa"/>
        <ellipse id="Elipse_11558" data-name="Elipse 11558" cx="2" cy="1.5" rx="2" ry="1.5" transform="translate(8.565 6.281)" fill="#c5dafa"/>
        <ellipse id="Elipse_11559" data-name="Elipse 11559" cx="2" cy="1.5" rx="2" ry="1.5" transform="translate(16.565 0.281)" fill="#c5dafa"/>
      </g>
      <path id="Trazado_978691" data-name="Trazado 978691" d="M66.037,222.923H52.869a.878.878,0,0,0-.8.51L49.042,230l-3.3.826h-6.5l-5.793-7.08a6.993,6.993,0,0,0-5.263-2.571v-.15a2.744,2.744,0,0,0,1.862-2.595v-5.312A2.633,2.633,0,0,0,29.168,208H22.758a5,5,0,0,0-4.29,7.576l1.921,3.2v2.647A6.155,6.155,0,0,0,16,227.312V239.6h1.756v-12.29a4.394,4.394,0,0,1,4.389-4.389h5.866a5.248,5.248,0,0,1,4.076,1.932l6.057,7.4a.878.878,0,0,0,.679.322h4.389v3.511H36.876a2.637,2.637,0,0,1-1.957-.872L28.065,227.6l-1.3,1.174,3.286,3.651V239.6H31.8v-5.223l1.813,2.014a4.4,4.4,0,0,0,3.262,1.453h2.976a2.638,2.638,0,0,0,2.483,1.756H59.014a2.637,2.637,0,0,0,2.634-2.634v-1.563l5.186-11.237a.878.878,0,0,0-.8-1.246Zm-38.731-3.511a.978.978,0,0,1-.7-.288l-.953-.953v-2.882L27,213.267H28.29v5.161a.985.985,0,0,1-.984.984ZM19.511,213a3.25,3.25,0,0,1,3.247-3.247h6.409a.878.878,0,0,1,0,1.756H26.534a.878.878,0,0,0-.73.391l-1.756,2.633a.878.878,0,0,0-.147.487v2.633H21.764l-1.79-2.983a3.247,3.247,0,0,1-.463-1.67Zm2.634,6.409h2.27l.953.953a2.728,2.728,0,0,0,1.06.659v.144H22.145Zm22.824,13.168h.878a.875.875,0,0,0,.213-.026l3.158-.79,3.6,2.16a.105.105,0,0,1-.075.193l-3.213-.643a.878.878,0,0,0-.7.158l-3.043,2.282a.883.883,0,0,1-.527.176h-.293Zm1.873,4.74,1.639-1.229h1.756v.878a2.62,2.62,0,0,0,.151.878H45.261a2.65,2.65,0,0,0,1.58-.527Zm13.051-.351a.879.879,0,0,1-.878.878H52.869a.879.879,0,0,1-.878-.878v-.878h7.9Zm.316-2.634H54.595a1.839,1.839,0,0,0-.873-1.917L50.7,230.6l2.734-5.924H64.665Z" transform="translate(0 -170.932)"/>
      <path id="Trazado_978692" data-name="Trazado 978692" d="M115.892,16H74.634A2.636,2.636,0,0,0,72,18.634V35.312h1.756V18.634a.879.879,0,0,1,.878-.878h41.258a.879.879,0,0,1,.878.878V47.6a.879.879,0,0,1-.878.878H81.656v1.756h34.236a2.636,2.636,0,0,0,2.634-2.634V18.634A2.637,2.637,0,0,0,115.892,16Z" transform="translate(-49.855)"/>
      <circle id="Elipse_11560" data-name="Elipse 11560" cx="1" cy="1" r="1" transform="translate(25 18.67)"/>
      <circle id="Elipse_11561" data-name="Elipse 11561" cx="1" cy="1" r="1" transform="translate(27 18.67)"/>
      <circle id="Elipse_11562" data-name="Elipse 11562" cx="1" cy="1" r="1" transform="translate(30 18.67)"/>
      <path id="Trazado_978693" data-name="Trazado 978693" d="M196.969,96H191.7a.878.878,0,0,0-.878.878v2.634h-4.389a.878.878,0,0,0-.878.878V103.9h-4.389a.878.878,0,0,0-.878.878v3.511H175.9a.878.878,0,0,0-.878.878V111.8h-4.389a.878.878,0,0,0-.878.878v3.511H168v1.756h31.6V116.19h-1.756V96.878a.878.878,0,0,0-.878-.878Zm-25.457,17.557h3.511v2.634h-3.511Zm5.267-3.511h3.511v6.145h-3.511Zm5.267-4.389h3.511V116.19h-3.511Zm5.267-4.389h3.511V116.19h-3.511Zm8.778,14.923h-3.511V97.756h3.511Z" transform="translate(-135.321 -71.222)"/>
      <path id="Trazado_978694" data-name="Trazado 978694" d="M144,63.8h3.662a2.633,2.633,0,0,0,5-1.644l4.565-3.364a2.633,2.633,0,0,0,4.121-3.036l4-2.944a2.631,2.631,0,0,0,3.96-1.3h5.418V49.75h-5.418a2.633,2.633,0,0,0-5,1.644l-4.145,3.054a2.632,2.632,0,0,0-3.823,2.817l-4.714,3.474a2.631,2.631,0,0,0-3.96,1.3H144ZM166.824,49.75a.878.878,0,1,1-.878.878A.878.878,0,0,1,166.824,49.75Zm-7.9,6.145a.878.878,0,1,1-.878.878A.878.878,0,0,1,158.923,55.894Zm-8.778,6.145a.878.878,0,1,1-.878.878A.878.878,0,0,1,150.145,62.039Z" transform="translate(-113.954 -28.483)"/>
      <path id="Trazado_978695" data-name="Trazado 978695" d="M440,64h1.756v1.756H440Z" transform="translate(-377.474 -42.733)"/>
      <path id="Trazado_978696" data-name="Trazado 978696" d="M112,176h1.756v1.756H112Z" transform="translate(-85.466 -142.443)"/>
    </g>
  </g>
</svg>
