<svg xmlns="http://www.w3.org/2000/svg" xmlns:xlink="http://www.w3.org/1999/xlink" width="108" height="108" viewBox="0 0 108 108">
  <defs>
    <filter id="Trazado_904820" x="0" y="0" width="108" height="108" filterUnits="userSpaceOnUse">
      <feOffset dy="3" input="SourceAlpha"/>
      <feGaussianBlur stdDeviation="3" result="blur"/>
      <feFlood flood-opacity="0.161"/>
      <feComposite operator="in" in2="blur"/>
      <feComposite in="SourceGraphic"/>
    </filter>
  </defs>
  <g id="Grupo_1143757" data-name="Grupo 1143757" transform="translate(-201 -888)">
    <g transform="matrix(1, 0, 0, 1, 201, 888)" filter="url(#Trazado_904820)">
      <g id="Trazado_904820-2" data-name="Trazado 904820" transform="translate(9 6)" fill="#ecf4fa">
        <path d="M 45 88.5 C 39.12687683105469 88.5 33.43022537231445 87.35007476806641 28.06830024719238 85.08217620849609 C 22.88852500915527 82.89131164550781 18.23629951477051 79.75458526611328 14.2408504486084 75.75914764404297 C 10.24541282653809 71.76370239257812 7.108687400817871 67.11147308349609 4.917825222015381 61.93170166015625 C 2.649924993515015 56.56977462768555 1.5 50.87312316894531 1.5 45 C 1.5 39.12687683105469 2.649924993515015 33.43022537231445 4.917825222015381 28.06830024719238 C 7.108687400817871 22.88852500915527 10.24541282653809 18.23629951477051 14.2408504486084 14.2408504486084 C 18.23629951477051 10.24541282653809 22.88852500915527 7.108687400817871 28.06830024719238 4.917825222015381 C 33.43022537231445 2.649924993515015 39.12687683105469 1.5 45 1.5 C 50.87312316894531 1.5 56.56977462768555 2.649924993515015 61.93170166015625 4.917825222015381 C 67.11147308349609 7.108687400817871 71.76370239257812 10.24541282653809 75.75914764404297 14.2408504486084 C 79.75458526611328 18.23629951477051 82.89131164550781 22.88852500915527 85.08217620849609 28.06830024719238 C 87.35007476806641 33.43022537231445 88.5 39.12687683105469 88.5 45 C 88.5 50.87312316894531 87.35007476806641 56.56977462768555 85.08217620849609 61.93170166015625 C 82.89131164550781 67.11147308349609 79.75458526611328 71.76370239257812 75.75914764404297 75.75914764404297 C 71.76370239257812 79.75458526611328 67.11147308349609 82.89131164550781 61.93170166015625 85.08217620849609 C 56.56977462768555 87.35007476806641 50.87312316894531 88.5 45 88.5 Z" stroke="none"/>
        <path d="M 45 3 C 39.32871246337891 3 33.82865524291992 4.110054016113281 28.65262985229492 6.299339294433594 C 23.65165710449219 8.414573669433594 19.15968322753906 11.44334411621094 15.301513671875 15.301513671875 C 11.44334411621094 19.15968322753906 8.414573669433594 23.65165710449219 6.299339294433594 28.65262985229492 C 4.110054016113281 33.82865524291992 3 39.32871246337891 3 45 C 3 50.67128753662109 4.110054016113281 56.17134475708008 6.299339294433594 61.34737396240234 C 8.414573669433594 66.34834289550781 11.44334411621094 70.84031677246094 15.301513671875 74.698486328125 C 19.15968322753906 78.55665588378906 23.65165710449219 81.58542633056641 28.65262985229492 83.70066070556641 C 33.82865524291992 85.88994598388672 39.32871246337891 87 45 87 C 50.67128753662109 87 56.17134475708008 85.88994598388672 61.34737396240234 83.70066070556641 C 66.34834289550781 81.58542633056641 70.84031677246094 78.55665588378906 74.698486328125 74.698486328125 C 78.55665588378906 70.84031677246094 81.58542633056641 66.34834289550781 83.70066070556641 61.34737396240234 C 85.88994598388672 56.17134475708008 87 50.67128753662109 87 45 C 87 39.32871246337891 85.88994598388672 33.82865524291992 83.70066070556641 28.65262985229492 C 81.58542633056641 23.65165710449219 78.55665588378906 19.15968322753906 74.698486328125 15.301513671875 C 70.84031677246094 11.44334411621094 66.34834289550781 8.414573669433594 61.34737396240234 6.299339294433594 C 56.17134475708008 4.110054016113281 50.67128753662109 3 45 3 M 45 0 C 69.85281372070312 0 90 20.14718627929688 90 45 C 90 69.85281372070312 69.85281372070312 90 45 90 C 20.14718627929688 90 0 69.85281372070312 0 45 C 0 20.14718627929688 20.14718627929688 0 45 0 Z" stroke="none" fill="#2a5673"/>
      </g>
    </g>
    <g id="Grupo_1143756" data-name="Grupo 1143756" transform="translate(228.413 912.429)">
      <rect id="Rectángulo_405131" data-name="Rectángulo 405131" width="8.856" height="24.798" transform="translate(0.901 10.628)" fill="#36afad"/>
      <path id="Trazado_978723" data-name="Trazado 978723" d="M102.734,51.2H93.878V81.309h7.971a17.633,17.633,0,0,1,.886-5.491V51.2Z" transform="translate(-84.119 -45.883)" fill="#195c85"/>
      <path id="Trazado_978724" data-name="Trazado 978724" d="M298.313,55.884a.886.886,0,0,0-1.252,0l-4.428,4.428,1.252,1.252,3.8-3.8,2.916,2.916a.886.886,0,0,0,1.252,0l6.459-6.459v4.062h1.771v-6.2h-.008a.862.862,0,0,0-.837-.886H303v1.771h4.062L301.229,58.8Z" transform="translate(-262.244 -45.882)" fill="#36afad"/>
      <g id="Grupo_1143755" data-name="Grupo 1143755" transform="translate(1.787 39.854)">
        <rect id="Rectángulo_405132" data-name="Rectángulo 405132" width="14.17" height="1.771" fill="#195c85"/>
        <rect id="Rectángulo_405133" data-name="Rectángulo 405133" width="14.17" height="1.771" transform="translate(0 3.543)" fill="#195c85"/>
        <rect id="Rectángulo_405134" data-name="Rectángulo 405134" width="14.17" height="1.771" transform="translate(0 7.085)" fill="#195c85"/>
      </g>
      <path id="Trazado_978725" data-name="Trazado 978725" d="M188.061,27.278V8.533h-8.856V37.582A17.756,17.756,0,0,1,188.061,27.278Z" transform="translate(-160.589 -7.647)" fill="#cfdfe8"/>
      <path id="Trazado_978726" data-name="Trazado 978726" d="M334.566,170.682c-.292-.018-.593-.027-.886-.027s-.593.009-.886.027v17.686a.886.886,0,0,0,.886.886h17.686c.018-.292.027-.593.027-.886s-.009-.593-.027-.886A17.713,17.713,0,0,0,334.566,170.682Z" transform="translate(-298.238 -152.942)" fill="#195c85"/>
      <path id="Trazado_978727" data-name="Trazado 978727" d="M204.392,189.483H188.477a.886.886,0,0,1-.886-.886V170.911a17.712,17.712,0,1,0,18.572,18.572Z" transform="translate(-153.034 -153.172)" fill="#fdbd40"/>
      <path id="Trazado_978728" data-name="Trazado 978728" d="M35.443,17.713A17.6,17.6,0,0,0,28.358,19.2V.886A.886.886,0,0,0,27.472,0H18.616a.886.886,0,0,0-.886.886V4.428H9.759a.886.886,0,0,0-.886.886V9.742H.9a.886.886,0,0,0-.886.886v24.8a.886.886,0,0,0,.886.886H17.775a17.7,17.7,0,1,0,17.668-18.6ZM8.873,34.54H1.788V11.513H8.873Zm8.856,0H10.645V6.2H17.73V34.54ZM19.5,1.771h7.085V20.109A17.8,17.8,0,0,0,19.5,27.756Zm15.942,49.6a15.931,15.931,0,0,1-.886-31.838v15.9a.886.886,0,0,0,.886.886h15.9A15.949,15.949,0,0,1,35.443,51.367Zm.886-16.827V19.529A15.936,15.936,0,0,1,51.339,34.54Z"/>
      <path id="Trazado_978729" data-name="Trazado 978729" d="M298.313,55.884a.886.886,0,0,0-1.252,0l-4.428,4.428,1.252,1.252,3.8-3.8,2.916,2.916a.886.886,0,0,0,1.252,0l6.459-6.459v4.062h1.771v-6.2h-.008a.862.862,0,0,0-.837-.886H303v1.771h4.062L301.229,58.8Z" transform="translate(-262.244 -45.882)"/>
      <rect id="Rectángulo_405135" data-name="Rectángulo 405135" width="14.17" height="1.771" transform="translate(1.787 39.854)"/>
      <rect id="Rectángulo_405136" data-name="Rectángulo 405136" width="14.17" height="1.771" transform="translate(1.787 43.396)"/>
      <rect id="Rectángulo_405137" data-name="Rectángulo 405137" width="14.17" height="1.771" transform="translate(1.787 46.939)"/>
    </g>
  </g>
</svg>
