<svg xmlns="http://www.w3.org/2000/svg" xmlns:xlink="http://www.w3.org/1999/xlink" width="108" height="108" viewBox="0 0 108 108">
  <defs>
    <filter id="Trazado_904820" x="0" y="0" width="108" height="108" filterUnits="userSpaceOnUse">
      <feOffset dy="3" input="SourceAlpha"/>
      <feGaussianBlur stdDeviation="3" result="blur"/>
      <feFlood flood-opacity="0.161"/>
      <feComposite operator="in" in2="blur"/>
      <feComposite in="SourceGraphic"/>
    </filter>
  </defs>
  <g id="Grupo_1143830" data-name="Grupo 1143830" transform="translate(-201 -966)">
    <g transform="matrix(1, 0, 0, 1, 201, 966)" filter="url(#Trazado_904820)">
      <g id="Trazado_904820-2" data-name="Trazado 904820" transform="translate(9 6)" fill="#ecf4fa">
        <path d="M 45 88.5 C 39.12687683105469 88.5 33.43022537231445 87.35007476806641 28.06830024719238 85.08217620849609 C 22.88852500915527 82.89131164550781 18.23629951477051 79.75458526611328 14.2408504486084 75.75914764404297 C 10.24541282653809 71.76370239257812 7.108687400817871 67.11147308349609 4.917825222015381 61.93170166015625 C 2.649924993515015 56.56977462768555 1.5 50.87312316894531 1.5 45 C 1.5 39.12687683105469 2.649924993515015 33.43022537231445 4.917825222015381 28.06830024719238 C 7.108687400817871 22.88852500915527 10.24541282653809 18.23629951477051 14.2408504486084 14.2408504486084 C 18.23629951477051 10.24541282653809 22.88852500915527 7.108687400817871 28.06830024719238 4.917825222015381 C 33.43022537231445 2.649924993515015 39.12687683105469 1.5 45 1.5 C 50.87312316894531 1.5 56.56977462768555 2.649924993515015 61.93170166015625 4.917825222015381 C 67.11147308349609 7.108687400817871 71.76370239257812 10.24541282653809 75.75914764404297 14.2408504486084 C 79.75458526611328 18.23629951477051 82.89131164550781 22.88852500915527 85.08217620849609 28.06830024719238 C 87.35007476806641 33.43022537231445 88.5 39.12687683105469 88.5 45 C 88.5 50.87312316894531 87.35007476806641 56.56977462768555 85.08217620849609 61.93170166015625 C 82.89131164550781 67.11147308349609 79.75458526611328 71.76370239257812 75.75914764404297 75.75914764404297 C 71.76370239257812 79.75458526611328 67.11147308349609 82.89131164550781 61.93170166015625 85.08217620849609 C 56.56977462768555 87.35007476806641 50.87312316894531 88.5 45 88.5 Z" stroke="none"/>
        <path d="M 45 3 C 39.32871246337891 3 33.82865524291992 4.110054016113281 28.65262985229492 6.299339294433594 C 23.65165710449219 8.414573669433594 19.15968322753906 11.44334411621094 15.301513671875 15.301513671875 C 11.44334411621094 19.15968322753906 8.414573669433594 23.65165710449219 6.299339294433594 28.65262985229492 C 4.110054016113281 33.82865524291992 3 39.32871246337891 3 45 C 3 50.67128753662109 4.110054016113281 56.17134475708008 6.299339294433594 61.34737396240234 C 8.414573669433594 66.34834289550781 11.44334411621094 70.84031677246094 15.301513671875 74.698486328125 C 19.15968322753906 78.55665588378906 23.65165710449219 81.58542633056641 28.65262985229492 83.70066070556641 C 33.82865524291992 85.88994598388672 39.32871246337891 87 45 87 C 50.67128753662109 87 56.17134475708008 85.88994598388672 61.34737396240234 83.70066070556641 C 66.34834289550781 81.58542633056641 70.84031677246094 78.55665588378906 74.698486328125 74.698486328125 C 78.55665588378906 70.84031677246094 81.58542633056641 66.34834289550781 83.70066070556641 61.34737396240234 C 85.88994598388672 56.17134475708008 87 50.67128753662109 87 45 C 87 39.32871246337891 85.88994598388672 33.82865524291992 83.70066070556641 28.65262985229492 C 81.58542633056641 23.65165710449219 78.55665588378906 19.15968322753906 74.698486328125 15.301513671875 C 70.84031677246094 11.44334411621094 66.34834289550781 8.414573669433594 61.34737396240234 6.299339294433594 C 56.17134475708008 4.110054016113281 50.67128753662109 3 45 3 M 45 0 C 69.85281372070312 0 90 20.14718627929688 90 45 C 90 69.85281372070312 69.85281372070312 90 45 90 C 20.14718627929688 90 0 69.85281372070312 0 45 C 0 20.14718627929688 20.14718627929688 0 45 0 Z" stroke="none" fill="#2a5673"/>
      </g>
    </g>
    <g id="Grupo_1143829" data-name="Grupo 1143829" transform="translate(190.099 939.219)">
      <g id="Grupo_1143828" data-name="Grupo 1143828" transform="translate(40.9 52.4)">
        <g id="Grupo_1143827" data-name="Grupo 1143827" transform="translate(0)">
          <g id="Grupo_1143826" data-name="Grupo 1143826">
            <g id="Grupo_1143825" data-name="Grupo 1143825">
              <g id="Grupo_1143804" data-name="Grupo 1143804" transform="translate(0.849 0.849)">
                <g id="Grupo_1143795" data-name="Grupo 1143795" transform="translate(47.262 9.578)">
                  <path id="Trazado_978823" data-name="Trazado 978823" d="M374.438,125.958l-2.534,2.534-2.5.161.147-2.519,2.534-2.534-.146,2.5Z" transform="translate(-369.4 -123.6)" fill="#a1887f" fill-rule="evenodd"/>
                </g>
                <g id="Grupo_1143796" data-name="Grupo 1143796" transform="translate(20.109 13.811)">
                  <path id="Trazado_978824" data-name="Trazado 978824" d="M204.548,159.925a9.264,9.264,0,1,0,2.724,6.561A9.315,9.315,0,0,0,204.548,159.925Zm-8.963-7.22a14.362,14.362,0,0,1,2.4-.205c.366,0,.718.015,1.069.044a13.984,13.984,0,0,1,0,27.886c-.352.029-.7.044-1.069.044a14.5,14.5,0,0,1-2.4-.205,13.922,13.922,0,0,1-6.181-2.739,14.082,14.082,0,0,1-4.76-6.81,13.907,13.907,0,0,1-.644-4.233,14.929,14.929,0,0,1,.234-2.578,14.005,14.005,0,0,1,11.351-11.2Z" transform="translate(-184 -152.5)" fill="#ff7043" fill-rule="evenodd"/>
                </g>
                <g id="Grupo_1143797" data-name="Grupo 1143797" transform="translate(24.81 18.512)">
                  <path id="Trazado_978825" data-name="Trazado 978825" d="M228.622,190.634a4.564,4.564,0,0,0-4.994-1,4.62,4.62,0,0,0-1.479,1,4.564,4.564,0,0,0-1,4.994,4.622,4.622,0,0,0,1,1.479,4.545,4.545,0,0,0,1.479,1,4.569,4.569,0,0,0,3.515,0,4.621,4.621,0,0,0,1.479-1,4.564,4.564,0,0,0,1-4.994A4.964,4.964,0,0,0,228.622,190.634Zm3.325-3.31a9.264,9.264,0,1,1-6.561-2.724A9.218,9.218,0,0,1,231.947,187.324Z" transform="translate(-216.1 -184.6)" fill="#ffe082" fill-rule="evenodd"/>
                </g>
                <g id="Grupo_1143798" data-name="Grupo 1143798" transform="translate(29.511 23.199)">
                  <path id="Trazado_978826" data-name="Trazado 978826" d="M256.021,217.947a4.564,4.564,0,0,1,1,4.994,4.621,4.621,0,0,1-1,1.479,4.564,4.564,0,0,1-4.994,1,4.62,4.62,0,0,1-1.479-1,4.544,4.544,0,0,1-1-1.479,4.569,4.569,0,0,1,0-3.515,4.62,4.62,0,0,1,1-1.479,4.543,4.543,0,0,1,1.479-1,4.569,4.569,0,0,1,3.515,0A4.966,4.966,0,0,1,256.021,217.947Z" transform="translate(-248.2 -216.6)" fill="#81c784" fill-rule="evenodd"/>
                </g>
                <g id="Grupo_1143799" data-name="Grupo 1143799" transform="translate(3.456 9.593)">
                  <path id="Trazado_978827" data-name="Trazado 978827" d="M92.357,152.948a13.921,13.921,0,0,0,6.181,2.739v4.042H70.3V123.7h5.4v1.567H93.118V123.7h5.4v4.423a13.968,13.968,0,0,0-11.351,11.189,13.61,13.61,0,0,0-.234,2.578,14.372,14.372,0,0,0,.644,4.233A14.149,14.149,0,0,0,92.357,152.948Z" transform="translate(-70.3 -123.7)" fill="#dcedc8" fill-rule="evenodd"/>
                </g>
                <g id="Grupo_1143800" data-name="Grupo 1143800" transform="translate(12.932)">
                  <path id="Trazado_978828" data-name="Trazado 978828" d="M144.285,61.525v1.831H135V58.2h9.285Z" transform="translate(-135 -58.2)" fill="#a1887f" fill-rule="evenodd"/>
                </g>
                <g id="Grupo_1143801" data-name="Grupo 1143801" transform="translate(8.875 3.31)">
                  <path id="Trazado_978829" data-name="Trazado 978829" d="M124.7,87.083V88.65H107.3V82.338a1.538,1.538,0,0,1,1.538-1.538h2.519v1.831h9.271V80.815h2.534a1.538,1.538,0,0,1,1.538,1.538v4.731Z" transform="translate(-107.3 -80.8)" fill="#a1887f" fill-rule="evenodd"/>
                </g>
                <g id="Grupo_1143802" data-name="Grupo 1143802" transform="translate(0 6.122)">
                  <path id="Trazado_978830" data-name="Trazado 978830" d="M81.85,135.619v7.338H46.7V100h8.875v3.456H50.156v36.029H78.379v-4.042a14.366,14.366,0,0,0,2.4.205c.366,0,.718-.015,1.069-.029Z" transform="translate(-46.7 -100)" fill="#d7ccc8" fill-rule="evenodd"/>
                </g>
                <g id="Grupo_1143803" data-name="Grupo 1143803" transform="translate(26.275 6.122)">
                  <path id="Trazado_978831" data-name="Trazado 978831" d="M234.975,100v7.733c-.352-.029-.7-.044-1.069-.044a14.5,14.5,0,0,0-2.4.205v-4.423h-5.4V100Z" transform="translate(-226.1 -100)" fill="#d7ccc8" fill-rule="evenodd"/>
                </g>
              </g>
              <g id="Grupo_1143824" data-name="Grupo 1143824">
                <g id="Grupo_1143805" data-name="Grupo 1143805" transform="translate(26.275 9.578)">
                  <path id="Trazado_978832" data-name="Trazado 978832" d="M226.568,123.937a.85.85,0,0,1-.849-.849V119.5h-4.57a.849.849,0,0,1,0-1.7h5.4a.85.85,0,0,1,.849.849v4.423A.851.851,0,0,1,226.568,123.937Z" transform="translate(-220.3 -117.8)" fill="#231f20" fill-rule="evenodd"/>
                </g>
                <g id="Grupo_1143806" data-name="Grupo 1143806" transform="translate(3.456 9.578)">
                  <path id="Trazado_978833" data-name="Trazado 978833" d="M93.587,155.528H65.349a.85.85,0,0,1-.849-.849V118.649a.85.85,0,0,1,.849-.849h5.4a.849.849,0,0,1,0,1.7H66.2v34.33H92.737v-3.193a.849.849,0,1,1,1.7,0v4.042a.87.87,0,0,1-.849.849Z" transform="translate(-64.5 -117.8)" fill="#231f20" fill-rule="evenodd"/>
                </g>
                <g id="Grupo_1143807" data-name="Grupo 1143807" transform="translate(8.875 3.31)">
                  <path id="Trazado_978834" data-name="Trazado 978834" d="M119.749,84.534h-17.4a.85.85,0,0,1-.849-.849v-6.3A2.388,2.388,0,0,1,103.887,75h2.519a.849.849,0,1,1,0,1.7h-2.534a.7.7,0,0,0-.7.7V82.85H118.9V77.4a.7.7,0,0,0-.7-.7h-2.534a.849.849,0,1,1,0-1.7H118.2a2.388,2.388,0,0,1,2.387,2.387v6.3A.829.829,0,0,1,119.749,84.534Z" transform="translate(-101.5 -75)" fill="#231f20" fill-rule="evenodd"/>
                </g>
                <g id="Grupo_1143808" data-name="Grupo 1143808" transform="translate(0 6.122)">
                  <path id="Trazado_978835" data-name="Trazado 978835" d="M76.9,138.841H41.749a.85.85,0,0,1-.849-.849V95.049a.85.85,0,0,1,.849-.849h8.875a.849.849,0,0,1,0,1.7H42.6v41.257H76.065v-6.5a.849.849,0,1,1,1.7,0v7.338A.862.862,0,0,1,76.9,138.841Z" transform="translate(-40.9 -94.2)" fill="#231f20" fill-rule="evenodd"/>
                </g>
                <g id="Grupo_1143809" data-name="Grupo 1143809" transform="translate(26.275 6.122)">
                  <path id="Trazado_978836" data-name="Trazado 978836" d="M230.025,103.632a.85.85,0,0,1-.849-.849V95.9h-8.026a.849.849,0,0,1,0-1.7h8.875a.85.85,0,0,1,.849.849v7.733A.85.85,0,0,1,230.025,103.632Z" transform="translate(-220.3 -94.2)" fill="#231f20" fill-rule="evenodd"/>
                </g>
                <g id="Grupo_1143810" data-name="Grupo 1143810" transform="translate(12.932)">
                  <path id="Trazado_978837" data-name="Trazado 978837" d="M139.335,59.254h-9.285a.85.85,0,0,1-.849-.849V53.249a.85.85,0,0,1,.849-.849h9.271a.85.85,0,0,1,.849.849V58.4A.847.847,0,0,1,139.335,59.254Zm-8.436-1.7h7.587V54.1H130.9Z" transform="translate(-129.2 -52.4)" fill="#231f20" fill-rule="evenodd"/>
                </g>
                <g id="Grupo_1143811" data-name="Grupo 1143811" transform="translate(14.88 18.395)">
                  <path id="Trazado_978838" data-name="Trazado 978838" d="M152.2,179.7h-8.846a.849.849,0,0,1,0-1.7H152.2a.849.849,0,1,1,0,1.7Z" transform="translate(-142.5 -178)" fill="#231f20" fill-rule="evenodd"/>
                </g>
                <g id="Grupo_1143812" data-name="Grupo 1143812" transform="translate(8.066 16.513)">
                  <path id="Trazado_978839" data-name="Trazado 978839" d="M97.927,169.375a.855.855,0,0,1-.6-.249l-1.1-1.1a.823.823,0,0,1,0-1.186.849.849,0,0,1,1.186,0l.5.5,1.948-1.948a.849.849,0,0,1,1.186,0,.823.823,0,0,1,0,1.186l-2.534,2.534A.811.811,0,0,1,97.927,169.375Z" transform="translate(-95.975 -165.15)" fill="#231f20" fill-rule="evenodd"/>
                </g>
                <g id="Grupo_1143813" data-name="Grupo 1143813" transform="translate(14.88 25.206)">
                  <path id="Trazado_978840" data-name="Trazado 978840" d="M148.812,226.2h-5.463a.849.849,0,1,1,0-1.7h5.463a.849.849,0,0,1,0,1.7Z" transform="translate(-142.5 -224.5)" fill="#231f20" fill-rule="evenodd"/>
                </g>
                <g id="Grupo_1143814" data-name="Grupo 1143814" transform="translate(8.066 23.313)">
                  <path id="Trazado_978841" data-name="Trazado 978841" d="M97.927,215.811a.854.854,0,0,1-.6-.249l-1.1-1.1a.823.823,0,0,1,0-1.186.835.835,0,0,1,1.186,0l.5.5,1.948-1.948a.823.823,0,0,1,1.186,0,.835.835,0,0,1,0,1.186l-2.534,2.534A.758.758,0,0,1,97.927,215.811Z" transform="translate(-95.975 -211.575)" fill="#231f20" fill-rule="evenodd"/>
                </g>
                <g id="Grupo_1143815" data-name="Grupo 1143815" transform="translate(14.88 32.016)">
                  <path id="Trazado_978842" data-name="Trazado 978842" d="M149.222,272.7h-5.873a.849.849,0,0,1,0-1.7h5.873a.849.849,0,0,1,0,1.7Z" transform="translate(-142.5 -271)" fill="#231f20" fill-rule="evenodd"/>
                </g>
                <g id="Grupo_1143816" data-name="Grupo 1143816" transform="translate(8.066 30.123)">
                  <path id="Trazado_978843" data-name="Trazado 978843" d="M97.927,262.311a.855.855,0,0,1-.6-.249l-1.1-1.1a.839.839,0,0,1,1.186-1.186l.5.5,1.948-1.948a.823.823,0,0,1,1.186,0,.835.835,0,0,1,0,1.186l-2.534,2.534A.759.759,0,0,1,97.927,262.311Z" transform="translate(-95.975 -258.075)" fill="#231f20" fill-rule="evenodd"/>
                </g>
                <g id="Grupo_1143817" data-name="Grupo 1143817" transform="translate(14.88 38.826)">
                  <path id="Trazado_978844" data-name="Trazado 978844" d="M153.982,319.2H143.349a.849.849,0,1,1,0-1.7h10.633a.849.849,0,0,1,0,1.7Z" transform="translate(-142.5 -317.5)" fill="#231f20" fill-rule="evenodd"/>
                </g>
                <g id="Grupo_1143818" data-name="Grupo 1143818" transform="translate(8.066 36.933)">
                  <path id="Trazado_978845" data-name="Trazado 978845" d="M97.927,308.811a.855.855,0,0,1-.6-.249l-1.1-1.1a.839.839,0,0,1,1.186-1.186l.5.5,1.948-1.948a.839.839,0,0,1,1.186,1.186l-2.534,2.534A.759.759,0,0,1,97.927,308.811Z" transform="translate(-95.975 -304.575)" fill="#231f20" fill-rule="evenodd"/>
                </g>
                <g id="Grupo_1143819" data-name="Grupo 1143819" transform="translate(20.123 13.826)">
                  <path id="Trazado_978846" data-name="Trazado 978846" d="M193.107,176.443a14.549,14.549,0,0,1-2.534-.22,14.78,14.78,0,0,1-6.532-2.885l-.015-.015a14.76,14.76,0,0,1-5.038-7.22,14.988,14.988,0,0,1-.688-4.482,15.488,15.488,0,0,1,.249-2.739,14.728,14.728,0,0,1,3.588-7.22,15.057,15.057,0,0,1,3.793-3,14.886,14.886,0,0,1,7.191-1.86c.381,0,.762.015,1.128.044a14.835,14.835,0,0,1,.015,29.585C193.869,176.429,193.488,176.443,193.107,176.443Zm-8.07-4.467.015.015a13.033,13.033,0,0,0,5.8,2.563,12.788,12.788,0,0,0,2.255.19c.337,0,.674-.015,1-.044a13.187,13.187,0,0,0,12.141-13.093A13.141,13.141,0,0,0,194.1,148.514c-.322-.029-.674-.044-1-.044a12.907,12.907,0,0,0-2.255.19,13.282,13.282,0,0,0-7.484,4.116,12.989,12.989,0,0,0-3.178,6.4,13.4,13.4,0,0,0-.22,2.431,12.922,12.922,0,0,0,.615,3.969A13.053,13.053,0,0,0,185.037,171.976Z" transform="translate(-178.3 -146.8)" fill="#212121" fill-rule="evenodd"/>
                </g>
                <g id="Grupo_1143820" data-name="Grupo 1143820" transform="translate(24.795 18.498)">
                  <path id="Trazado_978847" data-name="Trazado 978847" d="M220.335,198.97A10.151,10.151,0,1,1,227.5,196,10.048,10.048,0,0,1,220.335,198.97Zm0-18.556a8.451,8.451,0,1,0,5.961,2.475A8.339,8.339,0,0,0,220.335,180.414Z" transform="translate(-210.2 -178.7)" fill="#212121" fill-rule="evenodd"/>
                </g>
                <g id="Grupo_1143821" data-name="Grupo 1143821" transform="translate(29.497 23.199)">
                  <path id="Trazado_978848" data-name="Trazado 978848" d="M247.734,221.667a5.269,5.269,0,0,1-2.08-.41,5.566,5.566,0,0,1-2.944-2.944,5.541,5.541,0,0,1-.41-2.08,5.269,5.269,0,0,1,.41-2.08,5.566,5.566,0,0,1,2.944-2.944,5.479,5.479,0,0,1,4.159,0,5.566,5.566,0,0,1,2.944,2.944,5.541,5.541,0,0,1,.41,2.08,5.268,5.268,0,0,1-.41,2.08,5.566,5.566,0,0,1-2.944,2.944A5.218,5.218,0,0,1,247.734,221.667Zm0-9.168a3.764,3.764,0,0,0-3.471,5.185,3.568,3.568,0,0,0,.82,1.216,3.79,3.79,0,0,0,1.216.82,3.841,3.841,0,0,0,2.871,0,3.568,3.568,0,0,0,1.216-.82,3.791,3.791,0,0,0,.82-1.216,3.78,3.78,0,0,0-2.036-4.906A3.854,3.854,0,0,0,247.734,212.5Z" transform="translate(-242.3 -210.8)" fill="#212121" fill-rule="evenodd"/>
                </g>
                <g id="Grupo_1143822" data-name="Grupo 1143822" transform="translate(34.088 14.639)">
                  <path id="Trazado_978849" data-name="Trazado 978849" d="M274.492,167.194a.881.881,0,0,1-.6-.249.849.849,0,0,1,0-1.186l13.167-13.167a.839.839,0,0,1,1.186,1.186l-13.167,13.167A.745.745,0,0,1,274.492,167.194Z" transform="translate(-273.65 -152.35)" fill="#212121" fill-rule="evenodd"/>
                </g>
                <g id="Grupo_1143823" data-name="Grupo 1143823" transform="translate(47.261 9.591)">
                  <path id="Trazado_978850" data-name="Trazado 978850" d="M364.44,124.612a.855.855,0,0,1-.6-.249.838.838,0,0,1-.249-.644l.147-2.5a.849.849,0,0,1,.249-.542l2.534-2.534a.834.834,0,0,1,.937-.176.852.852,0,0,1,.5.82l-.088,1.567,1.567-.088a.852.852,0,0,1,.82.5.829.829,0,0,1-.176.937l-2.534,2.534a.849.849,0,0,1-.542.249l-2.5.146A.111.111,0,0,0,364.44,124.612Zm.967-2.988-.073,1.245,1.245-.073.747-.747-.293.015a.853.853,0,0,1-.893-.893l.015-.293Z" transform="translate(-363.589 -117.888)" fill="#212121" fill-rule="evenodd"/>
                </g>
              </g>
            </g>
          </g>
        </g>
      </g>
    </g>
  </g>
</svg>
