<svg xmlns="http://www.w3.org/2000/svg" xmlns:xlink="http://www.w3.org/1999/xlink" width="108" height="108" viewBox="0 0 108 108">
  <defs>
    <filter id="Trazado_904820" x="0" y="0" width="108" height="108" filterUnits="userSpaceOnUse">
      <feOffset dy="3" input="SourceAlpha"/>
      <feGaussianBlur stdDeviation="3" result="blur"/>
      <feFlood flood-opacity="0.161"/>
      <feComposite operator="in" in2="blur"/>
      <feComposite in="SourceGraphic"/>
    </filter>
  </defs>
  <g id="Grupo_1143754" data-name="Grupo 1143754" transform="translate(-201 -856)">
    <g transform="matrix(1, 0, 0, 1, 201, 856)" filter="url(#Trazado_904820)">
      <g id="Trazado_904820-2" data-name="Trazado 904820" transform="translate(9 6)" fill="#ecf4fa">
        <path d="M 45 88.5 C 39.12687683105469 88.5 33.43022537231445 87.35007476806641 28.06830024719238 85.08217620849609 C 22.88852500915527 82.89131164550781 18.23629951477051 79.75458526611328 14.2408504486084 75.75914764404297 C 10.24541282653809 71.76370239257812 7.108687400817871 67.11147308349609 4.917825222015381 61.93170166015625 C 2.649924993515015 56.56977462768555 1.5 50.87312316894531 1.5 45 C 1.5 39.12687683105469 2.649924993515015 33.43022537231445 4.917825222015381 28.06830024719238 C 7.108687400817871 22.88852500915527 10.24541282653809 18.23629951477051 14.2408504486084 14.2408504486084 C 18.23629951477051 10.24541282653809 22.88852500915527 7.108687400817871 28.06830024719238 4.917825222015381 C 33.43022537231445 2.649924993515015 39.12687683105469 1.5 45 1.5 C 50.87312316894531 1.5 56.56977462768555 2.649924993515015 61.93170166015625 4.917825222015381 C 67.11147308349609 7.108687400817871 71.76370239257812 10.24541282653809 75.75914764404297 14.2408504486084 C 79.75458526611328 18.23629951477051 82.89131164550781 22.88852500915527 85.08217620849609 28.06830024719238 C 87.35007476806641 33.43022537231445 88.5 39.12687683105469 88.5 45 C 88.5 50.87312316894531 87.35007476806641 56.56977462768555 85.08217620849609 61.93170166015625 C 82.89131164550781 67.11147308349609 79.75458526611328 71.76370239257812 75.75914764404297 75.75914764404297 C 71.76370239257812 79.75458526611328 67.11147308349609 82.89131164550781 61.93170166015625 85.08217620849609 C 56.56977462768555 87.35007476806641 50.87312316894531 88.5 45 88.5 Z" stroke="none"/>
        <path d="M 45 3 C 39.32871246337891 3 33.82865524291992 4.110054016113281 28.65262985229492 6.299339294433594 C 23.65165710449219 8.414573669433594 19.15968322753906 11.44334411621094 15.301513671875 15.301513671875 C 11.44334411621094 19.15968322753906 8.414573669433594 23.65165710449219 6.299339294433594 28.65262985229492 C 4.110054016113281 33.82865524291992 3 39.32871246337891 3 45 C 3 50.67128753662109 4.110054016113281 56.17134475708008 6.299339294433594 61.34737396240234 C 8.414573669433594 66.34834289550781 11.44334411621094 70.84031677246094 15.301513671875 74.698486328125 C 19.15968322753906 78.55665588378906 23.65165710449219 81.58542633056641 28.65262985229492 83.70066070556641 C 33.82865524291992 85.88994598388672 39.32871246337891 87 45 87 C 50.67128753662109 87 56.17134475708008 85.88994598388672 61.34737396240234 83.70066070556641 C 66.34834289550781 81.58542633056641 70.84031677246094 78.55665588378906 74.698486328125 74.698486328125 C 78.55665588378906 70.84031677246094 81.58542633056641 66.34834289550781 83.70066070556641 61.34737396240234 C 85.88994598388672 56.17134475708008 87 50.67128753662109 87 45 C 87 39.32871246337891 85.88994598388672 33.82865524291992 83.70066070556641 28.65262985229492 C 81.58542633056641 23.65165710449219 78.55665588378906 19.15968322753906 74.698486328125 15.301513671875 C 70.84031677246094 11.44334411621094 66.34834289550781 8.414573669433594 61.34737396240234 6.299339294433594 C 56.17134475708008 4.110054016113281 50.67128753662109 3 45 3 M 45 0 C 69.85281372070312 0 90 20.14718627929688 90 45 C 90 69.85281372070312 69.85281372070312 90 45 90 C 20.14718627929688 90 0 69.85281372070312 0 45 C 0 20.14718627929688 20.14718627929688 0 45 0 Z" stroke="none" fill="#2a5673"/>
      </g>
    </g>
    <g id="Grupo_1143753" data-name="Grupo 1143753" transform="translate(226.885 878.886)">
      <g id="Grupo_1143747" data-name="Grupo 1143747" transform="translate(7.702 13.027)">
        <path id="Trazado_978697" data-name="Trazado 978697" d="M110.955,156.115s-4.659-4.659-8.764-13.978c-4.651-10.559-4.549-23.519-11.649-23.519s-7,12.96-11.649,23.519c-4.1,9.319-8.764,13.978-8.764,13.978h40.825Z" transform="translate(-70.13 -118.618)" fill="#e490d0"/>
      </g>
      <g id="Grupo_1143748" data-name="Grupo 1143748" transform="translate(28.115 27.227)">
        <path id="Trazado_978698" data-name="Trazado 978698" d="M283.291,271.215a30.445,30.445,0,0,1-5.859-8.685c-3.109-6.56-3.041-14.612-7.787-14.612s-4.678,8.052-7.787,14.612A30.444,30.444,0,0,1,256,271.215Z" transform="translate(-256 -247.918)" fill="#b3e59f"/>
      </g>
      <g id="Grupo_1143749" data-name="Grupo 1143749" transform="translate(40.318 27.227)">
        <path id="Trazado_978699" data-name="Trazado 978699" d="M376.347,262.53c-3.109-6.56-3.041-14.612-7.787-14.612a3.436,3.436,0,0,0-1.442.3c3.329,1.512,3.589,8.5,6.345,14.314a30.445,30.445,0,0,0,5.859,8.685h2.884A30.445,30.445,0,0,1,376.347,262.53Z" transform="translate(-367.118 -247.918)" fill="#95d6a4"/>
      </g>
      <g id="Grupo_1143750" data-name="Grupo 1143750" transform="translate(24.529 13.027)">
        <path id="Trazado_978700" data-name="Trazado 978700" d="M238.59,142.137c-4.651-10.559-4.549-23.519-11.649-23.519a5.071,5.071,0,0,0-1.387.187c4.451,1.257,5.57,8.735,7.883,16.618a4.4,4.4,0,0,1-.019,2.54c-.2.658-.4,1.34-.6,2.04a42.418,42.418,0,0,1-2.22,6.382,28.7,28.7,0,0,1-5.315,7.942l-1.923,1.788h24s-4.659-4.659-8.764-13.978Z" transform="translate(-223.356 -118.618)" fill="#df73c1"/>
      </g>
      <g id="Grupo_1143751" data-name="Grupo 1143751" transform="translate(28.115 30.875)">
        <path id="Trazado_978701" data-name="Trazado 978701" d="M265.583,281.132c-1.2,2.944-1.94,7.2-3.724,10.965A30.444,30.444,0,0,1,256,300.781h20.413s-4.659-4.659-8.764-13.978A51.764,51.764,0,0,1,265.583,281.132Z" transform="translate(-256 -281.132)" fill="#ac80dd"/>
      </g>
      <g id="Grupo_1143752" data-name="Grupo 1143752" transform="translate(0 0)">
        <path id="Trazado_978702" data-name="Trazado 978702" d="M55.405,52.807H3.422V28.034a.824.824,0,0,0,0-1.614V13.834a.824.824,0,0,0,0-1.614V.824a.824.824,0,1,0-1.647,0V5.1H.824a.824.824,0,0,0,0,1.647h.951V12.2H.824a.824.824,0,1,0,0,1.647h.951V19.3H.824a.824.824,0,1,0,0,1.647h.951V26.4H.824a.824.824,0,1,0,0,1.647h.951V33.5H.824a.824.824,0,0,0,0,1.647h.951V40.6H.824a.824.824,0,0,0,0,1.647h.951V47.7H.824a.824.824,0,0,0,0,1.647h.951V53.63a.824.824,0,0,0,.824.824H6.878v.951a.824.824,0,0,0,1.647,0v-.951h5.453v.951a.824.824,0,0,0,1.647,0v-.951h5.453v.951a.824.824,0,0,0,1.647,0v-.951h5.453v.951a.824.824,0,0,0,1.647,0v-.951h5.453v.951a.824.824,0,1,0,1.647,0v-.951h5.453v.951a.824.824,0,0,0,1.647,0v-.951h5.453v.951a.824.824,0,0,0,1.647,0v-.951h4.28a.824.824,0,1,0,0-1.647Z" transform="translate(0 0)"/>
        <path id="Trazado_978703" data-name="Trazado 978703" d="M451.585,388.466a.824.824,0,0,0-.339,1.114,29.423,29.423,0,0,0,5.2,7.264.824.824,0,0,0,1.122-1.206,28.416,28.416,0,0,1-4.87-6.833.824.824,0,0,0-1.114-.339Z" transform="translate(-401.602 -345.717)"/>
        <path id="Trazado_978704" data-name="Trazado 978704" d="M62.871,232.953a.824.824,0,0,0,1.165,1.165c.195-.195,4.816-4.875,8.935-14.229a64.641,64.641,0,0,0,2.986-8.827h2.251a.824.824,0,1,0,0-1.647h-1.8l.137-.507c.213-.79.413-1.536.618-2.274a.824.824,0,1,0-1.587-.441c-.207.744-.408,1.493-.622,2.287a75.422,75.422,0,0,1-3.488,10.745c-3.984,9.047-8.547,13.682-8.593,13.728Z" transform="translate(-55.752 -183.011)"/>
        <path id="Trazado_978705" data-name="Trazado 978705" d="M381.848,377.027a.824.824,0,0,0-1.433.813,42.536,42.536,0,0,0,6.071,8.516.824.824,0,0,0,1.165-1.165A41.874,41.874,0,0,1,381.848,377.027Z" transform="translate(-338.542 -335.249)"/>
        <path id="Trazado_978706" data-name="Trazado 978706" d="M190.464,118.369a.824.824,0,0,0,1.556.541c1.517-4.365,3.14-6.145,5.6-6.145,4.086,0,5.515,5.316,7.325,12.046l.136.506h-.028a.824.824,0,0,0,0,1.647h.476c.252.914.518,1.847.8,2.787-.471,1.208-.871,2.589-1.286,4.023a43.587,43.587,0,0,1-2.312,6.625,30.059,30.059,0,0,1-5.676,8.435.824.824,0,0,0,1.122,1.206,31.048,31.048,0,0,0,6.043-8.935,45.52,45.52,0,0,0,2.406-6.873c.19-.658.373-1.278.552-1.858.4,1.154.842,2.3,1.333,3.417.334.759.688,1.522,1.051,2.268a.824.824,0,0,0,1.481-.722c-.354-.726-.7-1.469-1.024-2.209a50.267,50.267,0,0,1-1.94-5.289c.789-1.837,1.707-2.874,3.183-2.874,2.411,0,3.333,2.762,4.636,7.268.468,1.617.951,3.29,1.594,4.965a.824.824,0,1,0,1.538-.59c-.617-1.61-1.091-3.248-1.549-4.833a28.217,28.217,0,0,0-2.073-5.724,7.3,7.3,0,0,0-.744-1.087h1.294a.824.824,0,1,0,0-1.647h-1.309a.824.824,0,0,0-.824.824s0,.009,0,.014a4.127,4.127,0,0,0-2.564-.838l-.062,0-.042,0h-1.309a.824.824,0,0,0-.791.6,5.293,5.293,0,0,0-1.651,1.665c-.31-1.091-.6-2.163-.876-3.194-1.317-4.9-2.51-9.334-4.867-11.627a.823.823,0,0,0-.107-1.64h-1.309a.821.821,0,0,0-.655.326,5.859,5.859,0,0,0-1.978-.326h-2.167a.823.823,0,0,0-.823.814C192.539,113.21,191.354,115.81,190.464,118.369Z" transform="translate(-169.506 -98.915)"/>
        <path id="Trazado_978707" data-name="Trazado 978707" d="M448.119,112.765h1.309a.824.824,0,1,0,0-1.647h-1.309a.824.824,0,1,0,0,1.647Z" transform="translate(-398.172 -98.915)"/>
        <path id="Trazado_978708" data-name="Trazado 978708" d="M404.414,112.765h1.309a.824.824,0,1,0,0-1.647h-1.309a.824.824,0,0,0,0,1.647Z" transform="translate(-359.267 -98.915)"/>
        <path id="Trazado_978709" data-name="Trazado 978709" d="M360.709,112.765h1.309a.824.824,0,0,0,0-1.647h-1.309a.824.824,0,0,0,0,1.647Z" transform="translate(-320.362 -98.915)"/>
        <path id="Trazado_978710" data-name="Trazado 978710" d="M317,112.765h1.309a.824.824,0,0,0,0-1.647H317a.824.824,0,0,0,0,1.647Z" transform="translate(-281.456 -98.915)"/>
        <path id="Trazado_978711" data-name="Trazado 978711" d="M185.888,112.765H187.2a.824.824,0,0,0,0-1.647h-1.309a.824.824,0,0,0,0,1.647Z" transform="translate(-164.74 -98.915)"/>
        <path id="Trazado_978712" data-name="Trazado 978712" d="M142.182,112.765h1.309a.824.824,0,0,0,0-1.647h-1.309a.824.824,0,0,0,0,1.647Z" transform="translate(-125.834 -98.915)"/>
        <path id="Trazado_978713" data-name="Trazado 978713" d="M98.477,112.765h1.309a.824.824,0,1,0,0-1.647H98.477a.824.824,0,0,0,0,1.647Z" transform="translate(-86.929 -98.915)"/>
        <path id="Trazado_978714" data-name="Trazado 978714" d="M54.772,112.765h1.309a.824.824,0,0,0,0-1.647H54.772a.824.824,0,0,0,0,1.647Z" transform="translate(-48.023 -98.915)"/>
        <path id="Trazado_978715" data-name="Trazado 978715" d="M491.824,112.765h.659a.824.824,0,1,0,0-1.647h-.659a.824.824,0,0,0,0,1.647Z" transform="translate(-437.077 -98.915)"/>
        <path id="Trazado_978716" data-name="Trazado 978716" d="M142.182,242.066h1.309a.824.824,0,1,0,0-1.647h-1.309a.824.824,0,1,0,0,1.647Z" transform="translate(-125.834 -214.016)"/>
        <path id="Trazado_978717" data-name="Trazado 978717" d="M54.772,242.066h1.309a.824.824,0,0,0,0-1.647H54.772a.824.824,0,1,0,0,1.647Z" transform="translate(-48.023 -214.016)"/>
        <path id="Trazado_978718" data-name="Trazado 978718" d="M448.119,242.066h1.309a.824.824,0,1,0,0-1.647h-1.309a.824.824,0,0,0,0,1.647Z" transform="translate(-398.172 -214.016)"/>
        <path id="Trazado_978719" data-name="Trazado 978719" d="M274.608,242.066a.824.824,0,1,0,0-1.647H273.3a.824.824,0,0,0,0,1.647Z" transform="translate(-242.551 -214.016)"/>
        <path id="Trazado_978720" data-name="Trazado 978720" d="M231.725,241.243a.824.824,0,0,0-.824-.824h-1.309a.824.824,0,1,0,0,1.647H230.9A.824.824,0,0,0,231.725,241.243Z" transform="translate(-203.645 -214.016)"/>
        <path id="Trazado_978721" data-name="Trazado 978721" d="M98.477,242.066h1.309a.824.824,0,1,0,0-1.647H98.477a.824.824,0,1,0,0,1.647Z" transform="translate(-86.929 -214.016)"/>
        <path id="Trazado_978722" data-name="Trazado 978722" d="M492.483,240.419h-.659a.824.824,0,1,0,0,1.647h.659a.824.824,0,1,0,0-1.647Z" transform="translate(-437.077 -214.016)"/>
      </g>
    </g>
  </g>
</svg>
