<svg xmlns="http://www.w3.org/2000/svg" xmlns:xlink="http://www.w3.org/1999/xlink" width="108" height="108" viewBox="0 0 108 108">
  <defs>
    <filter id="Fondo" x="0" y="0" width="108" height="108" filterUnits="userSpaceOnUse">
      <feOffset dy="3" input="SourceAlpha"/>
      <feGaussianBlur stdDeviation="3" result="blur"/>
      <feFlood flood-opacity="0.161"/>
      <feComposite operator="in" in2="blur"/>
      <feComposite in="SourceGraphic"/>
    </filter>
  </defs>
  <g id="Grupo_1143738" data-name="Grupo 1143738" transform="translate(-325 -2093)">
    <g transform="matrix(1, 0, 0, 1, 325, 2093)" filter="url(#Fondo)">
      <g id="Fondo-2" data-name="Fondo" transform="translate(9 6)" fill="#fff8d5" stroke="#bca724" stroke-width="3">
        <circle cx="45" cy="45" r="45" stroke="none"/>
        <circle cx="45" cy="45" r="43.5" fill="none"/>
      </g>
    </g>
    <g id="Grupo_1143737" data-name="Grupo 1143737" transform="translate(293.947 2118.251)">
      <g id="Grupo_1143735" data-name="Grupo 1143735" transform="translate(64.934 0.818)">
        <g id="Grupo_1143728" data-name="Grupo 1143728" transform="translate(0 0)">
          <g id="Grupo_1143727" data-name="Grupo 1143727">
            <g id="Grupo_1143726" data-name="Grupo 1143726">
              <path id="Trazado_978666" data-name="Trazado 978666" d="M195.452,69.344l9.52-7.457L206.458,48.9l-11.006-6.059-4.468,6.14a7.556,7.556,0,0,1-.865,13.882A10.726,10.726,0,0,0,183,72.976v1.951a4.6,4.6,0,0,0,4.6,4.6h6.729Z" transform="translate(-170.849 -38.987)" fill="#fe7d43"/>
              <path id="Trazado_978667" data-name="Trazado 978667" d="M89.489,7.536A16.746,16.746,0,0,0,71.615,24.254a4.6,4.6,0,0,0,4.6,4.6h6.729" transform="translate(-71.615 -7.5)" fill="#fe7d43"/>
            </g>
            <path id="Trazado_978668" data-name="Trazado 978668" d="M194.33,419.815H187.6a4.6,4.6,0,0,0-4.6,4.6v.038a4.6,4.6,0,0,0,4.6,4.6h5.911" transform="translate(-170.846 -374.825)" fill="#fe7d43"/>
          </g>
          <path id="Trazado_978669" data-name="Trazado 978669" d="M242.15,7.5h-6.729" transform="translate(-217.547 -7.5)" fill="#fe7d43"/>
        </g>
        <g id="Grupo_1143734" data-name="Grupo 1143734" transform="translate(6.729)">
          <g id="Grupo_1143733" data-name="Grupo 1143733">
            <g id="Grupo_1143730" data-name="Grupo 1143730" transform="translate(0 0)">
              <g id="Grupo_1143729" data-name="Grupo 1143729">
                <path id="Trazado_978670" data-name="Trazado 978670" d="M150.037,48.04a4.6,4.6,0,0,1-4.6-4.6V41.488a10.723,10.723,0,0,1,7.116-10.109,7.555,7.555,0,1,0-10-8.184,7.686,7.686,0,0,0-.073,1.059,4.6,4.6,0,1,1-9.2,0,16.756,16.756,0,1,1,22.338,15.8,1.507,1.507,0,0,0-.982,1.433v1.952a4.6,4.6,0,0,1-4.6,4.6Z" transform="translate(-133.282 -7.5)" fill="#ffd15b"/>
              </g>
              <path id="Trazado_978671" data-name="Trazado 978671" d="M249.269,429.055a4.6,4.6,0,0,1-4.6-4.6v-.038a4.6,4.6,0,1,1,9.2,0v.038A4.6,4.6,0,0,1,249.269,429.055Z" transform="translate(-232.514 -374.825)" fill="#ffd15b"/>
            </g>
            <g id="Grupo_1143732" data-name="Grupo 1143732" transform="translate(0)">
              <g id="Grupo_1143731" data-name="Grupo 1143731">
                <path id="Trazado_978672" data-name="Trazado 978672" d="M137.512,21.92a16.776,16.776,0,0,0-.161,2.33,4.6,4.6,0,0,0,2.567,4.127,4.6,4.6,0,0,1-6.635-4.127A16.758,16.758,0,0,1,151.158,7.531q.469.031.931.09A16.832,16.832,0,0,0,137.512,21.92Z" transform="translate(-133.283 -7.495)" fill="#ffc344"/>
                <path id="Trazado_978673" data-name="Trazado 978673" d="M255.86,106.511a10.727,10.727,0,0,0-7.117,10.11v1.951a4.6,4.6,0,0,0,2.569,4.127,4.6,4.6,0,0,1-6.635-4.127v-1.951a10.724,10.724,0,0,1,7.117-10.11,7.556,7.556,0,0,0-.469-14.4,7.551,7.551,0,0,1,4.534,14.4Z" transform="translate(-232.522 -82.632)" fill="#ffc344"/>
              </g>
              <path id="Trazado_978674" data-name="Trazado 978674" d="M251.312,428.572a4.6,4.6,0,0,1-6.635-4.127v-.039a4.6,4.6,0,0,1,6.635-4.127,4.6,4.6,0,0,0-2.569,4.127v.039A4.6,4.6,0,0,0,251.312,428.572Z" transform="translate(-232.522 -374.815)" fill="#ffc344"/>
            </g>
          </g>
        </g>
      </g>
      <g id="Grupo_1143736" data-name="Grupo 1143736" transform="translate(64.116 0)">
        <path id="Trazado_978675" data-name="Trazado 978675" d="M105.944,16.269A17.62,17.62,0,0,0,89.591.038C89.187.011,81.684,0,81.684,0h-.021A17.521,17.521,0,0,0,73.311,2.15a17.716,17.716,0,0,0-6.854,6.677.818.818,0,1,0,1.417.819A16.08,16.08,0,0,1,74.1,3.587a15.9,15.9,0,0,1,6.932-1.934,17.515,17.515,0,0,0-10.182,15.92,5.4,5.4,0,0,0,1.544,3.783H69.535a3.787,3.787,0,0,1-3.782-3.783,16.134,16.134,0,0,1,.154-2.217,15.848,15.848,0,0,1,.523-2.381.818.818,0,0,0-1.567-.473,17.5,17.5,0,0,0-.577,2.628,17.777,17.777,0,0,0-.169,2.444,5.425,5.425,0,0,0,5.419,5.42h6.734a5.425,5.425,0,0,0,5.415-5.419,6.869,6.869,0,0,1,.065-.946,6.716,6.716,0,0,1,3.318-4.882,6.737,6.737,0,0,1-1.136,12.181A11.546,11.546,0,0,0,76.27,34.807v1.951a5.425,5.425,0,0,0,5.419,5.42h6.729a5.426,5.426,0,0,0,5.419-5.419V34.806a.689.689,0,0,1,.436-.661A17.636,17.636,0,0,0,105.944,16.269ZM77.907,36.758V34.807a9.907,9.907,0,0,1,6.57-9.338A8.37,8.37,0,0,0,86.9,11.019a6.733,6.733,0,0,1,3.765,12.907A11.543,11.543,0,0,0,83,34.806v1.952a5.4,5.4,0,0,0,1.544,3.783H81.689A3.787,3.787,0,0,1,77.907,36.758ZM93.728,32.6a2.327,2.327,0,0,0-1.527,2.2v1.952a3.783,3.783,0,1,1-7.565,0V34.806a9.9,9.9,0,0,1,6.571-9.337A8.373,8.373,0,0,0,88.99,9.22q-.279-.018-.554-.018a8.408,8.408,0,0,0-8.308,7.2,8.523,8.523,0,0,0-.081,1.172,3.783,3.783,0,1,1-7.565,0A15.937,15.937,0,1,1,93.728,32.6Z" transform="translate(-64.116 0)"/>
        <path id="Trazado_978676" data-name="Trazado 978676" d="M187.65,412.315H180.92a5.426,5.426,0,0,0-5.419,5.419v.038a5.426,5.426,0,0,0,5.419,5.419s6.871,0,6.942,0a.818.818,0,1,0-.059-1.636l-.154,0a3.787,3.787,0,0,1-3.783-3.783v-.038a3.783,3.783,0,0,1,7.565,0v.038a3.791,3.791,0,0,1-.876,2.422.818.818,0,0,0,1.257,1.048,5.431,5.431,0,0,0,1.256-3.47v-.038a5.425,5.425,0,0,0-5.419-5.419Zm-10.512,5.457v-.038a3.787,3.787,0,0,1,3.783-3.783h2.853a5.4,5.4,0,0,0-1.544,3.782v.038a5.4,5.4,0,0,0,1.544,3.783H180.92A3.787,3.787,0,0,1,177.138,417.772Z" transform="translate(-163.347 -367.325)"/>
      </g>
    </g>
  </g>
</svg>
